<svg version="1.1" viewBox="0.0 0.0 600.0 371.0" fill="none" stroke="none" stroke-linecap="square" stroke-miterlimit="10" width="600" height="371" xmlns:xlink="http://www.w3.org/1999/xlink" xmlns="http://www.w3.org/2000/svg"><path fill="#ffffff" fill-opacity="0.0" d="M0 0L600.0 0L600.0 371.0L0 371.0L0 0Z" fill-rule="nonzero"/><path fill="#474747" d="M290.65887 318.772C212.27931 315.32016 151.23334 269.815 151.23334 214.84084L151.23334 192.52583C151.23334 247.5 212.27931 293.00516 290.65887 296.457Z" fill-rule="nonzero"/><path fill="#474747" d="M262.80832 192.52583C262.80832 178.14755 279.4596 166.49167 300.0 166.49167L300.0 188.80667C279.4596 188.80667 262.80832 200.46255 262.80832 214.84084Z" fill-rule="nonzero"/><path fill="#666666" d="M290.65887 296.457C210.47513 292.9257 148.78313 245.46666 151.30675 189.25482C153.83035 133.04298 219.65773 88.38917 300.0 88.38917L300.0 166.49167C279.91443 166.49167 263.45758 177.65512 262.8267 191.70808C262.19577 205.76105 277.61877 217.6258 297.6647 218.50862Z" fill-rule="nonzero"/><path fill="#6b6b6b" d="M448.76666 214.84084C448.76666 243.59506 431.78198 271.06958 401.8378 290.7532C371.89362 310.43683 331.65527 320.5775 290.65887 318.772L290.65887 296.457C331.65527 298.2625 371.89362 288.12183 401.8378 268.4382C431.78198 248.75458 448.76666 221.28006 448.76666 192.52583Z" fill-rule="nonzero"/><path fill="#6b6b6b" d="M300.0 166.49167C320.5404 166.49167 337.19168 178.14755 337.19168 192.52583L337.19168 214.84084C337.19168 200.46255 320.5404 188.80667 300.0 188.80667Z" fill-rule="nonzero"/><path fill="#999999" d="M300.0 88.38917C354.26395 88.38917 404.22336 109.07131 430.36523 142.3576C456.50708 175.6439 454.68393 216.25346 425.60785 248.32504C396.53177 280.39664 344.81573 298.8421 290.65887 296.457L297.6647 218.50862C311.20392 219.1049 324.13293 214.49353 331.40198 206.47563C338.671 198.45773 339.12677 188.30536 332.5913 179.98378C326.05585 171.6622 313.56598 166.49167 300.0 166.49167Z" fill-rule="nonzero"/><path fill="#333333" d="M392.05563 197.377L393.96188 197.17387Q394.05563 197.83012 394.44626 198.20512Q394.8525 198.58012 395.38376 198.58012Q395.9775 198.58012 396.39938 198.09575Q396.82126 197.61137 396.82126 196.627Q396.82126 195.70512 396.39938 195.252Q395.99313 194.78325 395.32126 194.78325Q394.49313 194.78325 393.83688 195.51762L392.29 195.28325L393.27438 190.0645L398.3525 190.0645L398.3525 191.86137L394.7275 191.86137L394.43063 193.5645Q395.07126 193.252 395.74313 193.252Q397.00876 193.252 397.89938 194.1895Q398.79 195.11137 398.79 196.59575Q398.79 197.83012 398.07126 198.79887Q397.1025 200.127 395.36813 200.127Q393.9775 200.127 393.1025 199.39262Q392.2275 198.64262 392.05563 197.377ZM404.94626 199.95512L403.02438 199.95512L403.02438 192.72075Q401.96188 193.70512 400.54 194.17387L400.54 192.42387Q401.29 192.1895 402.165 191.502Q403.05563 190.8145 403.38376 189.89262L404.94626 189.89262L404.94626 199.95512ZM408.43063 199.95512L408.43063 198.03325L410.3525 198.03325L410.3525 199.95512L408.43063 199.95512ZM415.27438 189.89262Q416.7275 189.89262 417.55563 190.92387Q418.52438 192.15825 418.52438 195.01762Q418.52438 197.86137 417.54 199.09575Q416.7275 200.127 415.27438 200.127Q413.80563 200.127 412.915 199.002Q412.02438 197.877 412.02438 194.98637Q412.02438 192.15825 413.00876 190.92387Q413.82126 189.89262 415.27438 189.89262ZM415.27438 191.48637Q414.93063 191.48637 414.64938 191.70512Q414.38376 191.92387 414.2275 192.502Q414.02438 193.252 414.02438 195.01762Q414.02438 196.78325 414.19626 197.4395Q414.38376 198.09575 414.64938 198.3145Q414.93063 198.53325 415.27438 198.53325Q415.61813 198.53325 415.88376 198.3145Q416.165 198.09575 416.32126 197.51762Q416.52438 196.78325 416.52438 195.01762Q416.52438 193.252 416.33688 192.59575Q416.165 191.92387 415.88376 191.70512Q415.61813 191.48637 415.27438 191.48637ZM420.04 192.40825Q420.04 191.0645 420.63376 190.42387Q421.2275 189.76762 422.2275 189.76762Q423.27438 189.76762 423.86813 190.40825Q424.46188 191.04887 424.46188 192.40825Q424.46188 193.752 423.86813 194.40825Q423.27438 195.04887 422.27438 195.04887Q421.2275 195.04887 420.63376 194.40825Q420.04 193.76762 420.04 192.40825ZM421.54 192.39262Q421.54 193.377 421.75876 193.70512Q421.93063 193.95512 422.2275 193.95512Q422.54 193.95512 422.71188 193.70512Q422.93063 193.377 422.93063 192.39262Q422.93063 191.42387 422.71188 191.09575Q422.54 190.83012 422.2275 190.83012Q421.93063 190.83012 421.75876 191.08012Q421.54 191.42387 421.54 192.39262ZM423.69626 200.34575L422.27438 200.34575L427.61813 189.76762L428.99313 189.76762L423.69626 200.34575ZM426.80563 197.70512Q426.80563 196.36137 427.38376 195.72075Q427.9775 195.0645 429.00876 195.0645Q430.04 195.0645 430.63376 195.72075Q431.2275 196.36137 431.2275 197.70512Q431.2275 199.0645 430.63376 199.72075Q430.04 200.36137 429.02438 200.36137Q427.9775 200.36137 427.38376 199.72075Q426.80563 199.0645 426.80563 197.70512ZM428.29 197.70512Q428.29 198.67387 428.52438 199.002Q428.69626 199.252 428.99313 199.252Q429.30563 199.252 429.46188 199.01762Q429.69626 198.67387 429.69626 197.70512Q429.69626 196.72075 429.4775 196.39262Q429.30563 196.14262 428.99313 196.14262Q428.68063 196.14262 428.52438 196.39262Q428.29 196.72075 428.29 197.70512Z" fill-rule="nonzero"/><path fill="#ffffff" d="M174.92873 195.09654L174.92873 193.08092L170.83498 193.08092L170.83498 191.39342L175.17873 185.03404L176.7881 185.03404L176.7881 191.39342L178.0381 191.39342L178.0381 193.08092L176.7881 193.08092L176.7881 195.09654L174.92873 195.09654ZM174.92873 191.39342L174.92873 187.97154L172.63185 191.39342L174.92873 191.39342ZM179.20998 192.78404L181.06935 192.58092Q181.13185 193.14342 181.4131 193.42467Q181.70998 193.69029 182.17873 193.69029Q182.77248 193.69029 183.17873 193.14342Q183.6006 192.59654 183.7256 190.87779Q183.00685 191.70592 181.9131 191.70592Q180.7256 191.70592 179.86623 190.79967Q179.00685 189.89342 179.00685 188.42467Q179.00685 186.89342 179.9131 185.97154Q180.81935 185.03404 182.2256 185.03404Q183.75685 185.03404 184.7256 186.22154Q185.70998 187.39342 185.70998 190.09654Q185.70998 192.84654 184.67873 194.06529Q183.6631 195.26842 182.0381 195.26842Q180.86623 195.26842 180.13185 194.64342Q179.4131 194.01842 179.20998 192.78404ZM183.55373 188.58092Q183.55373 187.65904 183.11623 187.14342Q182.69435 186.62779 182.13185 186.62779Q181.6006 186.62779 181.24123 187.04967Q180.89748 187.47154 180.89748 188.42467Q180.89748 189.39342 181.27248 189.84654Q181.6631 190.29967 182.24123 190.29967Q182.7881 190.29967 183.1631 189.86217Q183.55373 189.42467 183.55373 188.58092ZM187.56935 195.09654L187.56935 193.17467L189.49123 193.17467L189.49123 195.09654L187.56935 195.09654ZM194.4131 185.03404Q195.86623 185.03404 196.69435 186.06529Q197.6631 187.29967 197.6631 190.15904Q197.6631 193.00279 196.67873 194.23717Q195.86623 195.26842 194.4131 195.26842Q192.94435 195.26842 192.05373 194.14342Q191.1631 193.01842 191.1631 190.12779Q191.1631 187.29967 192.14748 186.06529Q192.95998 185.03404 194.4131 185.03404ZM194.4131 186.62779Q194.06935 186.62779 193.7881 186.84654Q193.52248 187.06529 193.36623 187.64342Q193.1631 188.39342 193.1631 190.15904Q193.1631 191.92467 193.33498 192.58092Q193.52248 193.23717 193.7881 193.45592Q194.06935 193.67467 194.4131 193.67467Q194.75685 193.67467 195.02248 193.45592Q195.30373 193.23717 195.45998 192.65904Q195.6631 191.92467 195.6631 190.15904Q195.6631 188.39342 195.4756 187.73717Q195.30373 187.06529 195.02248 186.84654Q194.75685 186.62779 194.4131 186.62779ZM199.17873 187.54967Q199.17873 186.20592 199.77248 185.56529Q200.36623 184.90904 201.36623 184.90904Q202.4131 184.90904 203.00685 185.54967Q203.6006 186.19029 203.6006 187.54967Q203.6006 188.89342 203.00685 189.54967Q202.4131 190.19029 201.4131 190.19029Q200.36623 190.19029 199.77248 189.54967Q199.17873 188.90904 199.17873 187.54967ZM200.67873 187.53404Q200.67873 188.51842 200.89748 188.84654Q201.06935 189.09654 201.36623 189.09654Q201.67873 189.09654 201.8506 188.84654Q202.06935 188.51842 202.06935 187.53404Q202.06935 186.56529 201.8506 186.23717Q201.67873 185.97154 201.36623 185.97154Q201.06935 185.97154 200.89748 186.22154Q200.67873 186.56529 200.67873 187.53404ZM202.83498 195.48717L201.4131 195.48717L206.75685 184.90904L208.13185 184.90904L202.83498 195.48717ZM205.94435 192.84654Q205.94435 191.50279 206.52248 190.86217Q207.11623 190.20592 208.14748 190.20592Q209.17873 190.20592 209.77248 190.86217Q210.36623 191.50279 210.36623 192.84654Q210.36623 194.20592 209.77248 194.86217Q209.17873 195.50279 208.1631 195.50279Q207.11623 195.50279 206.52248 194.86217Q205.94435 194.20592 205.94435 192.84654ZM207.42873 192.84654Q207.42873 193.81529 207.6631 194.14342Q207.83498 194.39342 208.13185 194.39342Q208.44435 194.39342 208.6006 194.15904Q208.83498 193.81529 208.83498 192.84654Q208.83498 191.86217 208.61623 191.53404Q208.44435 191.28404 208.13185 191.28404Q207.81935 191.28404 207.6631 191.53404Q207.42873 191.86217 207.42873 192.84654Z" fill-rule="nonzero"/><path fill="#1a1a1a" d="M19.471874 184.91837L19.471874 176.32462L20.628124 176.32462L25.14375 183.07462L25.14375 176.32462L26.2375 176.32462L26.2375 184.91837L25.065624 184.91837L20.55 178.16837L20.55 184.91837L19.471874 184.91837ZM27.95625 181.80899Q27.95625 180.07462 28.909374 179.24649Q29.70625 178.55899 30.8625 178.55899Q32.14375 178.55899 32.95625 179.40274Q33.784374 180.23087 33.784374 181.71524Q33.784374 182.91837 33.425 183.60587Q33.065624 184.29337 32.3625 184.68399Q31.675 185.05899 30.8625 185.05899Q29.565624 185.05899 28.753124 184.23087Q27.95625 183.38712 27.95625 181.80899ZM29.034374 181.80899Q29.034374 182.99649 29.55 183.59024Q30.08125 184.18399 30.8625 184.18399Q31.659374 184.18399 32.175 183.59024Q32.690624 182.99649 32.690624 181.77774Q32.690624 180.62149 32.159374 180.02774Q31.64375 179.43399 30.8625 179.43399Q30.08125 179.43399 29.55 180.02774Q29.034374 180.60587 29.034374 181.80899Z" fill-rule="nonzero"/><path fill="#9e9e9e" d="M22.425 201.91837L22.425 199.85587L18.70625 199.85587L18.70625 198.88712L22.628124 193.32462L23.4875 193.32462L23.4875 198.88712L24.64375 198.88712L24.64375 199.85587L23.4875 199.85587L23.4875 201.91837L22.425 201.91837ZM22.425 198.88712L22.425 195.02774L19.7375 198.88712L22.425 198.88712ZM26.20625 199.93399L27.221874 199.84024Q27.346874 200.55899 27.70625 200.88712Q28.08125 201.19962 28.64375 201.19962Q29.128124 201.19962 29.4875 200.98087Q29.8625 200.74649 30.096874 200.38712Q30.33125 200.01212 30.4875 199.38712Q30.64375 198.74649 30.64375 198.09024Q30.64375 198.01212 30.64375 197.87149Q30.33125 198.37149 29.784374 198.69962Q29.2375 199.01212 28.596874 199.01212Q27.51875 199.01212 26.784374 198.24649Q26.05 197.46524 26.05 196.19962Q26.05 194.88712 26.815624 194.09024Q27.596874 193.29337 28.753124 193.29337Q29.58125 193.29337 30.26875 193.74649Q30.971874 194.19962 31.33125 195.04337Q31.690624 195.87149 31.690624 197.44962Q31.690624 199.09024 31.33125 200.07462Q30.9875 201.04337 30.26875 201.55899Q29.565624 202.05899 28.628124 202.05899Q27.6125 202.05899 26.971874 201.51212Q26.33125 200.94962 26.20625 199.93399ZM30.51875 196.13712Q30.51875 195.23087 30.034374 194.69962Q29.565624 194.16837 28.878124 194.16837Q28.175 194.16837 27.64375 194.74649Q27.128124 195.30899 27.128124 196.23087Q27.128124 197.04337 27.628124 197.55899Q28.128124 198.07462 28.846874 198.07462Q29.58125 198.07462 30.05 197.55899Q30.51875 197.04337 30.51875 196.13712ZM33.64375 201.91837L33.64375 200.71524L34.846874 200.71524L34.846874 201.91837L33.64375 201.91837ZM36.05 197.68399Q36.05 196.15274 36.3625 195.23087Q36.675 194.29337 37.284374 193.79337Q37.909374 193.29337 38.846874 193.29337Q39.534374 193.29337 40.05 193.57462Q40.58125 193.85587 40.925 194.38712Q41.26875 194.90274 41.45625 195.65274Q41.64375 196.40274 41.64375 197.68399Q41.64375 199.19962 41.33125 200.12149Q41.034374 201.04337 40.409374 201.55899Q39.8 202.05899 38.846874 202.05899Q37.6125 202.05899 36.89375 201.16837Q36.05 200.10587 36.05 197.68399ZM37.128124 197.68399Q37.128124 199.79337 37.628124 200.49649Q38.128124 201.19962 38.846874 201.19962Q39.58125 201.19962 40.065624 200.49649Q40.565624 199.79337 40.565624 197.68399Q40.565624 195.55899 40.065624 194.87149Q39.58125 194.16837 38.83125 194.16837Q38.1125 194.16837 37.675 194.77774Q37.128124 195.55899 37.128124 197.68399ZM43.253124 195.38712Q43.253124 194.46524 43.70625 193.82462Q44.175 193.18399 45.05 193.18399Q45.8625 193.18399 46.39375 193.76212Q46.925 194.34024 46.925 195.44962Q46.925 196.54337 46.378124 197.13712Q45.846874 197.71524 45.065624 197.71524Q44.284374 197.71524 43.76875 197.13712Q43.253124 196.55899 43.253124 195.38712ZM45.08125 193.90274Q44.690624 193.90274 44.425 194.24649Q44.175 194.59024 44.175 195.49649Q44.175 196.32462 44.425 196.66837Q44.690624 196.99649 45.08125 196.99649Q45.4875 196.99649 45.7375 196.65274Q46.003124 196.30899 46.003124 195.41837Q46.003124 194.57462 45.7375 194.24649Q45.471874 193.90274 45.08125 193.90274ZM45.08125 202.23087L49.784374 193.18399L50.64375 193.18399L45.95625 202.23087L45.08125 202.23087ZM48.8 199.90274Q48.8 198.98087 49.253124 198.34024Q49.721874 197.69962 50.6125 197.69962Q51.425 197.69962 51.95625 198.27774Q52.4875 198.84024 52.4875 199.96524Q52.4875 201.05899 51.940624 201.65274Q51.409374 202.23087 50.6125 202.23087Q49.846874 202.23087 49.315624 201.65274Q48.8 201.07462 48.8 199.90274ZM50.64375 198.41837Q50.2375 198.41837 49.971874 198.76212Q49.721874 199.10587 49.721874 200.01212Q49.721874 200.82462 49.9875 201.16837Q50.253124 201.51212 50.64375 201.51212Q51.034374 201.51212 51.3 201.16837Q51.565624 200.82462 51.565624 199.91837Q51.565624 199.09024 51.3 198.76212Q51.034374 198.41837 50.64375 198.41837Z" fill-rule="nonzero"/><path stroke="#757575" stroke-width="1.0" stroke-linecap="butt" d="M18.55 189.41837L145.23334 189.41837L158.74141 189.41837" fill-rule="nonzero"/><path fill="#9e9e9e" d="M160.74141 189.41837C160.74141 188.3138 159.84598 187.41837 158.74141 187.41837C157.63684 187.41837 156.74141 188.3138 156.74141 189.41837C156.74141 190.52295 157.63684 191.41837 158.74141 191.41837C159.84598 191.41837 160.74141 190.52295 160.74141 189.41837" fill-rule="nonzero"/><path fill="#1a1a1a" d="M563.79376 191.1333L563.79376 187.49268L560.48126 182.53955L561.8719 182.53955L563.5594 185.1333Q564.02814 185.85205 564.4344 186.58643Q564.825 185.91455 565.3719 185.0708L567.04376 182.53955L568.35626 182.53955L564.9344 187.49268L564.9344 191.1333L563.79376 191.1333ZM572.4969 189.1333L573.59064 189.2583Q573.34064 190.21143 572.6375 190.74268Q571.9344 191.27393 570.85626 191.27393Q569.4969 191.27393 568.6844 190.43018Q567.8875 189.58643 567.8875 188.0708Q567.8875 186.5083 568.7 185.64893Q569.5125 184.77393 570.79376 184.77393Q572.04376 184.77393 572.825 185.61768Q573.6219 186.46143 573.6219 188.0083Q573.6219 188.10205 573.6219 188.28955L568.98126 188.28955Q569.04376 189.3208 569.5594 189.86768Q570.075 190.39893 570.85626 190.39893Q571.4344 190.39893 571.84064 190.10205Q572.2625 189.78955 572.4969 189.1333ZM569.04376 187.43018L572.5125 187.43018Q572.45 186.6333 572.1219 186.24268Q571.60626 185.6333 570.8094 185.6333Q570.075 185.6333 569.575 186.11768Q569.09064 186.60205 569.04376 187.43018ZM574.825 189.27393L575.85626 189.11768Q575.95 189.74268 576.34064 190.0708Q576.7469 190.39893 577.48126 190.39893Q578.2 190.39893 578.54376 190.11768Q578.90314 189.8208 578.90314 189.41455Q578.90314 189.05518 578.59064 188.85205Q578.3719 188.71143 577.5125 188.49268Q576.35626 188.1958 575.90314 187.99268Q575.46564 187.77393 575.23126 187.39893Q574.9969 187.02393 574.9969 186.55518Q574.9969 186.14893 575.1844 185.78955Q575.3719 185.43018 575.7 185.1958Q575.95 185.02393 576.3719 184.89893Q576.79376 184.77393 577.29376 184.77393Q578.0125 184.77393 578.5594 184.99268Q579.1219 185.1958 579.3875 185.55518Q579.65314 185.91455 579.7469 186.5083L578.71564 186.64893Q578.65314 186.18018 578.3094 185.91455Q577.98126 185.6333 577.35626 185.6333Q576.6375 185.6333 576.325 185.8833Q576.0125 186.11768 576.0125 186.4458Q576.0125 186.64893 576.1375 186.80518Q576.27814 186.97705 576.54376 187.08643Q576.7 187.14893 577.48126 187.35205Q578.60626 187.66455 579.04376 187.85205Q579.48126 188.03955 579.73126 188.39893Q579.98126 188.7583 579.98126 189.30518Q579.98126 189.83643 579.66876 190.30518Q579.3719 190.7583 578.79376 191.02393Q578.21564 191.27393 577.48126 191.27393Q576.2625 191.27393 575.6219 190.77393Q574.9969 190.2583 574.825 189.27393Z" fill-rule="nonzero"/><path fill="#9e9e9e" d="M546.95 205.8833L548.0594 205.78955Q548.1844 206.60205 548.6219 207.0083Q549.075 207.41455 549.71564 207.41455Q550.46564 207.41455 550.9969 206.83643Q551.52814 206.2583 551.52814 205.3208Q551.52814 204.41455 551.0125 203.89893Q550.5125 203.36768 549.6844 203.36768Q549.1844 203.36768 548.7625 203.60205Q548.35626 203.83643 548.1219 204.1958L547.1375 204.0708L547.96564 199.66455L552.2469 199.66455L552.2469 200.66455L548.8094 200.66455L548.35626 202.97705Q549.1219 202.43018 549.96564 202.43018Q551.09064 202.43018 551.85626 203.21143Q552.6375 203.99268 552.6375 205.22705Q552.6375 206.3833 551.96564 207.24268Q551.1375 208.27393 549.71564 208.27393Q548.54376 208.27393 547.79376 207.61768Q547.0594 206.96143 546.95 205.8833ZM557.91876 208.1333L556.8719 208.1333L556.8719 201.41455Q556.48126 201.77393 555.85626 202.14893Q555.2469 202.5083 554.7625 202.68018L554.7625 201.66455Q555.6375 201.24268 556.29376 200.66455Q556.96564 200.0708 557.2469 199.5083L557.91876 199.5083L557.91876 208.1333ZM561.54376 208.1333L561.54376 206.93018L562.7469 206.93018L562.7469 208.1333L561.54376 208.1333ZM563.95 203.89893Q563.95 202.36768 564.2625 201.4458Q564.575 200.5083 565.1844 200.0083Q565.8094 199.5083 566.7469 199.5083Q567.4344 199.5083 567.95 199.78955Q568.48126 200.0708 568.825 200.60205Q569.16876 201.11768 569.35626 201.86768Q569.54376 202.61768 569.54376 203.89893Q569.54376 205.41455 569.23126 206.33643Q568.9344 207.2583 568.3094 207.77393Q567.7 208.27393 566.7469 208.27393Q565.5125 208.27393 564.79376 207.3833Q563.95 206.3208 563.95 203.89893ZM565.02814 203.89893Q565.02814 206.0083 565.52814 206.71143Q566.02814 207.41455 566.7469 207.41455Q567.48126 207.41455 567.96564 206.71143Q568.46564 206.0083 568.46564 203.89893Q568.46564 201.77393 567.96564 201.08643Q567.48126 200.3833 566.73126 200.3833Q566.0125 200.3833 565.575 200.99268Q565.02814 201.77393 565.02814 203.89893ZM571.15314 201.60205Q571.15314 200.68018 571.60626 200.03955Q572.075 199.39893 572.95 199.39893Q573.7625 199.39893 574.29376 199.97705Q574.825 200.55518 574.825 201.66455Q574.825 202.7583 574.27814 203.35205Q573.7469 203.93018 572.96564 203.93018Q572.1844 203.93018 571.66876 203.35205Q571.15314 202.77393 571.15314 201.60205ZM572.98126 200.11768Q572.59064 200.11768 572.325 200.46143Q572.075 200.80518 572.075 201.71143Q572.075 202.53955 572.325 202.8833Q572.59064 203.21143 572.98126 203.21143Q573.3875 203.21143 573.6375 202.86768Q573.90314 202.52393 573.90314 201.6333Q573.90314 200.78955 573.6375 200.46143Q573.3719 200.11768 572.98126 200.11768ZM572.98126 208.4458L577.6844 199.39893L578.54376 199.39893L573.85626 208.4458L572.98126 208.4458ZM576.7 206.11768Q576.7 205.1958 577.15314 204.55518Q577.6219 203.91455 578.5125 203.91455Q579.325 203.91455 579.85626 204.49268Q580.3875 205.05518 580.3875 206.18018Q580.3875 207.27393 579.84064 207.86768Q579.3094 208.4458 578.5125 208.4458Q577.7469 208.4458 577.21564 207.86768Q576.7 207.28955 576.7 206.11768ZM578.54376 204.6333Q578.1375 204.6333 577.8719 204.97705Q577.6219 205.3208 577.6219 206.22705Q577.6219 207.03955 577.8875 207.3833Q578.15314 207.72705 578.54376 207.72705Q578.9344 207.72705 579.2 207.3833Q579.46564 207.03955 579.46564 206.1333Q579.46564 205.30518 579.2 204.97705Q578.9344 204.6333 578.54376 204.6333Z" fill-rule="nonzero"/><path stroke="#757575" stroke-width="1.0" stroke-linecap="butt" d="M581.45 195.6333L454.76666 195.6333L441.2586 195.6333" fill-rule="nonzero"/><path fill="#9e9e9e" d="M443.2586 195.6333C443.2586 194.52873 442.36316 193.6333 441.2586 193.6333C440.15402 193.6333 439.2586 194.52873 439.2586 195.6333C439.2586 196.73787 440.15402 197.6333 441.2586 197.6333C442.36316 197.6333 443.2586 196.73787 443.2586 195.6333" fill-rule="nonzero"/><path fill="#757575" d="M20.096874 37.55L20.096874 23.2375L25.01875 23.2375Q26.690624 23.2375 27.58125 23.440624Q28.8 23.721874 29.675 24.45625Q30.8 25.425 31.3625 26.909374Q31.925 28.39375 31.925 30.315624Q31.925 31.940624 31.55 33.20625Q31.175 34.45625 30.565624 35.284374Q29.971874 36.1125 29.26875 36.596874Q28.565624 37.065624 27.565624 37.315624Q26.565624 37.55 25.253124 37.55L20.096874 37.55ZM21.9875 35.8625L25.05 35.8625Q26.45625 35.8625 27.253124 35.596874Q28.065624 35.33125 28.55 34.846874Q29.221874 34.175 29.596874 33.05Q29.971874 31.909374 29.971874 30.284374Q29.971874 28.034374 29.2375 26.83125Q28.503124 25.628124 27.440624 25.221874Q26.690624 24.925 25.003124 24.925L21.9875 24.925L21.9875 35.8625ZM33.221874 32.3625Q33.221874 29.4875 34.815624 28.096874Q36.159374 26.940624 38.08125 26.940624Q40.221874 26.940624 41.565624 28.346874Q42.925 29.753124 42.925 32.221874Q42.925 34.221874 42.33125 35.378124Q41.7375 36.51875 40.58125 37.159374Q39.440624 37.784374 38.08125 37.784374Q35.89375 37.784374 34.55 36.39375Q33.221874 34.9875 33.221874 32.3625ZM35.01875 32.3625Q35.01875 34.3625 35.878124 35.346874Q36.753124 36.33125 38.08125 36.33125Q39.39375 36.33125 40.253124 35.346874Q41.128124 34.346874 41.128124 32.3Q41.128124 30.378124 40.253124 29.39375Q39.378124 28.39375 38.08125 28.39375Q36.753124 28.39375 35.878124 29.39375Q35.01875 30.378124 35.01875 32.3625ZM51.971874 34.20625L53.784374 34.440624Q53.3625 36.01875 52.190624 36.909374Q51.034374 37.784374 49.221874 37.784374Q46.95625 37.784374 45.6125 36.39375Q44.284374 34.9875 44.284374 32.45625Q44.284374 29.83125 45.628124 28.39375Q46.971874 26.940624 49.128124 26.940624Q51.20625 26.940624 52.51875 28.3625Q53.846874 29.76875 53.846874 32.346874Q53.846874 32.503124 53.83125 32.815624L46.096874 32.815624Q46.190624 34.51875 47.065624 35.425Q47.940624 36.33125 49.2375 36.33125Q50.20625 36.33125 50.878124 35.83125Q51.565624 35.315624 51.971874 34.20625ZM46.190624 31.3625L51.9875 31.3625Q51.878124 30.065624 51.33125 29.409374Q50.4875 28.39375 49.14375 28.39375Q47.940624 28.39375 47.1125 29.20625Q46.284374 30.003124 46.190624 31.3625ZM55.159374 34.45625L56.909374 34.175Q57.05 35.221874 57.721874 35.784374Q58.39375 36.33125 59.596874 36.33125Q60.8 36.33125 61.378124 35.846874Q61.971874 35.346874 61.971874 34.690624Q61.971874 34.096874 61.45625 33.753124Q61.096874 33.51875 59.659374 33.159374Q57.721874 32.659374 56.971874 32.315624Q56.2375 31.95625 55.846874 31.33125Q55.45625 30.690624 55.45625 29.925Q55.45625 29.2375 55.76875 28.64375Q56.096874 28.05 56.64375 27.659374Q57.05 27.3625 57.753124 27.159374Q58.471874 26.940624 59.284374 26.940624Q60.503124 26.940624 61.425 27.3Q62.346874 27.64375 62.784374 28.253124Q63.221874 28.846874 63.39375 29.846874L61.675 30.08125Q61.55 29.284374 60.9875 28.846874Q60.425 28.39375 59.409374 28.39375Q58.190624 28.39375 57.675 28.8Q57.159374 29.190624 57.159374 29.721874Q57.159374 30.065624 57.378124 30.346874Q57.58125 30.628124 58.05 30.815624Q58.315624 30.909374 59.596874 31.253124Q61.471874 31.753124 62.20625 32.08125Q62.940624 32.39375 63.3625 33.003124Q63.784374 33.596874 63.784374 34.503124Q63.784374 35.378124 63.26875 36.159374Q62.753124 36.940624 61.784374 37.3625Q60.815624 37.784374 59.596874 37.784374Q57.58125 37.784374 56.51875 36.940624Q55.45625 36.096874 55.159374 34.45625ZM75.70625 35.971874L75.95625 37.534374Q75.22188 37.690624 74.62813 37.690624Q73.675 37.690624 73.14375 37.39375Q72.62813 37.08125 72.40938 36.596874Q72.19063 36.096874 72.19063 34.51875L72.19063 28.55L70.90938 28.55L70.90938 27.175L72.19063 27.175L72.19063 24.6125L73.94063 23.55L73.94063 27.175L75.70625 27.175L75.70625 28.55L73.94063 28.55L73.94063 34.6125Q73.94063 35.3625 74.03438 35.58125Q74.12813 35.784374 74.33125 35.925Q74.55 36.05 74.94063 36.05Q75.22188 36.05 75.70625 35.971874ZM77.8625 37.55L77.8625 23.2375L79.62813 23.2375L79.62813 28.3625Q80.8625 26.940624 82.7375 26.940624Q83.87813 26.940624 84.72188 27.39375Q85.58125 27.846874 85.94063 28.659374Q86.31563 29.45625 86.31563 30.971874L86.31563 37.55L84.56563 37.55L84.56563 30.971874Q84.56563 29.659374 83.9875 29.065624Q83.40938 28.45625 82.37813 28.45625Q81.59688 28.45625 80.89375 28.8625Q80.20625 29.26875 79.90938 29.971874Q79.62813 30.659374 79.62813 31.878124L79.62813 37.55L77.8625 37.55ZM87.87813 25.253124L87.87813 23.2375L89.64375 23.2375L89.64375 25.253124L87.87813 25.253124ZM87.87813 37.55L87.87813 27.175L89.64375 27.175L89.64375 37.55L87.87813 37.55ZM91.15938 34.45625L92.90938 34.175Q93.05 35.221874 93.72188 35.784374Q94.39375 36.33125 95.59688 36.33125Q96.8 36.33125 97.37813 35.846874Q97.97188 35.346874 97.97188 34.690624Q97.97188 34.096874 97.45625 33.753124Q97.09688 33.51875 95.65938 33.159374Q93.72188 32.659374 92.97188 32.315624Q92.2375 31.95625 91.84688 31.33125Q91.45625 30.690624 91.45625 29.925Q91.45625 29.2375 91.76875 28.64375Q92.09688 28.05 92.64375 27.659374Q93.05 27.3625 93.75313 27.159374Q94.47188 26.940624 95.28438 26.940624Q96.50313 26.940624 97.425 27.3Q98.34688 27.64375 98.78438 28.253124Q99.22188 28.846874 99.39375 29.846874L97.675 30.08125Q97.55 29.284374 96.9875 28.846874Q96.425 28.39375 95.40938 28.39375Q94.19063 28.39375 93.675 28.8Q93.15938 29.190624 93.15938 29.721874Q93.15938 30.065624 93.37813 30.346874Q93.58125 30.628124 94.05 30.815624Q94.31563 30.909374 95.59688 31.253124Q97.47188 31.753124 98.20625 32.08125Q98.94063 32.39375 99.3625 33.003124Q99.78438 33.596874 99.78438 34.503124Q99.78438 35.378124 99.26875 36.159374Q98.75313 36.940624 97.78438 37.3625Q96.81563 37.784374 95.59688 37.784374Q93.58125 37.784374 92.51875 36.940624Q91.45625 36.096874 91.15938 34.45625ZM109.78438 37.55L106.6125 27.175L108.425 27.175L110.08125 33.159374L110.69063 35.39375Q110.7375 35.221874 111.22188 33.253124L112.87813 27.175L114.69063 27.175L116.2375 33.190624L116.75313 35.175L117.34688 33.175L119.12813 27.175L120.83125 27.175L117.59688 37.55L115.76875 37.55L114.1125 31.33125L113.72188 29.565624L111.6125 37.55L109.78438 37.55ZM129.97188 34.20625L131.78438 34.440624Q131.3625 36.01875 130.19063 36.909374Q129.03438 37.784374 127.22188 37.784374Q124.95625 37.784374 123.6125 36.39375Q122.28438 34.9875 122.28438 32.45625Q122.28438 29.83125 123.62813 28.39375Q124.97188 26.940624 127.12813 26.940624Q129.20625 26.940624 130.51875 28.3625Q131.84688 29.76875 131.84688 32.346874Q131.84688 32.503124 131.83125 32.815624L124.09688 32.815624Q124.19063 34.51875 125.06563 35.425Q125.94063 36.33125 127.2375 36.33125Q128.20625 36.33125 128.87813 35.83125Q129.56563 35.315624 129.97188 34.20625ZM124.19063 31.3625L129.9875 31.3625Q129.87813 30.065624 129.33125 29.409374Q128.4875 28.39375 127.14375 28.39375Q125.94063 28.39375 125.1125 29.20625Q124.28438 30.003124 124.19063 31.3625ZM135.4875 37.55L133.8625 37.55L133.8625 23.2375L135.6125 23.2375L135.6125 28.346874Q136.7375 26.940624 138.45625 26.940624Q139.40938 26.940624 140.26875 27.33125Q141.12813 27.721874 141.675 28.425Q142.22188 29.1125 142.53438 30.096874Q142.84688 31.08125 142.84688 32.20625Q142.84688 34.878124 141.53438 36.33125Q140.22188 37.784374 138.37813 37.784374Q136.53438 37.784374 135.4875 36.253124L135.4875 37.55ZM135.47188 32.284374Q135.47188 34.14375 135.97188 34.9875Q136.81563 36.33125 138.22188 36.33125Q139.37813 36.33125 140.20625 35.33125Q141.05 34.33125 141.05 32.346874Q141.05 30.315624 140.2375 29.3625Q139.44063 28.39375 138.3 28.39375Q137.14375 28.39375 136.3 29.39375Q135.47188 30.39375 135.47188 32.284374ZM144.15938 34.45625L145.90938 34.175Q146.05 35.221874 146.72188 35.784374Q147.39375 36.33125 148.59688 36.33125Q149.8 36.33125 150.37813 35.846874Q150.97188 35.346874 150.97188 34.690624Q150.97188 34.096874 150.45625 33.753124Q150.09688 33.51875 148.65938 33.159374Q146.72188 32.659374 145.97188 32.315624Q145.2375 31.95625 144.84688 31.33125Q144.45625 30.690624 144.45625 29.925Q144.45625 29.2375 144.76875 28.64375Q145.09688 28.05 145.64375 27.659374Q146.05 27.3625 146.75313 27.159374Q147.47188 26.940624 148.28438 26.940624Q149.50313 26.940624 150.425 27.3Q151.34688 27.64375 151.78438 28.253124Q152.22188 28.846874 152.39375 29.846874L150.675 30.08125Q150.55 29.284374 149.9875 28.846874Q149.425 28.39375 148.40938 28.39375Q147.19063 28.39375 146.675 28.8Q146.15938 29.190624 146.15938 29.721874Q146.15938 30.065624 146.37813 30.346874Q146.58125 30.628124 147.05 30.815624Q147.31563 30.909374 148.59688 31.253124Q150.47188 31.753124 151.20625 32.08125Q151.94063 32.39375 152.3625 33.003124Q152.78438 33.596874 152.78438 34.503124Q152.78438 35.378124 152.26875 36.159374Q151.75313 36.940624 150.78438 37.3625Q149.81563 37.784374 148.59688 37.784374Q146.58125 37.784374 145.51875 36.940624Q144.45625 36.096874 144.15938 34.45625ZM154.87813 25.253124L154.87813 23.2375L156.64375 23.2375L156.64375 25.253124L154.87813 25.253124ZM154.87813 37.55L154.87813 27.175L156.64375 27.175L156.64375 37.55L154.87813 37.55ZM162.70625 35.971874L162.95625 37.534374Q162.22188 37.690624 161.62813 37.690624Q160.675 37.690624 160.14375 37.39375Q159.62813 37.08125 159.40938 36.596874Q159.19063 36.096874 159.19063 34.51875L159.19063 28.55L157.90938 28.55L157.90938 27.175L159.19063 27.175L159.19063 24.6125L160.94063 23.55L160.94063 27.175L162.70625 27.175L162.70625 28.55L160.94063 28.55L160.94063 34.6125Q160.94063 35.3625 161.03438 35.58125Q161.12813 35.784374 161.33125 35.925Q161.55 36.05 161.94063 36.05Q162.22188 36.05 162.70625 35.971874ZM171.97188 34.20625L173.78438 34.440624Q173.3625 36.01875 172.19063 36.909374Q171.03438 37.784374 169.22188 37.784374Q166.95625 37.784374 165.6125 36.39375Q164.28438 34.9875 164.28438 32.45625Q164.28438 29.83125 165.62813 28.39375Q166.97188 26.940624 169.12813 26.940624Q171.20625 26.940624 172.51875 28.3625Q173.84688 29.76875 173.84688 32.346874Q173.84688 32.503124 173.83125 32.815624L166.09688 32.815624Q166.19063 34.51875 167.06563 35.425Q167.94063 36.33125 169.2375 36.33125Q170.20625 36.33125 170.87813 35.83125Q171.56563 35.315624 171.97188 34.20625ZM166.19063 31.3625L171.9875 31.3625Q171.87813 30.065624 171.33125 29.409374Q170.4875 28.39375 169.14375 28.39375Q167.94063 28.39375 167.1125 29.20625Q166.28438 30.003124 166.19063 31.3625ZM188.64375 36.26875Q187.65938 37.096874 186.75313 37.440624Q185.84688 37.784374 184.81563 37.784374Q183.1125 37.784374 182.19063 36.95625Q181.26875 36.1125 181.26875 34.815624Q181.26875 34.05 181.6125 33.425Q181.97188 32.8 182.53438 32.425Q183.09688 32.034374 183.8 31.83125Q184.31563 31.70625 185.3625 31.565624Q187.4875 31.315624 188.4875 30.971874Q188.50313 30.6125 188.50313 30.503124Q188.50313 29.440624 188.00313 28.9875Q187.33125 28.39375 186.00313 28.39375Q184.75313 28.39375 184.15938 28.83125Q183.58125 29.26875 183.3 30.378124L181.58125 30.14375Q181.81563 29.034374 182.34688 28.3625Q182.87813 27.675 183.89375 27.315624Q184.90938 26.940624 186.25313 26.940624Q187.58125 26.940624 188.40938 27.253124Q189.2375 27.565624 189.62813 28.05Q190.01875 28.51875 190.175 29.2375Q190.26875 29.690624 190.26875 30.8625L190.26875 33.20625Q190.26875 35.659374 190.37813 36.315624Q190.4875 36.95625 190.83125 37.55L188.9875 37.55Q188.72188 37.003124 188.64375 36.26875ZM188.4875 32.346874Q187.53438 32.7375 185.6125 33.003124Q184.53438 33.159374 184.08125 33.3625Q183.64375 33.55 183.39375 33.925Q183.14375 34.3 183.14375 34.76875Q183.14375 35.471874 183.675 35.940624Q184.20625 36.409374 185.2375 36.409374Q186.25313 36.409374 187.03438 35.971874Q187.83125 35.51875 188.20625 34.753124Q188.4875 34.14375 188.4875 32.9875L188.4875 32.346874ZM192.15938 34.45625L193.90938 34.175Q194.05 35.221874 194.72188 35.784374Q195.39375 36.33125 196.59688 36.33125Q197.8 36.33125 198.37813 35.846874Q198.97188 35.346874 198.97188 34.690624Q198.97188 34.096874 198.45625 33.753124Q198.09688 33.51875 196.65938 33.159374Q194.72188 32.659374 193.97188 32.315624Q193.2375 31.95625 192.84688 31.33125Q192.45625 30.690624 192.45625 29.925Q192.45625 29.2375 192.76875 28.64375Q193.09688 28.05 193.64375 27.659374Q194.05 27.3625 194.75313 27.159374Q195.47188 26.940624 196.28438 26.940624Q197.50313 26.940624 198.425 27.3Q199.34688 27.64375 199.78438 28.253124Q200.22188 28.846874 200.39375 29.846874L198.675 30.08125Q198.55 29.284374 197.9875 28.846874Q197.425 28.39375 196.40938 28.39375Q195.19063 28.39375 194.675 28.8Q194.15938 29.190624 194.15938 29.721874Q194.15938 30.065624 194.37813 30.346874Q194.58125 30.628124 195.05 30.815624Q195.31563 30.909374 196.59688 31.253124Q198.47188 31.753124 199.20625 32.08125Q199.94063 32.39375 200.3625 33.003124Q200.78438 33.596874 200.78438 34.503124Q200.78438 35.378124 200.26875 36.159374Q199.75313 36.940624 198.78438 37.3625Q197.81563 37.784374 196.59688 37.784374Q194.58125 37.784374 193.51875 36.940624Q192.45625 36.096874 192.15938 34.45625ZM202.87813 37.55L202.87813 23.2375L204.64375 23.2375L204.64375 31.39375L208.8 27.175L211.06563 27.175L207.1125 31.01875L211.47188 37.55L209.3 37.55L205.87813 32.253124L204.64375 33.440624L204.64375 37.55L202.87813 37.55ZM219.28438 37.55L219.28438 28.55L217.7375 28.55L217.7375 27.175L219.28438 27.175L219.28438 26.08125Q219.28438 25.034374 219.47188 24.51875Q219.72188 23.83125 220.3625 23.409374Q221.00313 22.9875 222.15938 22.9875Q222.90938 22.9875 223.8 23.159374L223.53438 24.690624Q222.9875 24.596874 222.50313 24.596874Q221.70625 24.596874 221.3625 24.940624Q221.03438 25.284374 221.03438 26.221874L221.03438 27.175L223.06563 27.175L223.06563 28.55L221.03438 28.55L221.03438 37.55L219.28438 37.55ZM224.22188 32.3625Q224.22188 29.4875 225.81563 28.096874Q227.15938 26.940624 229.08125 26.940624Q231.22188 26.940624 232.56563 28.346874Q233.925 29.753124 233.925 32.221874Q233.925 34.221874 233.33125 35.378124Q232.7375 36.51875 231.58125 37.159374Q230.44063 37.784374 229.08125 37.784374Q226.89375 37.784374 225.55 36.39375Q224.22188 34.9875 224.22188 32.3625ZM226.01875 32.3625Q226.01875 34.3625 226.87813 35.346874Q227.75313 36.33125 229.08125 36.33125Q230.39375 36.33125 231.25313 35.346874Q232.12813 34.346874 232.12813 32.3Q232.12813 30.378124 231.25313 29.39375Q230.37813 28.39375 229.08125 28.39375Q227.75313 28.39375 226.87813 29.39375Q226.01875 30.378124 226.01875 32.3625ZM235.84688 37.55L235.84688 27.175L237.425 27.175L237.425 28.753124Q238.03438 27.64375 238.55 27.3Q239.06563 26.940624 239.675 26.940624Q240.56563 26.940624 241.4875 27.503124L240.87813 29.14375Q240.2375 28.753124 239.59688 28.753124Q239.01875 28.753124 238.55 29.1125Q238.09688 29.45625 237.89375 30.065624Q237.6125 31.003124 237.6125 32.1125L237.6125 37.55L235.84688 37.55ZM248.8625 41.51875L248.8625 27.175L250.47188 27.175L250.47188 28.51875Q251.03438 27.7375 251.7375 27.346874Q252.45625 26.940624 253.47188 26.940624Q254.8 26.940624 255.81563 27.628124Q256.83124 28.315624 257.34686 29.565624Q257.8781 30.8 257.8781 32.284374Q257.8781 33.878124 257.3 35.159374Q256.7375 36.425 255.64375 37.1125Q254.55 37.784374 253.34688 37.784374Q252.47188 37.784374 251.76875 37.409374Q251.08125 37.034374 250.62813 36.471874L250.62813 41.51875L248.8625 41.51875ZM250.45625 32.425Q250.45625 34.425 251.26875 35.378124Q252.08125 36.33125 253.2375 36.33125Q254.40938 36.33125 255.2375 35.346874Q256.08124 34.3625 256.08124 32.26875Q256.08124 30.3 255.25313 29.315624Q254.44063 28.315624 253.31563 28.315624Q252.19063 28.315624 251.31563 29.378124Q250.45625 30.425 250.45625 32.425ZM266.97186 34.20625L268.78436 34.440624Q268.3625 36.01875 267.1906 36.909374Q266.03436 37.784374 264.22186 37.784374Q261.95624 37.784374 260.6125 36.39375Q259.28436 34.9875 259.28436 32.45625Q259.28436 29.83125 260.6281 28.39375Q261.97186 26.940624 264.1281 26.940624Q266.20624 26.940624 267.51874 28.3625Q268.84686 29.76875 268.84686 32.346874Q268.84686 32.503124 268.83124 32.815624L261.09686 32.815624Q261.1906 34.51875 262.0656 35.425Q262.9406 36.33125 264.2375 36.33125Q265.20624 36.33125 265.8781 35.83125Q266.5656 35.315624 266.97186 34.20625ZM261.1906 31.3625L266.9875 31.3625Q266.8781 30.065624 266.33124 29.409374Q265.4875 28.39375 264.14374 28.39375Q262.9406 28.39375 262.1125 29.20625Q261.28436 30.003124 261.1906 31.3625ZM270.84686 37.55L270.84686 27.175L272.425 27.175L272.425 28.753124Q273.03436 27.64375 273.55 27.3Q274.0656 26.940624 274.675 26.940624Q275.5656 26.940624 276.4875 27.503124L275.8781 29.14375Q275.2375 28.753124 274.59686 28.753124Q274.01874 28.753124 273.55 29.1125Q273.09686 29.45625 272.89374 30.065624Q272.6125 31.003124 272.6125 32.1125L272.6125 37.55L270.84686 37.55ZM277.8625 37.55L277.8625 27.175L279.4406 27.175L279.4406 28.628124Q279.925 27.878124 280.7375 27.409374Q281.55 26.940624 282.58124 26.940624Q283.7375 26.940624 284.47186 27.425Q285.20624 27.89375 285.51874 28.753124Q286.7531 26.940624 288.72186 26.940624Q290.26874 26.940624 291.09686 27.8Q291.925 28.659374 291.925 30.425L291.925 37.55L290.175 37.55L290.175 31.01875Q290.175 29.95625 290.0031 29.503124Q289.83124 29.034374 289.3781 28.753124Q288.9406 28.471874 288.33124 28.471874Q287.2375 28.471874 286.5031 29.20625Q285.78436 29.925 285.78436 31.51875L285.78436 37.55L284.03436 37.55L284.03436 30.815624Q284.03436 29.64375 283.59686 29.065624Q283.175 28.471874 282.1906 28.471874Q281.45624 28.471874 280.8156 28.8625Q280.1906 29.253124 279.90936 30.003124Q279.6281 30.753124 279.6281 32.175L279.6281 37.55L277.8625 37.55ZM293.8781 25.253124L293.8781 23.2375L295.64374 23.2375L295.64374 25.253124L293.8781 25.253124ZM293.8781 37.55L293.8781 27.175L295.64374 27.175L295.64374 37.55L293.8781 37.55ZM297.15936 34.45625L298.90936 34.175Q299.05 35.221874 299.72186 35.784374Q300.39374 36.33125 301.59686 36.33125Q302.8 36.33125 303.3781 35.846874Q303.97186 35.346874 303.97186 34.690624Q303.97186 34.096874 303.45624 33.753124Q303.09686 33.51875 301.65936 33.159374Q299.72186 32.659374 298.97186 32.315624Q298.2375 31.95625 297.84686 31.33125Q297.45624 30.690624 297.45624 29.925Q297.45624 29.2375 297.76874 28.64375Q298.09686 28.05 298.64374 27.659374Q299.05 27.3625 299.7531 27.159374Q300.47186 26.940624 301.28436 26.940624Q302.5031 26.940624 303.425 27.3Q304.34686 27.64375 304.78436 28.253124Q305.22186 28.846874 305.39374 29.846874L303.675 30.08125Q303.55 29.284374 302.9875 28.846874Q302.425 28.39375 301.40936 28.39375Q300.1906 28.39375 299.675 28.8Q299.15936 29.190624 299.15936 29.721874Q299.15936 30.065624 299.3781 30.346874Q299.58124 30.628124 300.05 30.815624Q300.3156 30.909374 301.59686 31.253124Q303.47186 31.753124 304.20624 32.08125Q304.9406 32.39375 305.3625 33.003124Q305.78436 33.596874 305.78436 34.503124Q305.78436 35.378124 305.26874 36.159374Q304.7531 36.940624 303.78436 37.3625Q302.8156 37.784374 301.59686 37.784374Q299.58124 37.784374 298.51874 36.940624Q297.45624 36.096874 297.15936 34.45625ZM307.15936 34.45625L308.90936 34.175Q309.05 35.221874 309.72186 35.784374Q310.39374 36.33125 311.59686 36.33125Q312.8 36.33125 313.3781 35.846874Q313.97186 35.346874 313.97186 34.690624Q313.97186 34.096874 313.45624 33.753124Q313.09686 33.51875 311.65936 33.159374Q309.72186 32.659374 308.97186 32.315624Q308.2375 31.95625 307.84686 31.33125Q307.45624 30.690624 307.45624 29.925Q307.45624 29.2375 307.76874 28.64375Q308.09686 28.05 308.64374 27.659374Q309.05 27.3625 309.7531 27.159374Q310.47186 26.940624 311.28436 26.940624Q312.5031 26.940624 313.425 27.3Q314.34686 27.64375 314.78436 28.253124Q315.22186 28.846874 315.39374 29.846874L313.675 30.08125Q313.55 29.284374 312.9875 28.846874Q312.425 28.39375 311.40936 28.39375Q310.1906 28.39375 309.675 28.8Q309.15936 29.190624 309.15936 29.721874Q309.15936 30.065624 309.3781 30.346874Q309.58124 30.628124 310.05 30.815624Q310.3156 30.909374 311.59686 31.253124Q313.47186 31.753124 314.20624 32.08125Q314.9406 32.39375 315.3625 33.003124Q315.78436 33.596874 315.78436 34.503124Q315.78436 35.378124 315.26874 36.159374Q314.7531 36.940624 313.78436 37.3625Q312.8156 37.784374 311.59686 37.784374Q309.58124 37.784374 308.51874 36.940624Q307.45624 36.096874 307.15936 34.45625ZM317.8781 25.253124L317.8781 23.2375L319.64374 23.2375L319.64374 25.253124L317.8781 25.253124ZM317.8781 37.55L317.8781 27.175L319.64374 27.175L319.64374 37.55L317.8781 37.55ZM321.22186 32.3625Q321.22186 29.4875 322.8156 28.096874Q324.15936 26.940624 326.08124 26.940624Q328.22186 26.940624 329.5656 28.346874Q330.925 29.753124 330.925 32.221874Q330.925 34.221874 330.33124 35.378124Q329.7375 36.51875 328.58124 37.159374Q327.4406 37.784374 326.08124 37.784374Q323.89374 37.784374 322.55 36.39375Q321.22186 34.9875 321.22186 32.3625ZM323.01874 32.3625Q323.01874 34.3625 323.8781 35.346874Q324.7531 36.33125 326.08124 36.33125Q327.39374 36.33125 328.2531 35.346874Q329.1281 34.346874 329.1281 32.3Q329.1281 30.378124 328.2531 29.39375Q327.3781 28.39375 326.08124 28.39375Q324.7531 28.39375 323.8781 29.39375Q323.01874 30.378124 323.01874 32.3625ZM332.8625 37.55L332.8625 27.175L334.45624 27.175L334.45624 28.659374Q335.59686 26.940624 337.7531 26.940624Q338.6906 26.940624 339.47186 27.284374Q340.26874 27.6125 340.65936 28.159374Q341.05 28.70625 341.20624 29.45625Q341.3 29.95625 341.3 31.175L341.3 37.55L339.53436 37.55L339.53436 31.2375Q339.53436 30.159374 339.33124 29.628124Q339.1281 29.096874 338.59686 28.784374Q338.08124 28.471874 337.3781 28.471874Q336.2531 28.471874 335.4406 29.190624Q334.6281 29.89375 334.6281 31.878124L334.6281 37.55L332.8625 37.55ZM352.70624 35.971874L352.95624 37.534374Q352.22186 37.690624 351.6281 37.690624Q350.675 37.690624 350.14374 37.39375Q349.6281 37.08125 349.40936 36.596874Q349.1906 36.096874 349.1906 34.51875L349.1906 28.55L347.90936 28.55L347.90936 27.175L349.1906 27.175L349.1906 24.6125L350.9406 23.55L350.9406 27.175L352.70624 27.175L352.70624 28.55L350.9406 28.55L350.9406 34.6125Q350.9406 35.3625 351.03436 35.58125Q351.1281 35.784374 351.33124 35.925Q351.55 36.05 351.9406 36.05Q352.22186 36.05 352.70624 35.971874ZM354.22186 32.3625Q354.22186 29.4875 355.8156 28.096874Q357.15936 26.940624 359.08124 26.940624Q361.22186 26.940624 362.5656 28.346874Q363.925 29.753124 363.925 32.221874Q363.925 34.221874 363.33124 35.378124Q362.7375 36.51875 361.58124 37.159374Q360.4406 37.784374 359.08124 37.784374Q356.89374 37.784374 355.55 36.39375Q354.22186 34.9875 354.22186 32.3625ZM356.01874 32.3625Q356.01874 34.3625 356.8781 35.346874Q357.7531 36.33125 359.08124 36.33125Q360.39374 36.33125 361.2531 35.346874Q362.1281 34.346874 362.1281 32.3Q362.1281 30.378124 361.2531 29.39375Q360.3781 28.39375 359.08124 28.39375Q357.7531 28.39375 356.8781 29.39375Q356.01874 30.378124 356.01874 32.3625ZM378.64374 33.753124L380.3625 33.971874Q380.08124 35.76875 378.90936 36.784374Q377.7531 37.784374 376.05 37.784374Q373.925 37.784374 372.6281 36.39375Q371.33124 35.003124 371.33124 32.409374Q371.33124 30.721874 371.8781 29.471874Q372.4406 28.20625 373.58124 27.58125Q374.72186 26.940624 376.0656 26.940624Q377.7531 26.940624 378.8156 27.8Q379.89374 28.659374 380.20624 30.221874L378.4875 30.4875Q378.2531 29.440624 377.6281 28.925Q377.0031 28.39375 376.1281 28.39375Q374.8 28.39375 373.97186 29.346874Q373.14374 30.3 373.14374 32.346874Q373.14374 34.440624 373.9406 35.39375Q374.7375 36.33125 376.03436 36.33125Q377.0656 36.33125 377.7531 35.70625Q378.45624 35.065624 378.64374 33.753124ZM381.22186 32.3625Q381.22186 29.4875 382.8156 28.096874Q384.15936 26.940624 386.08124 26.940624Q388.22186 26.940624 389.5656 28.346874Q390.925 29.753124 390.925 32.221874Q390.925 34.221874 390.33124 35.378124Q389.7375 36.51875 388.58124 37.159374Q387.4406 37.784374 386.08124 37.784374Q383.89374 37.784374 382.55 36.39375Q381.22186 34.9875 381.22186 32.3625ZM383.01874 32.3625Q383.01874 34.3625 383.8781 35.346874Q384.7531 36.33125 386.08124 36.33125Q387.39374 36.33125 388.2531 35.346874Q389.1281 34.346874 389.1281 32.3Q389.1281 30.378124 388.2531 29.39375Q387.3781 28.39375 386.08124 28.39375Q384.7531 28.39375 383.8781 29.39375Q383.01874 30.378124 383.01874 32.3625ZM392.83124 37.55L392.83124 23.2375L394.58124 23.2375L394.58124 37.55L392.83124 37.55ZM396.83124 37.55L396.83124 23.2375L398.58124 23.2375L398.58124 37.55L396.83124 37.55ZM407.97186 34.20625L409.78436 34.440624Q409.3625 36.01875 408.1906 36.909374Q407.03436 37.784374 405.22186 37.784374Q402.95624 37.784374 401.6125 36.39375Q400.28436 34.9875 400.28436 32.45625Q400.28436 29.83125 401.6281 28.39375Q402.97186 26.940624 405.1281 26.940624Q407.20624 26.940624 408.51874 28.3625Q409.84686 29.76875 409.84686 32.346874Q409.84686 32.503124 409.83124 32.815624L402.09686 32.815624Q402.1906 34.51875 403.0656 35.425Q403.9406 36.33125 405.2375 36.33125Q406.20624 36.33125 406.8781 35.83125Q407.5656 35.315624 407.97186 34.20625ZM402.1906 31.3625L407.9875 31.3625Q407.8781 30.065624 407.33124 29.409374Q406.4875 28.39375 405.14374 28.39375Q403.9406 28.39375 403.1125 29.20625Q402.28436 30.003124 402.1906 31.3625ZM418.64374 33.753124L420.3625 33.971874Q420.08124 35.76875 418.90936 36.784374Q417.7531 37.784374 416.05 37.784374Q413.925 37.784374 412.6281 36.39375Q411.33124 35.003124 411.33124 32.409374Q411.33124 30.721874 411.8781 29.471874Q412.4406 28.20625 413.58124 27.58125Q414.72186 26.940624 416.0656 26.940624Q417.7531 26.940624 418.8156 27.8Q419.89374 28.659374 420.20624 30.221874L418.4875 30.4875Q418.2531 29.440624 417.6281 28.925Q417.0031 28.39375 416.1281 28.39375Q414.8 28.39375 413.97186 29.346874Q413.14374 30.3 413.14374 32.346874Q413.14374 34.440624 413.9406 35.39375Q414.7375 36.33125 416.03436 36.33125Q417.0656 36.33125 417.7531 35.70625Q418.45624 35.065624 418.64374 33.753124ZM425.70624 35.971874L425.95624 37.534374Q425.22186 37.690624 424.6281 37.690624Q423.675 37.690624 423.14374 37.39375Q422.6281 37.08125 422.40936 36.596874Q422.1906 36.096874 422.1906 34.51875L422.1906 28.55L420.90936 28.55L420.90936 27.175L422.1906 27.175L422.1906 24.6125L423.9406 23.55L423.9406 27.175L425.70624 27.175L425.70624 28.55L423.9406 28.55L423.9406 34.6125Q423.9406 35.3625 424.03436 35.58125Q424.1281 35.784374 424.33124 35.925Q424.55 36.05 424.9406 36.05Q425.22186 36.05 425.70624 35.971874ZM440.64374 33.753124L442.3625 33.971874Q442.08124 35.76875 440.90936 36.784374Q439.7531 37.784374 438.05 37.784374Q435.925 37.784374 434.6281 36.39375Q433.33124 35.003124 433.33124 32.409374Q433.33124 30.721874 433.8781 29.471874Q434.4406 28.20625 435.58124 27.58125Q436.72186 26.940624 438.0656 26.940624Q439.7531 26.940624 440.8156 27.8Q441.89374 28.659374 442.20624 30.221874L440.4875 30.4875Q440.2531 29.440624 439.6281 28.925Q439.0031 28.39375 438.1281 28.39375Q436.8 28.39375 435.97186 29.346874Q435.14374 30.3 435.14374 32.346874Q435.14374 34.440624 435.9406 35.39375Q436.7375 36.33125 438.03436 36.33125Q439.0656 36.33125 439.7531 35.70625Q440.45624 35.065624 440.64374 33.753124ZM443.22186 32.3625Q443.22186 29.4875 444.8156 28.096874Q446.15936 26.940624 448.08124 26.940624Q450.22186 26.940624 451.5656 28.346874Q452.925 29.753124 452.925 32.221874Q452.925 34.221874 452.33124 35.378124Q451.7375 36.51875 450.58124 37.159374Q449.4406 37.784374 448.08124 37.784374Q445.89374 37.784374 444.55 36.39375Q443.22186 34.9875 443.22186 32.3625ZM445.01874 32.3625Q445.01874 34.3625 445.8781 35.346874Q446.7531 36.33125 448.08124 36.33125Q449.39374 36.33125 450.2531 35.346874Q451.1281 34.346874 451.1281 32.3Q451.1281 30.378124 450.2531 29.39375Q449.3781 28.39375 448.08124 28.39375Q446.7531 28.39375 445.8781 29.39375Q445.01874 30.378124 445.01874 32.3625ZM454.22186 32.3625Q454.22186 29.4875 455.8156 28.096874Q457.15936 26.940624 459.08124 26.940624Q461.22186 26.940624 462.5656 28.346874Q463.925 29.753124 463.925 32.221874Q463.925 34.221874 463.33124 35.378124Q462.7375 36.51875 461.58124 37.159374Q460.4406 37.784374 459.08124 37.784374Q456.89374 37.784374 455.55 36.39375Q454.22186 34.9875 454.22186 32.3625ZM456.01874 32.3625Q456.01874 34.3625 456.8781 35.346874Q457.7531 36.33125 459.08124 36.33125Q460.39374 36.33125 461.2531 35.346874Q462.1281 34.346874 462.1281 32.3Q462.1281 30.378124 461.2531 29.39375Q460.3781 28.39375 459.08124 28.39375Q457.7531 28.39375 456.8781 29.39375Q456.01874 30.378124 456.01874 32.3625ZM465.8781 37.55L465.8781 23.2375L467.64374 23.2375L467.64374 31.39375L471.8 27.175L474.0656 27.175L470.1125 31.01875L474.47186 37.55L472.3 37.55L468.8781 32.253124L467.64374 33.440624L467.64374 37.55L465.8781 37.55ZM475.8781 25.253124L475.8781 23.2375L477.64374 23.2375L477.64374 25.253124L475.8781 25.253124ZM475.8781 37.55L475.8781 27.175L477.64374 27.175L477.64374 37.55L475.8781 37.55ZM486.97186 34.20625L488.78436 34.440624Q488.3625 36.01875 487.1906 36.909374Q486.03436 37.784374 484.22186 37.784374Q481.95624 37.784374 480.6125 36.39375Q479.28436 34.9875 479.28436 32.45625Q479.28436 29.83125 480.6281 28.39375Q481.97186 26.940624 484.1281 26.940624Q486.20624 26.940624 487.51874 28.3625Q488.84686 29.76875 488.84686 32.346874Q488.84686 32.503124 488.83124 32.815624L481.09686 32.815624Q481.1906 34.51875 482.0656 35.425Q482.9406 36.33125 484.2375 36.33125Q485.20624 36.33125 485.8781 35.83125Q486.5656 35.315624 486.97186 34.20625ZM481.1906 31.3625L486.9875 31.3625Q486.8781 30.065624 486.33124 29.409374Q485.4875 28.39375 484.14374 28.39375Q482.9406 28.39375 482.1125 29.20625Q481.28436 30.003124 481.1906 31.3625ZM490.15936 34.45625L491.90936 34.175Q492.05 35.221874 492.72186 35.784374Q493.39374 36.33125 494.59686 36.33125Q495.8 36.33125 496.3781 35.846874Q496.97186 35.346874 496.97186 34.690624Q496.97186 34.096874 496.45624 33.753124Q496.09686 33.51875 494.65936 33.159374Q492.72186 32.659374 491.97186 32.315624Q491.2375 31.95625 490.84686 31.33125Q490.45624 30.690624 490.45624 29.925Q490.45624 29.2375 490.76874 28.64375Q491.09686 28.05 491.64374 27.659374Q492.05 27.3625 492.7531 27.159374Q493.47186 26.940624 494.28436 26.940624Q495.5031 26.940624 496.425 27.3Q497.34686 27.64375 497.78436 28.253124Q498.22186 28.846874 498.39374 29.846874L496.675 30.08125Q496.55 29.284374 495.9875 28.846874Q495.425 28.39375 494.40936 28.39375Q493.1906 28.39375 492.675 28.8Q492.15936 29.190624 492.15936 29.721874Q492.15936 30.065624 492.3781 30.346874Q492.58124 30.628124 493.05 30.815624Q493.3156 30.909374 494.59686 31.253124Q496.47186 31.753124 497.20624 32.08125Q497.9406 32.39375 498.3625 33.003124Q498.78436 33.596874 498.78436 34.503124Q498.78436 35.378124 498.26874 36.159374Q497.7531 36.940624 496.78436 37.3625Q495.8156 37.784374 494.59686 37.784374Q492.58124 37.784374 491.51874 36.940624Q490.45624 36.096874 490.15936 34.45625ZM504.15936 34.01875Q504.14374 33.675 504.14374 33.503124Q504.14374 32.45625 504.4406 31.70625Q504.65936 31.14375 505.14374 30.565624Q505.4875 30.14375 506.39374 29.346874Q507.3156 28.534374 507.58124 28.065624Q507.8625 27.58125 507.8625 27.01875Q507.8625 25.9875 507.05 25.221874Q506.2531 24.440624 505.09686 24.440624Q503.97186 24.440624 503.22186 25.14375Q502.47186 25.846874 502.2375 27.33125L500.425 27.1125Q500.675 25.1125 501.8781 24.05Q503.08124 22.9875 505.0656 22.9875Q507.175 22.9875 508.425 24.128124Q509.675 25.26875 509.675 26.89375Q509.675 27.83125 509.22186 28.628124Q508.78436 29.409374 507.5031 30.55Q506.64374 31.315624 506.3781 31.675Q506.1281 32.034374 505.9875 32.503124Q505.8625 32.971874 505.84686 34.01875L504.15936 34.01875ZM504.05 37.55L504.05 35.55L506.05 35.55L506.05 37.55L504.05 37.55Z" fill-rule="nonzero"/></svg>