<svg version="1.1" viewBox="0.0 0.0 600.0 371.0" fill="none" stroke="none" stroke-linecap="square" stroke-miterlimit="10" width="600" height="371" xmlns:xlink="http://www.w3.org/1999/xlink" xmlns="http://www.w3.org/2000/svg"><path fill="#ffffff" fill-opacity="0.0" d="M0 0L600.0 0L600.0 371.0L0 371.0L0 0Z" fill-rule="nonzero"/><path fill="#474747" d="M158.5145 247.02083C153.69044 236.62802 151.23334 225.76848 151.23334 214.84084L151.23334 192.52583C151.23334 203.45348 153.69044 214.31302 158.5145 224.70583Z" fill-rule="nonzero"/><path fill="#474747" d="M262.80832 192.52583C262.80832 178.14755 279.4596 166.49167 300.0 166.49167L300.0 188.80667C279.4596 188.80667 262.80832 200.46255 262.80832 214.84084Z" fill-rule="nonzero"/><path fill="#666666" d="M158.5145 224.70583C143.79881 193.00269 151.65434 158.28415 179.64523 131.31584C207.63614 104.34753 252.37904 88.38917 300.0 88.38917L300.0 166.49167C288.09476 166.49167 276.90903 170.48126 269.91132 177.22333C262.91357 183.96541 260.9497 192.64505 264.62863 200.57083Z" fill-rule="nonzero"/><path fill="#6b6b6b" d="M448.76666 214.84084C448.76666 266.06488 395.54852 309.6822 323.27225 317.6954C250.99594 325.70862 181.1275 295.73782 158.5145 247.02083L158.5145 224.70583C181.1275 273.42282 250.99594 303.39362 323.27225 295.3804C395.54852 287.3672 448.76666 243.7499 448.76666 192.52583Z" fill-rule="nonzero"/><path fill="#6b6b6b" d="M300.0 166.49167C320.5404 166.49167 337.19168 178.14755 337.19168 192.52583L337.19168 214.84084C337.19168 200.46255 320.5404 188.80667 300.0 188.80667Z" fill-rule="nonzero"/><path fill="#999999" d="M300.0 88.38917C376.14157 88.38917 439.99274 128.63347 447.95172 181.6406C455.91068 234.6477 405.40802 283.30536 330.93033 294.38687C256.45264 305.46838 182.04353 275.39627 158.5145 224.70583L264.62863 200.57083C270.5109 213.24344 289.11316 220.76147 307.73257 217.99109C326.352 215.22072 338.97766 203.0563 336.9879 189.80452C334.9982 176.55275 319.0354 166.49167 300.0 166.49167Z" fill-rule="nonzero"/><path fill="#000000" d="M364.11932 231.40292L364.11932 229.60605L370.69745 229.60605L370.69745 231.0123Q369.86932 231.80917 369.02557 233.30917Q368.19745 234.79355 367.74432 236.48105Q367.30682 238.16855 367.32245 239.49667L365.46307 239.49667Q365.50995 237.41855 366.32245 235.2623Q367.13495 233.09042 368.49432 231.40292L364.11932 231.40292ZM375.36932 229.43417Q376.82245 229.43417 377.65057 230.46542Q378.61932 231.6998 378.61932 234.55917Q378.61932 237.40292 377.63495 238.6373Q376.82245 239.66855 375.36932 239.66855Q373.90057 239.66855 373.00995 238.54355Q372.11932 237.41855 372.11932 234.52792Q372.11932 231.6998 373.1037 230.46542Q373.9162 229.43417 375.36932 229.43417ZM375.36932 231.02792Q375.02557 231.02792 374.74432 231.24667Q374.4787 231.46542 374.32245 232.04355Q374.11932 232.79355 374.11932 234.55917Q374.11932 236.3248 374.2912 236.98105Q374.4787 237.6373 374.74432 237.85605Q375.02557 238.0748 375.36932 238.0748Q375.71307 238.0748 375.9787 237.85605Q376.25995 237.6373 376.4162 237.05917Q376.61932 236.3248 376.61932 234.55917Q376.61932 232.79355 376.43182 232.1373Q376.25995 231.46542 375.9787 231.24667Q375.71307 231.02792 375.36932 231.02792ZM380.52557 239.49667L380.52557 237.5748L382.44745 237.5748L382.44745 239.49667L380.52557 239.49667ZM387.36932 229.43417Q388.82245 229.43417 389.65057 230.46542Q390.61932 231.6998 390.61932 234.55917Q390.61932 237.40292 389.63495 238.6373Q388.82245 239.66855 387.36932 239.66855Q385.90057 239.66855 385.00995 238.54355Q384.11932 237.41855 384.11932 234.52792Q384.11932 231.6998 385.1037 230.46542Q385.9162 229.43417 387.36932 229.43417ZM387.36932 231.02792Q387.02557 231.02792 386.74432 231.24667Q386.4787 231.46542 386.32245 232.04355Q386.11932 232.79355 386.11932 234.55917Q386.11932 236.3248 386.2912 236.98105Q386.4787 237.6373 386.74432 237.85605Q387.02557 238.0748 387.36932 238.0748Q387.71307 238.0748 387.9787 237.85605Q388.25995 237.6373 388.4162 237.05917Q388.61932 236.3248 388.61932 234.55917Q388.61932 232.79355 388.43182 232.1373Q388.25995 231.46542 387.9787 231.24667Q387.71307 231.02792 387.36932 231.02792ZM392.13495 231.9498Q392.13495 230.60605 392.7287 229.96542Q393.32245 229.30917 394.32245 229.30917Q395.36932 229.30917 395.96307 229.9498Q396.55682 230.59042 396.55682 231.9498Q396.55682 233.29355 395.96307 233.9498Q395.36932 234.59042 394.36932 234.59042Q393.32245 234.59042 392.7287 233.9498Q392.13495 233.30917 392.13495 231.9498ZM393.63495 231.93417Q393.63495 232.91855 393.8537 233.24667Q394.02557 233.49667 394.32245 233.49667Q394.63495 233.49667 394.80682 233.24667Q395.02557 232.91855 395.02557 231.93417Q395.02557 230.96542 394.80682 230.6373Q394.63495 230.37167 394.32245 230.37167Q394.02557 230.37167 393.8537 230.62167Q393.63495 230.96542 393.63495 231.93417ZM395.7912 239.8873L394.36932 239.8873L399.71307 229.30917L401.08807 229.30917L395.7912 239.8873ZM398.90057 237.24667Q398.90057 235.90292 399.4787 235.2623Q400.07245 234.60605 401.1037 234.60605Q402.13495 234.60605 402.7287 235.2623Q403.32245 235.90292 403.32245 237.24667Q403.32245 238.60605 402.7287 239.2623Q402.13495 239.90292 401.11932 239.90292Q400.07245 239.90292 399.4787 239.2623Q398.90057 238.60605 398.90057 237.24667ZM400.38495 237.24667Q400.38495 238.21542 400.61932 238.54355Q400.7912 238.79355 401.08807 238.79355Q401.40057 238.79355 401.55682 238.55917Q401.7912 238.21542 401.7912 237.24667Q401.7912 236.2623 401.57245 235.93417Q401.40057 235.68417 401.08807 235.68417Q400.77557 235.68417 400.61932 235.93417Q400.38495 236.2623 400.38495 237.24667Z" fill-rule="nonzero"/><path fill="#ffffff" d="M199.00568 152.89874L200.86505 152.66437Q200.94318 153.38312 201.3338 153.75812Q201.72443 154.13312 202.28693 154.13312Q202.88068 154.13312 203.28693 153.68Q203.69318 153.22687 203.69318 152.46124Q203.69318 151.7425 203.30255 151.32062Q202.91193 150.89874 202.34943 150.89874Q201.97443 150.89874 201.47443 151.03937L201.67755 149.47687Q202.4588 149.4925 202.86505 149.13312Q203.28693 148.77374 203.28693 148.18Q203.28693 147.68 202.97443 147.38312Q202.67755 147.07062 202.17755 147.07062Q201.69318 147.07062 201.3338 147.41437Q200.99005 147.75812 200.91193 148.41437L199.1463 148.1175Q199.3338 147.19562 199.69318 146.66437Q200.06818 146.1175 200.74005 145.805Q201.41193 145.4925 202.24005 145.4925Q203.6463 145.4925 204.50568 146.39874Q205.2088 147.13312 205.2088 148.055Q205.2088 149.38312 203.7713 150.16437Q204.63068 150.35187 205.1463 150.9925Q205.66193 151.63312 205.66193 152.53937Q205.66193 153.8675 204.69318 154.805Q203.72443 155.72687 202.30255 155.72687Q200.94318 155.72687 200.03693 154.94562Q199.1463 154.16437 199.00568 152.89874ZM210.31818 145.4925Q211.7713 145.4925 212.59943 146.52374Q213.56818 147.75812 213.56818 150.6175Q213.56818 153.46124 212.5838 154.69562Q211.7713 155.72687 210.31818 155.72687Q208.84943 155.72687 207.9588 154.60187Q207.06818 153.47687 207.06818 150.58624Q207.06818 147.75812 208.05255 146.52374Q208.86505 145.4925 210.31818 145.4925ZM210.31818 147.08624Q209.97443 147.08624 209.69318 147.305Q209.42755 147.52374 209.2713 148.10187Q209.06818 148.85187 209.06818 150.6175Q209.06818 152.38312 209.24005 153.03937Q209.42755 153.69562 209.69318 153.91437Q209.97443 154.13312 210.31818 154.13312Q210.66193 154.13312 210.92755 153.91437Q211.2088 153.69562 211.36505 153.1175Q211.56818 152.38312 211.56818 150.6175Q211.56818 148.85187 211.38068 148.19562Q211.2088 147.52374 210.92755 147.305Q210.66193 147.08624 210.31818 147.08624ZM215.47443 155.555L215.47443 153.63312L217.3963 153.63312L217.3963 155.555L215.47443 155.555ZM222.31818 145.4925Q223.7713 145.4925 224.59943 146.52374Q225.56818 147.75812 225.56818 150.6175Q225.56818 153.46124 224.5838 154.69562Q223.7713 155.72687 222.31818 155.72687Q220.84943 155.72687 219.9588 154.60187Q219.06818 153.47687 219.06818 150.58624Q219.06818 147.75812 220.05255 146.52374Q220.86505 145.4925 222.31818 145.4925ZM222.31818 147.08624Q221.97443 147.08624 221.69318 147.305Q221.42755 147.52374 221.2713 148.10187Q221.06818 148.85187 221.06818 150.6175Q221.06818 152.38312 221.24005 153.03937Q221.42755 153.69562 221.69318 153.91437Q221.97443 154.13312 222.31818 154.13312Q222.66193 154.13312 222.92755 153.91437Q223.2088 153.69562 223.36505 153.1175Q223.56818 152.38312 223.56818 150.6175Q223.56818 148.85187 223.38068 148.19562Q223.2088 147.52374 222.92755 147.305Q222.66193 147.08624 222.31818 147.08624ZM227.0838 148.00812Q227.0838 146.66437 227.67755 146.02374Q228.2713 145.3675 229.2713 145.3675Q230.31818 145.3675 230.91193 146.00812Q231.50568 146.64874 231.50568 148.00812Q231.50568 149.35187 230.91193 150.00812Q230.31818 150.64874 229.31818 150.64874Q228.2713 150.64874 227.67755 150.00812Q227.0838 149.3675 227.0838 148.00812ZM228.5838 147.9925Q228.5838 148.97687 228.80255 149.305Q228.97443 149.555 229.2713 149.555Q229.5838 149.555 229.75568 149.305Q229.97443 148.97687 229.97443 147.9925Q229.97443 147.02374 229.75568 146.69562Q229.5838 146.43 229.2713 146.43Q228.97443 146.43 228.80255 146.68Q228.5838 147.02374 228.5838 147.9925ZM230.74005 155.94562L229.31818 155.94562L234.66193 145.3675L236.03693 145.3675L230.74005 155.94562ZM233.84943 153.305Q233.84943 151.96124 234.42755 151.32062Q235.0213 150.66437 236.05255 150.66437Q237.0838 150.66437 237.67755 151.32062Q238.2713 151.96124 238.2713 153.305Q238.2713 154.66437 237.67755 155.32062Q237.0838 155.96124 236.06818 155.96124Q235.0213 155.96124 234.42755 155.32062Q233.84943 154.66437 233.84943 153.305ZM235.3338 153.305Q235.3338 154.27374 235.56818 154.60187Q235.74005 154.85187 236.03693 154.85187Q236.34943 154.85187 236.50568 154.6175Q236.74005 154.27374 236.74005 153.305Q236.74005 152.32062 236.5213 151.9925Q236.34943 151.7425 236.03693 151.7425Q235.72443 151.7425 235.56818 151.9925Q235.3338 152.32062 235.3338 153.305Z" fill-rule="nonzero"/><path fill="#1a1a1a" d="M25.284374 126.45446Q25.284374 126.57946 25.2375 126.657585Q25.20625 126.73571 25.14375 126.79821Q25.096874 126.845085 25.01875 126.876335Q24.940624 126.89196 24.8625 126.89196L24.534374 126.89196Q24.39375 126.89196 24.26875 126.86071Q24.159374 126.82946 24.05 126.751335Q23.95625 126.657585 23.846874 126.51696Q23.753124 126.36071 23.628124 126.14196L21.2375 121.82946Q21.05 121.48571 20.846874 121.126335Q20.659374 120.751335 20.503124 120.407585L20.4875 120.407585Q20.503124 120.82946 20.503124 121.282585Q20.51875 121.720085 20.51875 122.14196L20.51875 126.720085Q20.51875 126.76696 20.4875 126.813835Q20.471874 126.845085 20.409374 126.86071Q20.3625 126.876335 20.26875 126.89196Q20.175 126.907585 20.034374 126.907585Q19.89375 126.907585 19.8 126.89196Q19.70625 126.876335 19.659374 126.86071Q19.6125 126.845085 19.58125 126.813835Q19.565624 126.76696 19.565624 126.720085L19.565624 119.720085Q19.565624 119.48571 19.690624 119.39196Q19.815624 119.29821 19.971874 119.29821L20.45625 119.29821Q20.6125 119.29821 20.721874 119.32946Q20.846874 119.345085 20.940624 119.42321Q21.034374 119.48571 21.1125 119.61071Q21.20625 119.720085 21.3 119.907585L23.14375 123.23571Q23.315624 123.54821 23.471874 123.845085Q23.628124 124.126335 23.76875 124.407585Q23.925 124.688835 24.065624 124.970085Q24.20625 125.23571 24.346874 125.501335L24.346874 125.501335Q24.346874 125.04821 24.33125 124.54821Q24.33125 124.032585 24.33125 123.57946L24.33125 119.470085Q24.33125 119.42321 24.346874 119.39196Q24.378124 119.345085 24.425 119.32946Q24.4875 119.29821 24.58125 119.29821Q24.675 119.282585 24.815624 119.282585Q24.95625 119.282585 25.05 119.29821Q25.14375 119.29821 25.190624 119.32946Q25.2375 119.345085 25.253124 119.39196Q25.284374 119.42321 25.284374 119.470085L25.284374 126.45446ZM32.346874 124.032585Q32.346874 124.67321 32.175 125.220085Q32.01875 125.76696 31.675 126.157585Q31.33125 126.54821 30.83125 126.76696Q30.33125 126.98571 29.659374 126.98571Q29.003124 126.98571 28.51875 126.79821Q28.034374 126.595085 27.70625 126.23571Q27.39375 125.86071 27.2375 125.345085Q27.08125 124.813835 27.08125 124.14196Q27.08125 123.501335 27.2375 122.95446Q27.409374 122.407585 27.7375 122.01696Q28.08125 121.626335 28.58125 121.407585Q29.096874 121.188835 29.76875 121.188835Q30.425 121.188835 30.89375 121.39196Q31.378124 121.57946 31.70625 121.95446Q32.034374 122.313835 32.190624 122.845085Q32.346874 123.376335 32.346874 124.032585ZM31.33125 124.095085Q31.33125 123.67321 31.253124 123.29821Q31.175 122.907585 30.9875 122.626335Q30.815624 122.32946 30.503124 122.17321Q30.190624 122.001335 29.721874 122.001335Q29.3 122.001335 28.9875 122.157585Q28.690624 122.29821 28.4875 122.57946Q28.284374 122.86071 28.190624 123.251335Q28.096874 123.626335 28.096874 124.07946Q28.096874 124.501335 28.175 124.89196Q28.253124 125.26696 28.425 125.563835Q28.6125 125.845085 28.925 126.01696Q29.2375 126.17321 29.70625 126.17321Q30.128124 126.17321 30.440624 126.01696Q30.753124 125.86071 30.940624 125.595085Q31.14375 125.313835 31.2375 124.938835Q31.33125 124.54821 31.33125 124.095085Z" fill-rule="nonzero"/><path fill="#9e9e9e" d="M23.909374 142.70447Q23.909374 143.23572 23.721874 143.6576Q23.55 144.06384 23.20625 144.36072Q22.8625 144.6576 22.3625 144.82947Q21.8625 144.98572 21.2375 144.98572Q20.8625 144.98572 20.51875 144.92322Q20.190624 144.86072 19.925 144.7826Q19.675 144.68884 19.503124 144.61072Q19.346874 144.51697 19.3 144.4701Q19.253124 144.42322 19.221874 144.39197Q19.20625 144.3451 19.190624 144.29822Q19.175 144.23572 19.159374 144.1576Q19.159374 144.06384 19.159374 143.93884Q19.159374 143.7201 19.190624 143.64197Q19.2375 143.56384 19.315624 143.56384Q19.3625 143.56384 19.51875 143.6576Q19.675 143.75134 19.909374 143.86072Q20.159374 143.9701 20.4875 144.06384Q20.815624 144.1576 21.20625 144.1576Q21.596874 144.1576 21.89375 144.06384Q22.190624 143.95447 22.378124 143.7826Q22.58125 143.5951 22.675 143.3451Q22.784374 143.0951 22.784374 142.79822Q22.784374 142.48572 22.659374 142.23572Q22.534374 141.9701 22.284374 141.7826Q22.05 141.5951 21.690624 141.50134Q21.33125 141.39197 20.878124 141.39197L20.159374 141.39197Q20.1125 141.39197 20.065624 141.37634Q20.034374 141.3451 19.9875 141.29822Q19.95625 141.25134 19.940624 141.17322Q19.925 141.0951 19.925 140.98572Q19.925 140.86072 19.940624 140.79822Q19.95625 140.7201 19.9875 140.67322Q20.01875 140.62634 20.05 140.61072Q20.096874 140.5951 20.159374 140.5951L20.815624 140.5951Q21.20625 140.5951 21.503124 140.50134Q21.815624 140.39197 22.034374 140.20447Q22.253124 140.01697 22.3625 139.76697Q22.471874 139.50134 22.471874 139.17322Q22.471874 138.93884 22.39375 138.73572Q22.33125 138.51697 22.175 138.36072Q22.01875 138.18884 21.784374 138.11072Q21.55 138.01697 21.2375 138.01697Q20.89375 138.01697 20.6125 138.12634Q20.33125 138.2201 20.096874 138.3451Q19.878124 138.45447 19.721874 138.56384Q19.58125 138.6576 19.534374 138.6576Q19.4875 138.6576 19.45625 138.64197Q19.425 138.62634 19.39375 138.5951Q19.378124 138.54822 19.3625 138.4701Q19.3625 138.37634 19.3625 138.25134Q19.3625 138.17322 19.3625 138.11072Q19.378124 138.0326 19.39375 137.98572Q19.409374 137.93884 19.425 137.89197Q19.45625 137.8451 19.503124 137.79822Q19.565624 137.73572 19.7375 137.64197Q19.909374 137.5326 20.159374 137.43884Q20.409374 137.32947 20.7375 137.26697Q21.065624 137.18884 21.440624 137.18884Q21.95625 137.18884 22.346874 137.32947Q22.753124 137.45447 23.01875 137.70447Q23.284374 137.93884 23.409374 138.2826Q23.55 138.62634 23.55 139.04822Q23.55 139.4076 23.45625 139.7201Q23.3625 140.01697 23.175 140.25134Q23.003124 140.48572 22.7375 140.6576Q22.471874 140.82947 22.128124 140.89197L22.128124 140.9076Q22.51875 140.93884 22.846874 141.0951Q23.175 141.25134 23.409374 141.48572Q23.64375 141.7201 23.76875 142.0326Q23.909374 142.3451 23.909374 142.70447ZM30.221874 141.06384Q30.221874 141.93884 30.08125 142.6576Q29.940624 143.37634 29.6125 143.9076Q29.3 144.42322 28.784374 144.70447Q28.26875 144.98572 27.51875 144.98572Q26.8 144.98572 26.3 144.73572Q25.815624 144.4701 25.51875 143.98572Q25.221874 143.48572 25.096874 142.76697Q24.971874 142.0326 24.971874 141.0951Q24.971874 140.23572 25.1125 139.51697Q25.253124 138.7826 25.565624 138.26697Q25.89375 137.75134 26.409374 137.4701Q26.925 137.18884 27.675 137.18884Q28.39375 137.18884 28.878124 137.43884Q29.3625 137.68884 29.659374 138.18884Q29.971874 138.68884 30.096874 139.4076Q30.221874 140.12634 30.221874 141.06384ZM29.190624 141.14197Q29.190624 140.56384 29.14375 140.12634Q29.096874 139.67322 29.01875 139.32947Q28.940624 138.9701 28.815624 138.7201Q28.690624 138.4701 28.51875 138.31384Q28.346874 138.1576 28.1125 138.07947Q27.89375 138.00134 27.6125 138.00134Q27.1125 138.00134 26.8 138.23572Q26.4875 138.4701 26.3 138.89197Q26.128124 139.29822 26.065624 139.8451Q26.003124 140.39197 26.003124 141.0326Q26.003124 141.87634 26.08125 142.4701Q26.175 143.06384 26.3625 143.43884Q26.565624 143.81384 26.8625 143.98572Q27.159374 144.1576 27.58125 144.1576Q27.909374 144.1576 28.14375 144.06384Q28.39375 143.95447 28.565624 143.76697Q28.753124 143.56384 28.8625 143.2826Q28.9875 143.00134 29.05 142.67322Q29.128124 142.3451 29.159374 141.95447Q29.190624 141.56384 29.190624 141.14197ZM32.690624 144.23572Q32.690624 144.6576 32.55 144.79822Q32.425 144.92322 32.05 144.92322Q31.70625 144.92322 31.565624 144.79822Q31.440624 144.6576 31.440624 144.25134Q31.440624 143.8451 31.565624 143.70447Q31.70625 143.56384 32.08125 143.56384Q32.425 143.56384 32.55 143.70447Q32.690624 143.82947 32.690624 144.23572ZM39.221874 141.06384Q39.221874 141.93884 39.08125 142.6576Q38.940624 143.37634 38.6125 143.9076Q38.3 144.42322 37.784374 144.70447Q37.26875 144.98572 36.51875 144.98572Q35.8 144.98572 35.3 144.73572Q34.815624 144.4701 34.51875 143.98572Q34.221874 143.48572 34.096874 142.76697Q33.971874 142.0326 33.971874 141.0951Q33.971874 140.23572 34.1125 139.51697Q34.253124 138.7826 34.565624 138.26697Q34.89375 137.75134 35.409374 137.4701Q35.925 137.18884 36.675 137.18884Q37.39375 137.18884 37.878124 137.43884Q38.3625 137.68884 38.659374 138.18884Q38.971874 138.68884 39.096874 139.4076Q39.221874 140.12634 39.221874 141.06384ZM38.190624 141.14197Q38.190624 140.56384 38.14375 140.12634Q38.096874 139.67322 38.01875 139.32947Q37.940624 138.9701 37.815624 138.7201Q37.690624 138.4701 37.51875 138.31384Q37.346874 138.1576 37.1125 138.07947Q36.89375 138.00134 36.6125 138.00134Q36.1125 138.00134 35.8 138.23572Q35.4875 138.4701 35.3 138.89197Q35.128124 139.29822 35.065624 139.8451Q35.003124 140.39197 35.003124 141.0326Q35.003124 141.87634 35.08125 142.4701Q35.175 143.06384 35.3625 143.43884Q35.565624 143.81384 35.8625 143.98572Q36.159374 144.1576 36.58125 144.1576Q36.909374 144.1576 37.14375 144.06384Q37.39375 143.95447 37.565624 143.76697Q37.753124 143.56384 37.8625 143.2826Q37.9875 143.00134 38.05 142.67322Q38.128124 142.3451 38.159374 141.95447Q38.190624 141.56384 38.190624 141.14197ZM43.2375 139.1576Q43.2375 139.61072 43.128124 139.98572Q43.034374 140.3451 42.83125 140.61072Q42.628124 140.87634 42.315624 141.0326Q42.003124 141.17322 41.58125 141.17322Q41.14375 141.17322 40.83125 141.0326Q40.534374 140.89197 40.346874 140.64197Q40.159374 140.39197 40.065624 140.0326Q39.971874 139.6576 39.971874 139.18884Q39.971874 138.75134 40.065624 138.39197Q40.159374 138.0326 40.3625 137.76697Q40.565624 137.50134 40.878124 137.36072Q41.190624 137.20447 41.6125 137.20447Q42.08125 137.20447 42.39375 137.36072Q42.70625 137.51697 42.89375 137.7826Q43.08125 138.04822 43.159374 138.4076Q43.2375 138.76697 43.2375 139.1576ZM42.409374 139.18884Q42.409374 138.86072 42.3625 138.61072Q42.315624 138.36072 42.221874 138.18884Q42.128124 138.01697 41.971874 137.93884Q41.815624 137.8451 41.596874 137.8451Q41.39375 137.8451 41.2375 137.92322Q41.08125 138.00134 40.9875 138.17322Q40.89375 138.32947 40.846874 138.57947Q40.8 138.82947 40.8 139.1576Q40.8 139.54822 40.846874 139.81384Q40.909374 140.07947 41.003124 140.23572Q41.1125 140.39197 41.26875 140.45447Q41.425 140.51697 41.628124 140.51697Q41.8625 140.51697 42.003124 140.43884Q42.159374 140.3451 42.253124 140.17322Q42.346874 140.00134 42.378124 139.75134Q42.409374 139.50134 42.409374 139.18884ZM47.70625 142.95447Q47.70625 143.4076 47.596874 143.7826Q47.503124 144.14197 47.3 144.4076Q47.096874 144.67322 46.784374 144.82947Q46.471874 144.9701 46.05 144.9701Q45.6125 144.9701 45.3 144.82947Q45.003124 144.68884 44.815624 144.43884Q44.628124 144.18884 44.534374 143.82947Q44.440624 143.45447 44.440624 142.98572Q44.440624 142.54822 44.534374 142.18884Q44.628124 141.82947 44.83125 141.56384Q45.034374 141.29822 45.346874 141.1576Q45.659374 141.00134 46.08125 141.00134Q46.55 141.00134 46.8625 141.1576Q47.175 141.31384 47.3625 141.57947Q47.55 141.8451 47.628124 142.20447Q47.70625 142.56384 47.70625 142.95447ZM46.878124 142.98572Q46.878124 142.6576 46.83125 142.4076Q46.784374 142.1576 46.690624 141.98572Q46.596874 141.81384 46.440624 141.73572Q46.284374 141.64197 46.065624 141.64197Q45.8625 141.64197 45.70625 141.7201Q45.55 141.79822 45.45625 141.9701Q45.3625 142.12634 45.315624 142.37634Q45.26875 142.62634 45.26875 142.95447Q45.26875 143.3451 45.315624 143.61072Q45.378124 143.87634 45.471874 144.0326Q45.58125 144.18884 45.7375 144.25134Q45.89375 144.31384 46.096874 144.31384Q46.33125 144.31384 46.471874 144.23572Q46.628124 144.14197 46.721874 143.9701Q46.815624 143.79822 46.846874 143.54822Q46.878124 143.29822 46.878124 142.98572ZM41.58125 144.92322Q41.55 144.9701 41.503124 145.00134Q41.471874 145.0326 41.409374 145.04822Q41.3625 145.06384 41.26875 145.07947Q41.190624 145.0951 41.08125 145.0951Q40.940624 145.0951 40.8625 145.06384Q40.784374 145.04822 40.753124 145.00134Q40.721874 144.9701 40.721874 144.9076Q40.7375 144.8451 40.784374 144.7826L46.065624 137.23572Q46.096874 137.18884 46.128124 137.1576Q46.175 137.11072 46.2375 137.0951Q46.3 137.07947 46.378124 137.07947Q46.45625 137.06384 46.58125 137.06384Q46.70625 137.06384 46.784374 137.0951Q46.8625 137.11072 46.89375 137.1576Q46.925 137.18884 46.909374 137.25134Q46.909374 137.29822 46.8625 137.37634L41.58125 144.92322Z" fill-rule="nonzero"/><path stroke="#757575" stroke-width="1.0" stroke-linecap="butt" d="M18.55 134.37634L145.23334 134.37634L185.66298 134.37634" fill-rule="nonzero"/><path fill="#9e9e9e" d="M187.66298 134.37634C187.66298 133.27177 186.76755 132.37634 185.66298 132.37634C184.55841 132.37634 183.66298 133.27177 183.66298 134.37634C183.66298 135.48091 184.55841 136.37634 185.66298 136.37634C186.76755 136.37634 187.66298 135.48091 187.66298 134.37634" fill-rule="nonzero"/><path fill="#1a1a1a" d="M565.8719 240.2222L565.8719 243.01907Q565.8719 243.06595 565.84064 243.11282Q565.825 243.14407 565.7625 243.1597Q565.71564 243.17532 565.60626 243.19095Q565.5125 243.20657 565.3719 243.20657Q565.23126 243.20657 565.1219 243.19095Q565.02814 243.17532 564.96564 243.1597Q564.91876 243.14407 564.8875 243.11282Q564.8719 243.06595 564.8719 243.01907L564.8719 240.2222L562.71564 235.95657Q562.65314 235.81595 562.6375 235.73782Q562.6219 235.6597 562.66876 235.62845Q562.71564 235.58157 562.825 235.56595Q562.95 235.55032 563.1375 235.55032Q563.3094 235.55032 563.41876 235.56595Q563.52814 235.58157 563.59064 235.61282Q563.65314 235.62845 563.6844 235.6597Q563.71564 235.69095 563.7469 235.75345L564.79376 237.94095Q564.95 238.25345 565.09064 238.5972Q565.2469 238.92532 565.3875 239.26907L565.40314 239.26907Q565.54376 238.94095 565.6844 238.61282Q565.825 238.26907 565.96564 237.95657L567.02814 235.76907Q567.04376 235.70657 567.075 235.67532Q567.10626 235.62845 567.15314 235.61282Q567.21564 235.58157 567.3094 235.56595Q567.41876 235.55032 567.575 235.55032Q567.77814 235.55032 567.90314 235.56595Q568.02814 235.58157 568.075 235.62845Q568.1219 235.67532 568.10626 235.75345Q568.09064 235.81595 568.02814 235.95657L565.8719 240.2222ZM573.84064 240.1597Q573.84064 240.39407 573.73126 240.48782Q573.6219 240.58157 573.46564 240.58157L570.0125 240.58157Q570.0125 241.01907 570.09064 241.37845Q570.1844 241.7222 570.3875 241.98782Q570.60626 242.23782 570.9344 242.37845Q571.2625 242.50345 571.73126 242.50345Q572.10626 242.50345 572.40314 242.44095Q572.7 242.37845 572.90314 242.30032Q573.1219 242.2222 573.2625 242.1597Q573.40314 242.0972 573.46564 242.0972Q573.5125 242.0972 573.54376 242.12845Q573.575 242.14407 573.59064 242.19095Q573.60626 242.2222 573.60626 242.30032Q573.6219 242.37845 573.6219 242.4722Q573.6219 242.55032 573.60626 242.61282Q573.60626 242.6597 573.59064 242.70657Q573.59064 242.75345 573.575 242.7847Q573.5594 242.81595 573.52814 242.86282Q573.4969 242.89407 573.325 242.9722Q573.16876 243.0347 572.91876 243.11282Q572.66876 243.17532 572.34064 243.2222Q572.0125 243.2847 571.6375 243.2847Q570.98126 243.2847 570.48126 243.11282Q569.9969 242.92532 569.66876 242.56595Q569.34064 242.20657 569.16876 241.67532Q568.9969 241.12845 568.9969 240.4097Q568.9969 239.73782 569.16876 239.19095Q569.34064 238.64407 569.66876 238.26907Q570.0125 237.89407 570.48126 237.69095Q570.95 237.48782 571.52814 237.48782Q572.15314 237.48782 572.59064 237.69095Q573.02814 237.89407 573.3094 238.23782Q573.59064 238.56595 573.71564 239.01907Q573.84064 239.4722 573.84064 239.98782L573.84064 240.1597ZM572.8719 239.87845Q572.8875 239.11282 572.52814 238.69095Q572.1844 238.25345 571.48126 238.25345Q571.1219 238.25345 570.85626 238.39407Q570.59064 238.51907 570.40314 238.73782Q570.23126 238.95657 570.1219 239.25345Q570.02814 239.55032 570.0125 239.87845L572.8719 239.87845ZM579.65314 241.5972Q579.65314 242.00345 579.4969 242.31595Q579.35626 242.62845 579.075 242.8472Q578.8094 243.06595 578.41876 243.17532Q578.04376 243.2847 577.59064 243.2847Q577.3094 243.2847 577.04376 243.23782Q576.79376 243.20657 576.59064 243.14407Q576.3875 243.06595 576.2469 242.98782Q576.10626 242.9097 576.04376 242.86282Q575.98126 242.80032 575.95 242.69095Q575.91876 242.58157 575.91876 242.4097Q575.91876 242.30032 575.9344 242.2222Q575.95 242.14407 575.96564 242.0972Q575.98126 242.05032 576.0125 242.0347Q576.04376 242.00345 576.09064 242.00345Q576.15314 242.00345 576.27814 242.08157Q576.40314 242.1597 576.59064 242.25345Q576.77814 242.3472 577.02814 242.44095Q577.27814 242.51907 577.60626 242.51907Q577.85626 242.51907 578.04376 242.4722Q578.2469 242.4097 578.3875 242.31595Q578.54376 242.20657 578.6219 242.05032Q578.7 241.87845 578.7 241.67532Q578.7 241.44095 578.59064 241.30032Q578.48126 241.14407 578.29376 241.0347Q578.10626 240.9097 577.8719 240.81595Q577.6375 240.7222 577.3875 240.62845Q577.1375 240.51907 576.8875 240.39407Q576.65314 240.26907 576.46564 240.0972Q576.27814 239.9097 576.16876 239.6597Q576.0594 239.4097 576.0594 239.05032Q576.0594 238.73782 576.16876 238.45657Q576.29376 238.17532 576.52814 237.9722Q576.77814 237.75345 577.1375 237.62845Q577.4969 237.48782 577.98126 237.48782Q578.1844 237.48782 578.3875 237.5347Q578.60626 237.56595 578.77814 237.61282Q578.95 237.6597 579.0594 237.7222Q579.1844 237.7847 579.2469 237.83157Q579.3094 237.87845 579.325 237.92532Q579.35626 237.95657 579.35626 238.00345Q579.3719 238.0347 579.3719 238.11282Q579.3875 238.17532 579.3875 238.26907Q579.3875 238.36282 579.3719 238.44095Q579.3719 238.50345 579.34064 238.55032Q579.325 238.5972 579.29376 238.62845Q579.27814 238.64407 579.23126 238.64407Q579.1844 238.64407 579.075 238.58157Q578.98126 238.51907 578.825 238.44095Q578.66876 238.36282 578.45 238.30032Q578.2469 238.23782 577.96564 238.23782Q577.71564 238.23782 577.52814 238.30032Q577.34064 238.3472 577.21564 238.45657Q577.10626 238.55032 577.04376 238.69095Q576.98126 238.83157 576.98126 239.00345Q576.98126 239.23782 577.09064 239.39407Q577.21564 239.5347 577.40314 239.6597Q577.59064 239.76907 577.825 239.86282Q578.075 239.95657 578.325 240.06595Q578.575 240.1597 578.8094 240.2847Q579.0594 240.4097 579.2469 240.58157Q579.4344 240.75345 579.54376 241.00345Q579.65314 241.25345 579.65314 241.5972Z" fill-rule="nonzero"/><path fill="#9e9e9e" d="M556.98126 254.01907Q556.98126 254.12845 556.96564 254.2222Q556.96564 254.30032 556.95 254.37845Q556.9344 254.45657 556.90314 254.5347Q556.8719 254.61282 556.84064 254.69095L554.10626 260.98782Q554.075 261.05032 554.02814 261.0972Q553.9969 261.14407 553.91876 261.17532Q553.85626 261.19095 553.7469 261.19095Q553.65314 261.20657 553.4969 261.20657Q553.29376 261.20657 553.1844 261.19095Q553.075 261.17532 553.02814 261.14407Q552.98126 261.0972 552.98126 261.05032Q552.98126 260.98782 553.02814 260.9097L555.8875 254.4722L552.2469 254.4722Q552.1375 254.4722 552.075 254.36282Q552.02814 254.23782 552.02814 254.0347Q552.02814 253.92532 552.04376 253.8472Q552.0594 253.75345 552.09064 253.70657Q552.1219 253.64407 552.15314 253.62845Q552.2 253.5972 552.2469 253.5972L556.66876 253.5972Q556.7469 253.5972 556.8094 253.61282Q556.8719 253.62845 556.90314 253.69095Q556.9344 253.73782 556.95 253.81595Q556.98126 253.89407 556.98126 254.01907ZM563.1219 257.36282Q563.1219 258.23782 562.98126 258.95657Q562.84064 259.67532 562.5125 260.20657Q562.2 260.7222 561.6844 261.00345Q561.16876 261.2847 560.41876 261.2847Q559.7 261.2847 559.2 261.0347Q558.71564 260.76907 558.41876 260.2847Q558.1219 259.7847 557.9969 259.06595Q557.8719 258.33157 557.8719 257.39407Q557.8719 256.5347 558.0125 255.81595Q558.15314 255.08157 558.46564 254.56595Q558.79376 254.05032 559.3094 253.76907Q559.825 253.48782 560.575 253.48782Q561.29376 253.48782 561.77814 253.73782Q562.2625 253.98782 562.5594 254.48782Q562.8719 254.98782 562.9969 255.70657Q563.1219 256.42532 563.1219 257.36282ZM562.09064 257.44095Q562.09064 256.86282 562.04376 256.42532Q561.9969 255.9722 561.91876 255.62845Q561.84064 255.26907 561.71564 255.01907Q561.59064 254.76907 561.41876 254.61282Q561.2469 254.45657 561.0125 254.37845Q560.79376 254.30032 560.5125 254.30032Q560.0125 254.30032 559.7 254.5347Q559.3875 254.76907 559.2 255.19095Q559.02814 255.5972 558.96564 256.14407Q558.90314 256.69095 558.90314 257.33157Q558.90314 258.17532 558.98126 258.76907Q559.075 259.36282 559.2625 259.73782Q559.46564 260.11282 559.7625 260.2847Q560.0594 260.45657 560.48126 260.45657Q560.8094 260.45657 561.04376 260.36282Q561.29376 260.25345 561.46564 260.06595Q561.65314 259.86282 561.7625 259.58157Q561.8875 259.30032 561.95 258.9722Q562.02814 258.64407 562.0594 258.25345Q562.09064 257.86282 562.09064 257.44095ZM565.59064 260.5347Q565.59064 260.95657 565.45 261.0972Q565.325 261.2222 564.95 261.2222Q564.60626 261.2222 564.46564 261.0972Q564.34064 260.95657 564.34064 260.55032Q564.34064 260.14407 564.46564 260.00345Q564.60626 259.86282 564.98126 259.86282Q565.325 259.86282 565.45 260.00345Q565.59064 260.12845 565.59064 260.5347ZM572.1219 257.36282Q572.1219 258.23782 571.98126 258.95657Q571.84064 259.67532 571.5125 260.20657Q571.2 260.7222 570.6844 261.00345Q570.16876 261.2847 569.41876 261.2847Q568.7 261.2847 568.2 261.0347Q567.71564 260.76907 567.41876 260.2847Q567.1219 259.7847 566.9969 259.06595Q566.8719 258.33157 566.8719 257.39407Q566.8719 256.5347 567.0125 255.81595Q567.15314 255.08157 567.46564 254.56595Q567.79376 254.05032 568.3094 253.76907Q568.825 253.48782 569.575 253.48782Q570.29376 253.48782 570.77814 253.73782Q571.2625 253.98782 571.5594 254.48782Q571.8719 254.98782 571.9969 255.70657Q572.1219 256.42532 572.1219 257.36282ZM571.09064 257.44095Q571.09064 256.86282 571.04376 256.42532Q570.9969 255.9722 570.91876 255.62845Q570.84064 255.26907 570.71564 255.01907Q570.59064 254.76907 570.41876 254.61282Q570.2469 254.45657 570.0125 254.37845Q569.79376 254.30032 569.5125 254.30032Q569.0125 254.30032 568.7 254.5347Q568.3875 254.76907 568.2 255.19095Q568.02814 255.5972 567.96564 256.14407Q567.90314 256.69095 567.90314 257.33157Q567.90314 258.17532 567.98126 258.76907Q568.075 259.36282 568.2625 259.73782Q568.46564 260.11282 568.7625 260.2847Q569.0594 260.45657 569.48126 260.45657Q569.8094 260.45657 570.04376 260.36282Q570.29376 260.25345 570.46564 260.06595Q570.65314 259.86282 570.7625 259.58157Q570.8875 259.30032 570.95 258.9722Q571.02814 258.64407 571.0594 258.25345Q571.09064 257.86282 571.09064 257.44095ZM576.1375 255.45657Q576.1375 255.9097 576.02814 256.2847Q575.9344 256.64407 575.73126 256.9097Q575.52814 257.17532 575.21564 257.33157Q574.90314 257.4722 574.48126 257.4722Q574.04376 257.4722 573.73126 257.33157Q573.4344 257.19095 573.2469 256.94095Q573.0594 256.69095 572.96564 256.33157Q572.8719 255.95657 572.8719 255.48782Q572.8719 255.05032 572.96564 254.69095Q573.0594 254.33157 573.2625 254.06595Q573.46564 253.80032 573.77814 253.6597Q574.09064 253.50345 574.5125 253.50345Q574.98126 253.50345 575.29376 253.6597Q575.60626 253.81595 575.79376 254.08157Q575.98126 254.3472 576.0594 254.70657Q576.1375 255.06595 576.1375 255.45657ZM575.3094 255.48782Q575.3094 255.1597 575.2625 254.9097Q575.21564 254.6597 575.1219 254.48782Q575.02814 254.31595 574.8719 254.23782Q574.71564 254.14407 574.4969 254.14407Q574.29376 254.14407 574.1375 254.2222Q573.98126 254.30032 573.8875 254.4722Q573.79376 254.62845 573.7469 254.87845Q573.7 255.12845 573.7 255.45657Q573.7 255.8472 573.7469 256.11282Q573.8094 256.37845 573.90314 256.5347Q574.0125 256.69095 574.16876 256.75345Q574.325 256.81595 574.52814 256.81595Q574.7625 256.81595 574.90314 256.73782Q575.0594 256.64407 575.15314 256.4722Q575.2469 256.30032 575.27814 256.05032Q575.3094 255.80032 575.3094 255.48782ZM580.60626 259.25345Q580.60626 259.70657 580.4969 260.08157Q580.40314 260.44095 580.2 260.70657Q579.9969 260.9722 579.6844 261.12845Q579.3719 261.26907 578.95 261.26907Q578.5125 261.26907 578.2 261.12845Q577.90314 260.98782 577.71564 260.73782Q577.52814 260.48782 577.4344 260.12845Q577.34064 259.75345 577.34064 259.2847Q577.34064 258.8472 577.4344 258.48782Q577.52814 258.12845 577.73126 257.86282Q577.9344 257.5972 578.2469 257.45657Q578.5594 257.30032 578.98126 257.30032Q579.45 257.30032 579.7625 257.45657Q580.075 257.61282 580.2625 257.87845Q580.45 258.14407 580.52814 258.50345Q580.60626 258.86282 580.60626 259.25345ZM579.77814 259.2847Q579.77814 258.95657 579.73126 258.70657Q579.6844 258.45657 579.59064 258.2847Q579.4969 258.11282 579.34064 258.0347Q579.1844 257.94095 578.96564 257.94095Q578.7625 257.94095 578.60626 258.01907Q578.45 258.0972 578.35626 258.26907Q578.2625 258.42532 578.21564 258.67532Q578.16876 258.92532 578.16876 259.25345Q578.16876 259.64407 578.21564 259.9097Q578.27814 260.17532 578.3719 260.33157Q578.48126 260.48782 578.6375 260.55032Q578.79376 260.61282 578.9969 260.61282Q579.23126 260.61282 579.3719 260.5347Q579.52814 260.44095 579.6219 260.26907Q579.71564 260.0972 579.7469 259.8472Q579.77814 259.5972 579.77814 259.2847ZM574.48126 261.2222Q574.45 261.26907 574.40314 261.30032Q574.3719 261.33157 574.3094 261.3472Q574.2625 261.36282 574.16876 261.37845Q574.09064 261.39407 573.98126 261.39407Q573.84064 261.39407 573.7625 261.36282Q573.6844 261.3472 573.65314 261.30032Q573.6219 261.26907 573.6219 261.20657Q573.6375 261.14407 573.6844 261.08157L578.96564 253.5347Q578.9969 253.48782 579.02814 253.45657Q579.075 253.4097 579.1375 253.39407Q579.2 253.37845 579.27814 253.37845Q579.35626 253.36282 579.48126 253.36282Q579.60626 253.36282 579.6844 253.39407Q579.7625 253.4097 579.79376 253.45657Q579.825 253.48782 579.8094 253.55032Q579.8094 253.5972 579.7625 253.67532L574.48126 261.2222Z" fill-rule="nonzero"/><path stroke="#757575" stroke-width="1.0" stroke-linecap="butt" d="M581.45 250.67532L454.76666 250.67532L414.33704 250.67532" fill-rule="nonzero"/><path fill="#9e9e9e" d="M416.33704 250.67532C416.33704 249.57076 415.4416 248.67532 414.33704 248.67532C413.23245 248.67532 412.33704 249.57076 412.33704 250.67532C412.33704 251.7799 413.23245 252.67532 414.33704 252.67532C415.4416 252.67532 416.33704 251.7799 416.33704 250.67532" fill-rule="nonzero"/><path fill="#757575" d="M20.409374 37.55L20.409374 23.2375L22.315624 23.2375L22.315624 37.55L20.409374 37.55ZM25.159374 34.45625L26.909374 34.175Q27.05 35.221874 27.721874 35.784374Q28.39375 36.33125 29.596874 36.33125Q30.8 36.33125 31.378124 35.846874Q31.971874 35.346874 31.971874 34.690624Q31.971874 34.096874 31.45625 33.753124Q31.096874 33.51875 29.659374 33.159374Q27.721874 32.659374 26.971874 32.315624Q26.2375 31.95625 25.846874 31.33125Q25.45625 30.690624 25.45625 29.925Q25.45625 29.2375 25.76875 28.64375Q26.096874 28.05 26.64375 27.659374Q27.05 27.3625 27.753124 27.159374Q28.471874 26.940624 29.284374 26.940624Q30.503124 26.940624 31.425 27.3Q32.346874 27.64375 32.784374 28.253124Q33.221874 28.846874 33.39375 29.846874L31.675 30.08125Q31.55 29.284374 30.9875 28.846874Q30.425 28.39375 29.409374 28.39375Q28.190624 28.39375 27.675 28.8Q27.159374 29.190624 27.159374 29.721874Q27.159374 30.065624 27.378124 30.346874Q27.58125 30.628124 28.05 30.815624Q28.315624 30.909374 29.596874 31.253124Q31.471874 31.753124 32.20625 32.08125Q32.940624 32.39375 33.3625 33.003124Q33.784374 33.596874 33.784374 34.503124Q33.784374 35.378124 33.26875 36.159374Q32.753124 36.940624 31.784374 37.3625Q30.815624 37.784374 29.596874 37.784374Q27.58125 37.784374 26.51875 36.940624Q25.45625 36.096874 25.159374 34.45625ZM45.70625 35.971874L45.95625 37.534374Q45.221874 37.690624 44.628124 37.690624Q43.675 37.690624 43.14375 37.39375Q42.628124 37.08125 42.409374 36.596874Q42.190624 36.096874 42.190624 34.51875L42.190624 28.55L40.909374 28.55L40.909374 27.175L42.190624 27.175L42.190624 24.6125L43.940624 23.55L43.940624 27.175L45.70625 27.175L45.70625 28.55L43.940624 28.55L43.940624 34.6125Q43.940624 35.3625 44.034374 35.58125Q44.128124 35.784374 44.33125 35.925Q44.55 36.05 44.940624 36.05Q45.221874 36.05 45.70625 35.971874ZM47.8625 37.55L47.8625 23.2375L49.628124 23.2375L49.628124 28.3625Q50.8625 26.940624 52.7375 26.940624Q53.878124 26.940624 54.721874 27.39375Q55.58125 27.846874 55.940624 28.659374Q56.315624 29.45625 56.315624 30.971874L56.315624 37.55L54.565624 37.55L54.565624 30.971874Q54.565624 29.659374 53.9875 29.065624Q53.409374 28.45625 52.378124 28.45625Q51.596874 28.45625 50.89375 28.8625Q50.20625 29.26875 49.909374 29.971874Q49.628124 30.659374 49.628124 31.878124L49.628124 37.55L47.8625 37.55ZM64.97188 34.20625L66.78438 34.440624Q66.3625 36.01875 65.19063 36.909374Q64.03438 37.784374 62.221874 37.784374Q59.95625 37.784374 58.6125 36.39375Q57.284374 34.9875 57.284374 32.45625Q57.284374 29.83125 58.628124 28.39375Q59.971874 26.940624 62.128124 26.940624Q64.20625 26.940624 65.51875 28.3625Q66.84688 29.76875 66.84688 32.346874Q66.84688 32.503124 66.83125 32.815624L59.096874 32.815624Q59.190624 34.51875 60.065624 35.425Q60.940624 36.33125 62.2375 36.33125Q63.20625 36.33125 63.878124 35.83125Q64.56563 35.315624 64.97188 34.20625ZM59.190624 31.3625L64.9875 31.3625Q64.87813 30.065624 64.33125 29.409374Q63.4875 28.39375 62.14375 28.39375Q60.940624 28.39375 60.1125 29.20625Q59.284374 30.003124 59.190624 31.3625ZM74.8625 41.51875L74.8625 27.175L76.47188 27.175L76.47188 28.51875Q77.03438 27.7375 77.7375 27.346874Q78.45625 26.940624 79.47188 26.940624Q80.8 26.940624 81.81563 27.628124Q82.83125 28.315624 83.34688 29.565624Q83.87813 30.8 83.87813 32.284374Q83.87813 33.878124 83.3 35.159374Q82.7375 36.425 81.64375 37.1125Q80.55 37.784374 79.34688 37.784374Q78.47188 37.784374 77.76875 37.409374Q77.08125 37.034374 76.62813 36.471874L76.62813 41.51875L74.8625 41.51875ZM76.45625 32.425Q76.45625 34.425 77.26875 35.378124Q78.08125 36.33125 79.2375 36.33125Q80.40938 36.33125 81.2375 35.346874Q82.08125 34.3625 82.08125 32.26875Q82.08125 30.3 81.25313 29.315624Q80.44063 28.315624 79.31563 28.315624Q78.19063 28.315624 77.31563 29.378124Q76.45625 30.425 76.45625 32.425ZM85.84688 37.55L85.84688 27.175L87.425 27.175L87.425 28.753124Q88.03438 27.64375 88.55 27.3Q89.06563 26.940624 89.675 26.940624Q90.56563 26.940624 91.4875 27.503124L90.87813 29.14375Q90.2375 28.753124 89.59688 28.753124Q89.01875 28.753124 88.55 29.1125Q88.09688 29.45625 87.89375 30.065624Q87.6125 31.003124 87.6125 32.1125L87.6125 37.55L85.84688 37.55ZM92.87813 25.253124L92.87813 23.2375L94.64375 23.2375L94.64375 25.253124L92.87813 25.253124ZM92.87813 37.55L92.87813 27.175L94.64375 27.175L94.64375 37.55L92.87813 37.55ZM99.75313 37.55L95.8 27.175L97.65938 27.175L99.89375 33.39375Q100.25313 34.39375 100.55 35.471874Q100.78438 34.659374 101.20625 33.503124L103.50313 27.175L105.31563 27.175L101.39375 37.55L99.75313 37.55ZM112.64375 36.26875Q111.65938 37.096874 110.75313 37.440624Q109.84688 37.784374 108.81563 37.784374Q107.1125 37.784374 106.19063 36.95625Q105.26875 36.1125 105.26875 34.815624Q105.26875 34.05 105.6125 33.425Q105.97188 32.8 106.53438 32.425Q107.09688 32.034374 107.8 31.83125Q108.31563 31.70625 109.3625 31.565624Q111.4875 31.315624 112.4875 30.971874Q112.50313 30.6125 112.50313 30.503124Q112.50313 29.440624 112.00313 28.9875Q111.33125 28.39375 110.00313 28.39375Q108.75313 28.39375 108.15938 28.83125Q107.58125 29.26875 107.3 30.378124L105.58125 30.14375Q105.81563 29.034374 106.34688 28.3625Q106.87813 27.675 107.89375 27.315624Q108.90938 26.940624 110.25313 26.940624Q111.58125 26.940624 112.40938 27.253124Q113.2375 27.565624 113.62813 28.05Q114.01875 28.51875 114.175 29.2375Q114.26875 29.690624 114.26875 30.8625L114.26875 33.20625Q114.26875 35.659374 114.37813 36.315624Q114.4875 36.95625 114.83125 37.55L112.9875 37.55Q112.72188 37.003124 112.64375 36.26875ZM112.4875 32.346874Q111.53438 32.7375 109.6125 33.003124Q108.53438 33.159374 108.08125 33.3625Q107.64375 33.55 107.39375 33.925Q107.14375 34.3 107.14375 34.76875Q107.14375 35.471874 107.675 35.940624Q108.20625 36.409374 109.2375 36.409374Q110.25313 36.409374 111.03438 35.971874Q111.83125 35.51875 112.20625 34.753124Q112.4875 34.14375 112.4875 32.9875L112.4875 32.346874ZM123.64375 33.753124L125.3625 33.971874Q125.08125 35.76875 123.90938 36.784374Q122.75313 37.784374 121.05 37.784374Q118.925 37.784374 117.62813 36.39375Q116.33125 35.003124 116.33125 32.409374Q116.33125 30.721874 116.87813 29.471874Q117.44063 28.20625 118.58125 27.58125Q119.72188 26.940624 121.06563 26.940624Q122.75313 26.940624 123.81563 27.8Q124.89375 28.659374 125.20625 30.221874L123.4875 30.4875Q123.25313 29.440624 122.62813 28.925Q122.00313 28.39375 121.12813 28.39375Q119.8 28.39375 118.97188 29.346874Q118.14375 30.3 118.14375 32.346874Q118.14375 34.440624 118.94063 35.39375Q119.7375 36.33125 121.03438 36.33125Q122.06563 36.33125 122.75313 35.70625Q123.45625 35.065624 123.64375 33.753124ZM126.78438 41.55L126.59688 39.89375Q127.175 40.05 127.59688 40.05Q128.19063 40.05 128.53438 39.846874Q128.89375 39.659374 129.1125 39.315624Q129.28438 39.05 129.65938 38.003124Q129.70625 37.846874 129.81563 37.565624L125.87813 27.175L127.76875 27.175L129.925 33.190624Q130.34688 34.33125 130.675 35.58125Q130.9875 34.378124 131.39375 33.221874L133.6125 27.175L135.37813 27.175L131.425 37.721874Q130.8 39.440624 130.44063 40.08125Q129.97188 40.95625 129.3625 41.346874Q128.76875 41.753124 127.925 41.753124Q127.40938 41.753124 126.78438 41.55ZM142.8625 41.51875L142.8625 27.175L144.47188 27.175L144.47188 28.51875Q145.03438 27.7375 145.7375 27.346874Q146.45625 26.940624 147.47188 26.940624Q148.8 26.940624 149.81563 27.628124Q150.83125 28.315624 151.34688 29.565624Q151.87813 30.8 151.87813 32.284374Q151.87813 33.878124 151.3 35.159374Q150.7375 36.425 149.64375 37.1125Q148.55 37.784374 147.34688 37.784374Q146.47188 37.784374 145.76875 37.409374Q145.08125 37.034374 144.62813 36.471874L144.62813 41.51875L142.8625 41.51875ZM144.45625 32.425Q144.45625 34.425 145.26875 35.378124Q146.08125 36.33125 147.2375 36.33125Q148.40938 36.33125 149.2375 35.346874Q150.08125 34.3625 150.08125 32.26875Q150.08125 30.3 149.25313 29.315624Q148.44063 28.315624 147.31563 28.315624Q146.19063 28.315624 145.31563 29.378124Q144.45625 30.425 144.45625 32.425ZM153.22188 32.3625Q153.22188 29.4875 154.81563 28.096874Q156.15938 26.940624 158.08125 26.940624Q160.22188 26.940624 161.56563 28.346874Q162.925 29.753124 162.925 32.221874Q162.925 34.221874 162.33125 35.378124Q161.7375 36.51875 160.58125 37.159374Q159.44063 37.784374 158.08125 37.784374Q155.89375 37.784374 154.55 36.39375Q153.22188 34.9875 153.22188 32.3625ZM155.01875 32.3625Q155.01875 34.3625 155.87813 35.346874Q156.75313 36.33125 158.08125 36.33125Q159.39375 36.33125 160.25313 35.346874Q161.12813 34.346874 161.12813 32.3Q161.12813 30.378124 160.25313 29.39375Q159.37813 28.39375 158.08125 28.39375Q156.75313 28.39375 155.87813 29.39375Q155.01875 30.378124 155.01875 32.3625ZM164.83125 37.55L164.83125 23.2375L166.58125 23.2375L166.58125 37.55L164.83125 37.55ZM168.87813 25.253124L168.87813 23.2375L170.64375 23.2375L170.64375 25.253124L168.87813 25.253124ZM168.87813 37.55L168.87813 27.175L170.64375 27.175L170.64375 37.55L168.87813 37.55ZM179.64375 33.753124L181.3625 33.971874Q181.08125 35.76875 179.90938 36.784374Q178.75313 37.784374 177.05 37.784374Q174.925 37.784374 173.62813 36.39375Q172.33125 35.003124 172.33125 32.409374Q172.33125 30.721874 172.87813 29.471874Q173.44063 28.20625 174.58125 27.58125Q175.72188 26.940624 177.06563 26.940624Q178.75313 26.940624 179.81563 27.8Q180.89375 28.659374 181.20625 30.221874L179.4875 30.4875Q179.25313 29.440624 178.62813 28.925Q178.00313 28.39375 177.12813 28.39375Q175.8 28.39375 174.97188 29.346874Q174.14375 30.3 174.14375 32.346874Q174.14375 34.440624 174.94063 35.39375Q175.7375 36.33125 177.03438 36.33125Q178.06563 36.33125 178.75313 35.70625Q179.45625 35.065624 179.64375 33.753124ZM182.78438 41.55L182.59688 39.89375Q183.175 40.05 183.59688 40.05Q184.19063 40.05 184.53438 39.846874Q184.89375 39.659374 185.1125 39.315624Q185.28438 39.05 185.65938 38.003124Q185.70625 37.846874 185.81563 37.565624L181.87813 27.175L183.76875 27.175L185.925 33.190624Q186.34688 34.33125 186.675 35.58125Q186.9875 34.378124 187.39375 33.221874L189.6125 27.175L191.37813 27.175L187.425 37.721874Q186.8 39.440624 186.44063 40.08125Q185.97188 40.95625 185.3625 41.346874Q184.76875 41.753124 183.925 41.753124Q183.40938 41.753124 182.78438 41.55ZM205.97188 34.20625L207.78438 34.440624Q207.3625 36.01875 206.19063 36.909374Q205.03438 37.784374 203.22188 37.784374Q200.95625 37.784374 199.6125 36.39375Q198.28438 34.9875 198.28438 32.45625Q198.28438 29.83125 199.62813 28.39375Q200.97188 26.940624 203.12813 26.940624Q205.20625 26.940624 206.51875 28.3625Q207.84688 29.76875 207.84688 32.346874Q207.84688 32.503124 207.83125 32.815624L200.09688 32.815624Q200.19063 34.51875 201.06563 35.425Q201.94063 36.33125 203.2375 36.33125Q204.20625 36.33125 204.87813 35.83125Q205.56563 35.315624 205.97188 34.20625ZM200.19063 31.3625L205.9875 31.3625Q205.87813 30.065624 205.33125 29.409374Q204.4875 28.39375 203.14375 28.39375Q201.94063 28.39375 201.1125 29.20625Q200.28438 30.003124 200.19063 31.3625ZM216.64375 36.26875Q215.65938 37.096874 214.75313 37.440624Q213.84688 37.784374 212.81563 37.784374Q211.1125 37.784374 210.19063 36.95625Q209.26875 36.1125 209.26875 34.815624Q209.26875 34.05 209.6125 33.425Q209.97188 32.8 210.53438 32.425Q211.09688 32.034374 211.8 31.83125Q212.31563 31.70625 213.3625 31.565624Q215.4875 31.315624 216.4875 30.971874Q216.50313 30.6125 216.50313 30.503124Q216.50313 29.440624 216.00313 28.9875Q215.33125 28.39375 214.00313 28.39375Q212.75313 28.39375 212.15938 28.83125Q211.58125 29.26875 211.3 30.378124L209.58125 30.14375Q209.81563 29.034374 210.34688 28.3625Q210.87813 27.675 211.89375 27.315624Q212.90938 26.940624 214.25313 26.940624Q215.58125 26.940624 216.40938 27.253124Q217.2375 27.565624 217.62813 28.05Q218.01875 28.51875 218.175 29.2375Q218.26875 29.690624 218.26875 30.8625L218.26875 33.20625Q218.26875 35.659374 218.37813 36.315624Q218.4875 36.95625 218.83125 37.55L216.9875 37.55Q216.72188 37.003124 216.64375 36.26875ZM216.4875 32.346874Q215.53438 32.7375 213.6125 33.003124Q212.53438 33.159374 212.08125 33.3625Q211.64375 33.55 211.39375 33.925Q211.14375 34.3 211.14375 34.76875Q211.14375 35.471874 211.675 35.940624Q212.20625 36.409374 213.2375 36.409374Q214.25313 36.409374 215.03438 35.971874Q215.83125 35.51875 216.20625 34.753124Q216.4875 34.14375 216.4875 32.9875L216.4875 32.346874ZM220.15938 34.45625L221.90938 34.175Q222.05 35.221874 222.72188 35.784374Q223.39375 36.33125 224.59688 36.33125Q225.8 36.33125 226.37813 35.846874Q226.97188 35.346874 226.97188 34.690624Q226.97188 34.096874 226.45625 33.753124Q226.09688 33.51875 224.65938 33.159374Q222.72188 32.659374 221.97188 32.315624Q221.2375 31.95625 220.84688 31.33125Q220.45625 30.690624 220.45625 29.925Q220.45625 29.2375 220.76875 28.64375Q221.09688 28.05 221.64375 27.659374Q222.05 27.3625 222.75313 27.159374Q223.47188 26.940624 224.28438 26.940624Q225.50313 26.940624 226.425 27.3Q227.34688 27.64375 227.78438 28.253124Q228.22188 28.846874 228.39375 29.846874L226.675 30.08125Q226.55 29.284374 225.9875 28.846874Q225.425 28.39375 224.40938 28.39375Q223.19063 28.39375 222.675 28.8Q222.15938 29.190624 222.15938 29.721874Q222.15938 30.065624 222.37813 30.346874Q222.58125 30.628124 223.05 30.815624Q223.31563 30.909374 224.59688 31.253124Q226.47188 31.753124 227.20625 32.08125Q227.94063 32.39375 228.3625 33.003124Q228.78438 33.596874 228.78438 34.503124Q228.78438 35.378124 228.26875 36.159374Q227.75313 36.940624 226.78438 37.3625Q225.81563 37.784374 224.59688 37.784374Q222.58125 37.784374 221.51875 36.940624Q220.45625 36.096874 220.15938 34.45625ZM230.87813 25.253124L230.87813 23.2375L232.64375 23.2375L232.64375 25.253124L230.87813 25.253124ZM230.87813 37.55L230.87813 27.175L232.64375 27.175L232.64375 37.55L230.87813 37.55ZM234.83125 37.55L234.83125 23.2375L236.58125 23.2375L236.58125 37.55L234.83125 37.55ZM238.78438 41.55L238.59688 39.89375Q239.175 40.05 239.59688 40.05Q240.19063 40.05 240.53438 39.846874Q240.89375 39.659374 241.1125 39.315624Q241.28438 39.05 241.65938 38.003124Q241.70625 37.846874 241.81563 37.565624L237.87813 27.175L239.76875 27.175L241.925 33.190624Q242.34688 34.33125 242.675 35.58125Q242.9875 34.378124 243.39375 33.221874L245.6125 27.175L247.37813 27.175L243.425 37.721874Q242.8 39.440624 242.44063 40.08125Q241.97188 40.95625 241.3625 41.346874Q240.76875 41.753124 239.925 41.753124Q239.40938 41.753124 238.78438 41.55ZM261.64374 36.26875Q260.65936 37.096874 259.7531 37.440624Q258.84686 37.784374 257.8156 37.784374Q256.1125 37.784374 255.19063 36.95625Q254.26875 36.1125 254.26875 34.815624Q254.26875 34.05 254.6125 33.425Q254.97188 32.8 255.53438 32.425Q256.09686 32.034374 256.8 31.83125Q257.3156 31.70625 258.3625 31.565624Q260.4875 31.315624 261.4875 30.971874Q261.5031 30.6125 261.5031 30.503124Q261.5031 29.440624 261.0031 28.9875Q260.33124 28.39375 259.0031 28.39375Q257.7531 28.39375 257.15936 28.83125Q256.58124 29.26875 256.3 30.378124L254.58125 30.14375Q254.81563 29.034374 255.34688 28.3625Q255.87813 27.675 256.89374 27.315624Q257.90936 26.940624 259.2531 26.940624Q260.58124 26.940624 261.40936 27.253124Q262.2375 27.565624 262.6281 28.05Q263.01874 28.51875 263.175 29.2375Q263.26874 29.690624 263.26874 30.8625L263.26874 33.20625Q263.26874 35.659374 263.3781 36.315624Q263.4875 36.95625 263.83124 37.55L261.9875 37.55Q261.72186 37.003124 261.64374 36.26875ZM261.4875 32.346874Q260.53436 32.7375 258.6125 33.003124Q257.53436 33.159374 257.08124 33.3625Q256.64374 33.55 256.39374 33.925Q256.14374 34.3 256.14374 34.76875Q256.14374 35.471874 256.675 35.940624Q257.20624 36.409374 258.2375 36.409374Q259.2531 36.409374 260.03436 35.971874Q260.83124 35.51875 261.20624 34.753124Q261.4875 34.14375 261.4875 32.9875L261.4875 32.346874ZM272.64374 33.753124L274.3625 33.971874Q274.08124 35.76875 272.90936 36.784374Q271.7531 37.784374 270.05 37.784374Q267.925 37.784374 266.6281 36.39375Q265.33124 35.003124 265.33124 32.409374Q265.33124 30.721874 265.8781 29.471874Q266.4406 28.20625 267.58124 27.58125Q268.72186 26.940624 270.0656 26.940624Q271.7531 26.940624 272.8156 27.8Q273.89374 28.659374 274.20624 30.221874L272.4875 30.4875Q272.2531 29.440624 271.6281 28.925Q271.0031 28.39375 270.1281 28.39375Q268.8 28.39375 267.97186 29.346874Q267.14374 30.3 267.14374 32.346874Q267.14374 34.440624 267.9406 35.39375Q268.7375 36.33125 270.03436 36.33125Q271.0656 36.33125 271.7531 35.70625Q272.45624 35.065624 272.64374 33.753124ZM282.64374 33.753124L284.3625 33.971874Q284.08124 35.76875 282.90936 36.784374Q281.7531 37.784374 280.05 37.784374Q277.925 37.784374 276.6281 36.39375Q275.33124 35.003124 275.33124 32.409374Q275.33124 30.721874 275.8781 29.471874Q276.4406 28.20625 277.58124 27.58125Q278.72186 26.940624 280.0656 26.940624Q281.7531 26.940624 282.8156 27.8Q283.89374 28.659374 284.20624 30.221874L282.4875 30.4875Q282.2531 29.440624 281.6281 28.925Q281.0031 28.39375 280.1281 28.39375Q278.8 28.39375 277.97186 29.346874Q277.14374 30.3 277.14374 32.346874Q277.14374 34.440624 277.9406 35.39375Q278.7375 36.33125 280.03436 36.33125Q281.0656 36.33125 281.7531 35.70625Q282.45624 35.065624 282.64374 33.753124ZM292.97186 34.20625L294.78436 34.440624Q294.3625 36.01875 293.1906 36.909374Q292.03436 37.784374 290.22186 37.784374Q287.95624 37.784374 286.6125 36.39375Q285.28436 34.9875 285.28436 32.45625Q285.28436 29.83125 286.6281 28.39375Q287.97186 26.940624 290.1281 26.940624Q292.20624 26.940624 293.51874 28.3625Q294.84686 29.76875 294.84686 32.346874Q294.84686 32.503124 294.83124 32.815624L287.09686 32.815624Q287.1906 34.51875 288.0656 35.425Q288.9406 36.33125 290.2375 36.33125Q291.20624 36.33125 291.8781 35.83125Q292.5656 35.315624 292.97186 34.20625ZM287.1906 31.3625L292.9875 31.3625Q292.8781 30.065624 292.33124 29.409374Q291.4875 28.39375 290.14374 28.39375Q288.9406 28.39375 288.1125 29.20625Q287.28436 30.003124 287.1906 31.3625ZM296.15936 34.45625L297.90936 34.175Q298.05 35.221874 298.72186 35.784374Q299.39374 36.33125 300.59686 36.33125Q301.8 36.33125 302.3781 35.846874Q302.97186 35.346874 302.97186 34.690624Q302.97186 34.096874 302.45624 33.753124Q302.09686 33.51875 300.65936 33.159374Q298.72186 32.659374 297.97186 32.315624Q297.2375 31.95625 296.84686 31.33125Q296.45624 30.690624 296.45624 29.925Q296.45624 29.2375 296.76874 28.64375Q297.09686 28.05 297.64374 27.659374Q298.05 27.3625 298.7531 27.159374Q299.47186 26.940624 300.28436 26.940624Q301.5031 26.940624 302.425 27.3Q303.34686 27.64375 303.78436 28.253124Q304.22186 28.846874 304.39374 29.846874L302.675 30.08125Q302.55 29.284374 301.9875 28.846874Q301.425 28.39375 300.40936 28.39375Q299.1906 28.39375 298.675 28.8Q298.15936 29.190624 298.15936 29.721874Q298.15936 30.065624 298.3781 30.346874Q298.58124 30.628124 299.05 30.815624Q299.3156 30.909374 300.59686 31.253124Q302.47186 31.753124 303.20624 32.08125Q303.9406 32.39375 304.3625 33.003124Q304.78436 33.596874 304.78436 34.503124Q304.78436 35.378124 304.26874 36.159374Q303.7531 36.940624 302.78436 37.3625Q301.8156 37.784374 300.59686 37.784374Q298.58124 37.784374 297.51874 36.940624Q296.45624 36.096874 296.15936 34.45625ZM306.8781 25.253124L306.8781 23.2375L308.64374 23.2375L308.64374 25.253124L306.8781 25.253124ZM306.8781 37.55L306.8781 27.175L308.64374 27.175L308.64374 37.55L306.8781 37.55ZM312.4875 37.55L310.8625 37.55L310.8625 23.2375L312.6125 23.2375L312.6125 28.346874Q313.7375 26.940624 315.45624 26.940624Q316.40936 26.940624 317.26874 27.33125Q318.1281 27.721874 318.675 28.425Q319.22186 29.1125 319.53436 30.096874Q319.84686 31.08125 319.84686 32.20625Q319.84686 34.878124 318.53436 36.33125Q317.22186 37.784374 315.3781 37.784374Q313.53436 37.784374 312.4875 36.253124L312.4875 37.55ZM312.47186 32.284374Q312.47186 34.14375 312.97186 34.9875Q313.8156 36.33125 315.22186 36.33125Q316.3781 36.33125 317.20624 35.33125Q318.05 34.33125 318.05 32.346874Q318.05 30.315624 317.2375 29.3625Q316.4406 28.39375 315.3 28.39375Q314.14374 28.39375 313.3 29.39375Q312.47186 30.39375 312.47186 32.284374ZM321.83124 37.55L321.83124 23.2375L323.58124 23.2375L323.58124 37.55L321.83124 37.55ZM332.97186 34.20625L334.78436 34.440624Q334.3625 36.01875 333.1906 36.909374Q332.03436 37.784374 330.22186 37.784374Q327.95624 37.784374 326.6125 36.39375Q325.28436 34.9875 325.28436 32.45625Q325.28436 29.83125 326.6281 28.39375Q327.97186 26.940624 330.1281 26.940624Q332.20624 26.940624 333.51874 28.3625Q334.84686 29.76875 334.84686 32.346874Q334.84686 32.503124 334.83124 32.815624L327.09686 32.815624Q327.1906 34.51875 328.0656 35.425Q328.9406 36.33125 330.2375 36.33125Q331.20624 36.33125 331.8781 35.83125Q332.5656 35.315624 332.97186 34.20625ZM327.1906 31.3625L332.9875 31.3625Q332.8781 30.065624 332.33124 29.409374Q331.4875 28.39375 330.14374 28.39375Q328.9406 28.39375 328.1125 29.20625Q327.28436 30.003124 327.1906 31.3625ZM340.15936 34.01875Q340.14374 33.675 340.14374 33.503124Q340.14374 32.45625 340.4406 31.70625Q340.65936 31.14375 341.14374 30.565624Q341.4875 30.14375 342.39374 29.346874Q343.3156 28.534374 343.58124 28.065624Q343.8625 27.58125 343.8625 27.01875Q343.8625 25.9875 343.05 25.221874Q342.2531 24.440624 341.09686 24.440624Q339.97186 24.440624 339.22186 25.14375Q338.47186 25.846874 338.2375 27.33125L336.425 27.1125Q336.675 25.1125 337.8781 24.05Q339.08124 22.9875 341.0656 22.9875Q343.175 22.9875 344.425 24.128124Q345.675 25.26875 345.675 26.89375Q345.675 27.83125 345.22186 28.628124Q344.78436 29.409374 343.5031 30.55Q342.64374 31.315624 342.3781 31.675Q342.1281 32.034374 341.9875 32.503124Q341.8625 32.971874 341.84686 34.01875L340.15936 34.01875ZM340.05 37.55L340.05 35.55L342.05 35.55L342.05 37.55L340.05 37.55Z" fill-rule="nonzero"/></svg>