<svg version="1.1" viewBox="0.0 0.0 600.0 371.0" fill="none" stroke="none" stroke-linecap="square" stroke-miterlimit="10" width="600" height="371" xmlns:xlink="http://www.w3.org/1999/xlink" xmlns="http://www.w3.org/2000/svg"><path fill="#ffffff" fill-opacity="0.0" d="M0 0L600.0 0L600.0 371.0L0 371.0L0 0Z" fill-rule="nonzero"/><path fill="#474747" d="M291.4969 182.2436C294.27496 181.7443 297.1318 181.49167 300.0 181.49167L300.0 202.00667C297.1318 202.00667 294.27496 202.2593 291.4969 202.7586Z" fill-rule="nonzero"/><path fill="#666666" d="M265.98752 112.69691C277.0999 110.699684 288.52716 109.68916 300.0 109.68916L300.0 181.49167C297.1318 181.49167 294.27496 181.7443 291.4969 182.2436Z" fill-rule="nonzero"/><path fill="#6b6b6b" d="M436.76666 225.94083C436.76666 278.81473 375.53415 321.6775 300.0 321.6775C224.46585 321.6775 163.23334 278.81473 163.23334 225.94083L163.23334 205.42583C163.23334 258.29974 224.46585 301.1625 300.0 301.1625C375.53415 301.1625 436.76666 258.29974 436.76666 205.42583Z" fill-rule="nonzero"/><path fill="#6b6b6b" d="M300.0 181.49167C318.88354 181.49167 334.19168 192.20735 334.19168 205.42583L334.19168 225.94083C334.19168 212.72235 318.88354 202.00667 300.0 202.00667Z" fill-rule="nonzero"/><path fill="#6b6b6b" d="M265.80832 205.42583C265.80832 194.49983 276.3787 184.96078 291.4969 182.2436L291.4969 202.7586C276.3787 205.47578 265.80832 215.01483 265.80832 225.94083Z" fill-rule="nonzero"/><path fill="#999999" d="M300.0 109.68916C372.19968 109.68916 431.96335 148.97444 436.4968 199.41447C441.03024 249.85452 388.77176 294.07327 317.14142 300.4076C245.51105 306.7419 179.18472 273.00967 165.65585 223.3651C152.12698 173.72052 196.05612 125.26564 265.98752 112.69691L291.4969 182.2436C274.01404 185.38579 263.03174 197.49951 266.41397 209.91064C269.79617 222.3218 286.37778 230.75485 304.28534 229.17126C322.19293 227.58769 335.25757 216.533 334.1242 203.92299C332.99084 191.31299 318.04993 181.49167 300.0 181.49167Z" fill-rule="nonzero"/><path fill="#000000" d="M294.04086 276.82397L295.90024 276.62085Q295.96274 277.18335 296.244 277.4646Q296.54086 277.73022 297.0096 277.73022Q297.60336 277.73022 298.0096 277.18335Q298.4315 276.63647 298.5565 274.91772Q297.83774 275.74585 296.744 275.74585Q295.5565 275.74585 294.6971 274.8396Q293.83774 273.93335 293.83774 272.4646Q293.83774 270.93335 294.744 270.01147Q295.65024 269.07397 297.0565 269.07397Q298.58774 269.07397 299.5565 270.26147Q300.54086 271.43335 300.54086 274.13647Q300.54086 276.88647 299.5096 278.10522Q298.494 279.30835 296.869 279.30835Q295.6971 279.30835 294.96274 278.68335Q294.244 278.05835 294.04086 276.82397ZM298.3846 272.62085Q298.3846 271.69897 297.9471 271.18335Q297.52524 270.66772 296.96274 270.66772Q296.4315 270.66772 296.0721 271.0896Q295.72836 271.51147 295.72836 272.4646Q295.72836 273.43335 296.10336 273.88647Q296.494 274.3396 297.0721 274.3396Q297.619 274.3396 297.994 273.9021Q298.3846 273.4646 298.3846 272.62085ZM308.5096 271.57397L306.65024 271.7771Q306.5721 271.19897 306.27524 270.93335Q305.994 270.6521 305.54086 270.6521Q304.9315 270.6521 304.5096 271.19897Q304.08774 271.74585 303.97836 273.48022Q304.6971 272.62085 305.77524 272.62085Q306.97836 272.62085 307.8221 273.54272Q308.6815 274.4646 308.6815 275.9021Q308.6815 277.44897 307.77524 278.38647Q306.8846 279.30835 305.46274 279.30835Q303.9471 279.30835 302.96274 278.13647Q301.994 276.94897 301.994 274.26147Q301.994 271.51147 303.0096 270.29272Q304.02524 269.07397 305.66586 269.07397Q306.8065 269.07397 307.54086 269.7146Q308.29086 270.35522 308.5096 271.57397ZM304.15024 275.76147Q304.15024 276.69897 304.5721 277.2146Q305.0096 277.7146 305.5565 277.7146Q306.10336 277.7146 306.4471 277.30835Q306.8065 276.88647 306.8065 275.93335Q306.8065 274.94897 306.41586 274.49585Q306.04086 274.04272 305.46274 274.04272Q304.91586 274.04272 304.52524 274.48022Q304.15024 274.91772 304.15024 275.76147ZM310.40024 279.13647L310.40024 277.2146L312.3221 277.2146L312.3221 279.13647L310.40024 279.13647ZM317.244 269.07397Q318.6971 269.07397 319.52524 270.10522Q320.494 271.3396 320.494 274.19897Q320.494 277.04272 319.5096 278.2771Q318.6971 279.30835 317.244 279.30835Q315.77524 279.30835 314.8846 278.18335Q313.994 277.05835 313.994 274.16772Q313.994 271.3396 314.97836 270.10522Q315.79086 269.07397 317.244 269.07397ZM317.244 270.66772Q316.90024 270.66772 316.619 270.88647Q316.35336 271.10522 316.1971 271.68335Q315.994 272.43335 315.994 274.19897Q315.994 275.9646 316.16586 276.62085Q316.35336 277.2771 316.619 277.49585Q316.90024 277.7146 317.244 277.7146Q317.58774 277.7146 317.85336 277.49585Q318.1346 277.2771 318.29086 276.69897Q318.494 275.9646 318.494 274.19897Q318.494 272.43335 318.3065 271.7771Q318.1346 271.10522 317.85336 270.88647Q317.58774 270.66772 317.244 270.66772ZM322.0096 271.5896Q322.0096 270.24585 322.60336 269.60522Q323.1971 268.94897 324.1971 268.94897Q325.244 268.94897 325.83774 269.5896Q326.4315 270.23022 326.4315 271.5896Q326.4315 272.93335 325.83774 273.5896Q325.244 274.23022 324.244 274.23022Q323.1971 274.23022 322.60336 273.5896Q322.0096 272.94897 322.0096 271.5896ZM323.5096 271.57397Q323.5096 272.55835 323.72836 272.88647Q323.90024 273.13647 324.1971 273.13647Q324.5096 273.13647 324.6815 272.88647Q324.90024 272.55835 324.90024 271.57397Q324.90024 270.60522 324.6815 270.2771Q324.5096 270.01147 324.1971 270.01147Q323.90024 270.01147 323.72836 270.26147Q323.5096 270.60522 323.5096 271.57397ZM325.66586 279.5271L324.244 279.5271L329.58774 268.94897L330.96274 268.94897L325.66586 279.5271ZM328.77524 276.88647Q328.77524 275.54272 329.35336 274.9021Q329.9471 274.24585 330.97836 274.24585Q332.0096 274.24585 332.60336 274.9021Q333.1971 275.54272 333.1971 276.88647Q333.1971 278.24585 332.60336 278.9021Q332.0096 279.54272 330.994 279.54272Q329.9471 279.54272 329.35336 278.9021Q328.77524 278.24585 328.77524 276.88647ZM330.2596 276.88647Q330.2596 277.85522 330.494 278.18335Q330.66586 278.43335 330.96274 278.43335Q331.27524 278.43335 331.4315 278.19897Q331.66586 277.85522 331.66586 276.88647Q331.66586 275.9021 331.4471 275.57397Q331.27524 275.32397 330.96274 275.32397Q330.65024 275.32397 330.494 275.57397Q330.2596 275.9021 330.2596 276.88647Z" fill-rule="nonzero"/><path fill="#1a1a1a" d="M19.471874 110.69317L19.471874 102.09942L20.628124 102.09942L25.14375 108.84942L25.14375 102.09942L26.2375 102.09942L26.2375 110.69317L25.065624 110.69317L20.55 103.94317L20.55 110.69317L19.471874 110.69317ZM27.95625 107.58379Q27.95625 105.84942 28.909374 105.02129Q29.70625 104.33379 30.8625 104.33379Q32.14375 104.33379 32.95625 105.17754Q33.784374 106.00567 33.784374 107.49004Q33.784374 108.69317 33.425 109.38067Q33.065624 110.06817 32.3625 110.45879Q31.675 110.83379 30.8625 110.83379Q29.565624 110.83379 28.753124 110.00567Q27.95625 109.16192 27.95625 107.58379ZM29.034374 107.58379Q29.034374 108.77129 29.55 109.36504Q30.08125 109.95879 30.8625 109.95879Q31.659374 109.95879 32.175 109.36504Q32.690624 108.77129 32.690624 107.55254Q32.690624 106.39629 32.159374 105.80254Q31.64375 105.20879 30.8625 105.20879Q30.08125 105.20879 29.55 105.80254Q29.034374 106.38067 29.034374 107.58379Z" fill-rule="nonzero"/><path fill="#9e9e9e" d="M22.425 127.69317L22.425 125.63067L18.70625 125.63067L18.70625 124.66192L22.628124 119.09942L23.4875 119.09942L23.4875 124.66192L24.64375 124.66192L24.64375 125.63067L23.4875 125.63067L23.4875 127.69317L22.425 127.69317ZM22.425 124.66192L22.425 120.80254L19.7375 124.66192L22.425 124.66192ZM26.64375 127.69317L26.64375 126.49004L27.846874 126.49004L27.846874 127.69317L26.64375 127.69317ZM29.05 123.45879Q29.05 121.92754 29.3625 121.00567Q29.675 120.06817 30.284374 119.56817Q30.909374 119.06817 31.846874 119.06817Q32.534374 119.06817 33.05 119.34942Q33.58125 119.63067 33.925 120.16192Q34.26875 120.67754 34.45625 121.42754Q34.64375 122.17754 34.64375 123.45879Q34.64375 124.97442 34.33125 125.89629Q34.034374 126.81817 33.409374 127.33379Q32.8 127.83379 31.846874 127.83379Q30.6125 127.83379 29.89375 126.94317Q29.05 125.88067 29.05 123.45879ZM30.128124 123.45879Q30.128124 125.56817 30.628124 126.27129Q31.128124 126.97442 31.846874 126.97442Q32.58125 126.97442 33.065624 126.27129Q33.565624 125.56817 33.565624 123.45879Q33.565624 121.33379 33.065624 120.64629Q32.58125 119.94317 31.83125 119.94317Q31.1125 119.94317 30.675 120.55254Q30.128124 121.33379 30.128124 123.45879ZM36.253124 121.16192Q36.253124 120.24004 36.70625 119.59942Q37.175 118.95879 38.05 118.95879Q38.8625 118.95879 39.39375 119.53692Q39.925 120.11504 39.925 121.22442Q39.925 122.31817 39.378124 122.91192Q38.846874 123.49004 38.065624 123.49004Q37.284374 123.49004 36.76875 122.91192Q36.253124 122.33379 36.253124 121.16192ZM38.08125 119.67754Q37.690624 119.67754 37.425 120.02129Q37.175 120.36504 37.175 121.27129Q37.175 122.09942 37.425 122.44317Q37.690624 122.77129 38.08125 122.77129Q38.4875 122.77129 38.7375 122.42754Q39.003124 122.08379 39.003124 121.19317Q39.003124 120.34942 38.7375 120.02129Q38.471874 119.67754 38.08125 119.67754ZM38.08125 128.00568L42.784374 118.95879L43.64375 118.95879L38.95625 128.00568L38.08125 128.00568ZM41.8 125.67754Q41.8 124.75567 42.253124 124.11504Q42.721874 123.47442 43.6125 123.47442Q44.425 123.47442 44.95625 124.05254Q45.4875 124.61504 45.4875 125.74004Q45.4875 126.83379 44.940624 127.42754Q44.409374 128.00568 43.6125 128.00568Q42.846874 128.00568 42.315624 127.42754Q41.8 126.84942 41.8 125.67754ZM43.64375 124.19317Q43.2375 124.19317 42.971874 124.53692Q42.721874 124.88067 42.721874 125.78692Q42.721874 126.59942 42.9875 126.94317Q43.253124 127.28692 43.64375 127.28692Q44.034374 127.28692 44.3 126.94317Q44.565624 126.59942 44.565624 125.69317Q44.565624 124.86504 44.3 124.53692Q44.034374 124.19317 43.64375 124.19317Z" fill-rule="nonzero"/><path stroke="#757575" stroke-width="1.0" stroke-linecap="butt" d="M18.55 115.19317L157.23334 115.19317L283.71567 115.19317" fill-rule="nonzero"/><path fill="#9e9e9e" d="M285.71567 115.19317C285.71567 114.0886 284.82022 113.19317 283.71567 113.19317C282.61108 113.19317 281.71567 114.0886 281.71567 115.19317C281.71567 116.29774 282.61108 117.19317 283.71567 117.19317C284.82022 117.19317 285.71567 116.29774 285.71567 115.19317" fill-rule="nonzero"/><path fill="#1a1a1a" d="M563.79376 291.1585L563.79376 287.51788L560.48126 282.56476L561.8719 282.56476L563.5594 285.1585Q564.02814 285.87726 564.4344 286.61163Q564.825 285.93976 565.3719 285.096L567.04376 282.56476L568.35626 282.56476L564.9344 287.51788L564.9344 291.1585L563.79376 291.1585ZM572.4969 289.1585L573.59064 289.2835Q573.34064 290.23663 572.6375 290.76788Q571.9344 291.29913 570.85626 291.29913Q569.4969 291.29913 568.6844 290.45538Q567.8875 289.61163 567.8875 288.096Q567.8875 286.5335 568.7 285.67413Q569.5125 284.79913 570.79376 284.79913Q572.04376 284.79913 572.825 285.64288Q573.6219 286.48663 573.6219 288.0335Q573.6219 288.12726 573.6219 288.31476L568.98126 288.31476Q569.04376 289.346 569.5594 289.89288Q570.075 290.42413 570.85626 290.42413Q571.4344 290.42413 571.84064 290.12726Q572.2625 289.81476 572.4969 289.1585ZM569.04376 287.45538L572.5125 287.45538Q572.45 286.6585 572.1219 286.26788Q571.60626 285.6585 570.8094 285.6585Q570.075 285.6585 569.575 286.14288Q569.09064 286.62726 569.04376 287.45538ZM574.825 289.29913L575.85626 289.14288Q575.95 289.76788 576.34064 290.096Q576.7469 290.42413 577.48126 290.42413Q578.2 290.42413 578.54376 290.14288Q578.90314 289.846 578.90314 289.43976Q578.90314 289.08038 578.59064 288.87726Q578.3719 288.73663 577.5125 288.51788Q576.35626 288.221 575.90314 288.01788Q575.46564 287.79913 575.23126 287.42413Q574.9969 287.04913 574.9969 286.58038Q574.9969 286.17413 575.1844 285.81476Q575.3719 285.45538 575.7 285.221Q575.95 285.04913 576.3719 284.92413Q576.79376 284.79913 577.29376 284.79913Q578.0125 284.79913 578.5594 285.01788Q579.1219 285.221 579.3875 285.58038Q579.65314 285.93976 579.7469 286.5335L578.71564 286.67413Q578.65314 286.20538 578.3094 285.93976Q577.98126 285.6585 577.35626 285.6585Q576.6375 285.6585 576.325 285.9085Q576.0125 286.14288 576.0125 286.471Q576.0125 286.67413 576.1375 286.83038Q576.27814 287.00226 576.54376 287.11163Q576.7 287.17413 577.48126 287.37726Q578.60626 287.68976 579.04376 287.87726Q579.48126 288.06476 579.73126 288.42413Q579.98126 288.7835 579.98126 289.33038Q579.98126 289.86163 579.66876 290.33038Q579.3719 290.7835 578.79376 291.04913Q578.21564 291.29913 577.48126 291.29913Q576.2625 291.29913 575.6219 290.79913Q574.9969 290.2835 574.825 289.29913Z" fill-rule="nonzero"/><path fill="#9e9e9e" d="M547.10626 306.17413L548.1219 306.08038Q548.2469 306.79913 548.60626 307.12726Q548.98126 307.43976 549.54376 307.43976Q550.02814 307.43976 550.3875 307.221Q550.7625 306.98663 550.9969 306.62726Q551.23126 306.25226 551.3875 305.62726Q551.54376 304.98663 551.54376 304.33038Q551.54376 304.25226 551.54376 304.11163Q551.23126 304.61163 550.6844 304.93976Q550.1375 305.25226 549.4969 305.25226Q548.41876 305.25226 547.6844 304.48663Q546.95 303.70538 546.95 302.43976Q546.95 301.12726 547.71564 300.33038Q548.4969 299.5335 549.65314 299.5335Q550.48126 299.5335 551.16876 299.98663Q551.8719 300.43976 552.23126 301.2835Q552.59064 302.11163 552.59064 303.68976Q552.59064 305.33038 552.23126 306.31476Q551.8875 307.2835 551.16876 307.79913Q550.46564 308.29913 549.52814 308.29913Q548.5125 308.29913 547.8719 307.75226Q547.23126 307.18976 547.10626 306.17413ZM551.41876 302.37726Q551.41876 301.471 550.9344 300.93976Q550.46564 300.4085 549.77814 300.4085Q549.075 300.4085 548.54376 300.98663Q548.02814 301.54913 548.02814 302.471Q548.02814 303.2835 548.52814 303.79913Q549.02814 304.31476 549.7469 304.31476Q550.48126 304.31476 550.95 303.79913Q551.41876 303.2835 551.41876 302.37726ZM559.41876 301.67413L558.3719 301.75226Q558.23126 301.12726 557.98126 300.846Q557.54376 300.39288 556.91876 300.39288Q556.41876 300.39288 556.02814 300.67413Q555.54376 301.04913 555.2469 301.75226Q554.96564 302.43976 554.95 303.721Q555.325 303.14288 555.8719 302.86163Q556.4344 302.58038 557.04376 302.58038Q558.09064 302.58038 558.825 303.36163Q559.575 304.14288 559.575 305.36163Q559.575 306.17413 559.21564 306.87726Q558.8719 307.56476 558.2625 307.93976Q557.65314 308.29913 556.8875 308.29913Q555.5594 308.29913 554.73126 307.33038Q553.90314 306.36163 553.90314 304.14288Q553.90314 301.64288 554.825 300.51788Q555.6219 299.5335 556.98126 299.5335Q557.9969 299.5335 558.6375 300.11163Q559.29376 300.67413 559.41876 301.67413ZM555.1219 305.37726Q555.1219 305.92413 555.34064 306.42413Q555.575 306.9085 555.98126 307.17413Q556.40314 307.43976 556.8719 307.43976Q557.52814 307.43976 558.0125 306.9085Q558.4969 306.36163 558.4969 305.43976Q558.4969 304.54913 558.0125 304.0335Q557.54376 303.51788 556.825 303.51788Q556.10626 303.51788 555.60626 304.0335Q555.1219 304.54913 555.1219 305.37726ZM561.54376 308.1585L561.54376 306.95538L562.7469 306.95538L562.7469 308.1585L561.54376 308.1585ZM563.95 303.92413Q563.95 302.39288 564.2625 301.471Q564.575 300.5335 565.1844 300.0335Q565.8094 299.5335 566.7469 299.5335Q567.4344 299.5335 567.95 299.81476Q568.48126 300.096 568.825 300.62726Q569.16876 301.14288 569.35626 301.89288Q569.54376 302.64288 569.54376 303.92413Q569.54376 305.43976 569.23126 306.36163Q568.9344 307.2835 568.3094 307.79913Q567.7 308.29913 566.7469 308.29913Q565.5125 308.29913 564.79376 307.4085Q563.95 306.346 563.95 303.92413ZM565.02814 303.92413Q565.02814 306.0335 565.52814 306.73663Q566.02814 307.43976 566.7469 307.43976Q567.48126 307.43976 567.96564 306.73663Q568.46564 306.0335 568.46564 303.92413Q568.46564 301.79913 567.96564 301.11163Q567.48126 300.4085 566.73126 300.4085Q566.0125 300.4085 565.575 301.01788Q565.02814 301.79913 565.02814 303.92413ZM571.15314 301.62726Q571.15314 300.70538 571.60626 300.06476Q572.075 299.42413 572.95 299.42413Q573.7625 299.42413 574.29376 300.00226Q574.825 300.58038 574.825 301.68976Q574.825 302.7835 574.27814 303.37726Q573.7469 303.95538 572.96564 303.95538Q572.1844 303.95538 571.66876 303.37726Q571.15314 302.79913 571.15314 301.62726ZM572.98126 300.14288Q572.59064 300.14288 572.325 300.48663Q572.075 300.83038 572.075 301.73663Q572.075 302.56476 572.325 302.9085Q572.59064 303.23663 572.98126 303.23663Q573.3875 303.23663 573.6375 302.89288Q573.90314 302.54913 573.90314 301.6585Q573.90314 300.81476 573.6375 300.48663Q573.3719 300.14288 572.98126 300.14288ZM572.98126 308.471L577.6844 299.42413L578.54376 299.42413L573.85626 308.471L572.98126 308.471ZM576.7 306.14288Q576.7 305.221 577.15314 304.58038Q577.6219 303.93976 578.5125 303.93976Q579.325 303.93976 579.85626 304.51788Q580.3875 305.08038 580.3875 306.20538Q580.3875 307.29913 579.84064 307.89288Q579.3094 308.471 578.5125 308.471Q577.7469 308.471 577.21564 307.89288Q576.7 307.31476 576.7 306.14288ZM578.54376 304.6585Q578.1375 304.6585 577.8719 305.00226Q577.6219 305.346 577.6219 306.25226Q577.6219 307.06476 577.8875 307.4085Q578.15314 307.75226 578.54376 307.75226Q578.9344 307.75226 579.2 307.4085Q579.46564 307.06476 579.46564 306.1585Q579.46564 305.33038 579.2 305.00226Q578.9344 304.6585 578.54376 304.6585Z" fill-rule="nonzero"/><path stroke="#757575" stroke-width="1.0" stroke-linecap="butt" d="M581.45 295.6585L442.76666 295.6585L316.28433 295.6585" fill-rule="nonzero"/><path fill="#9e9e9e" d="M318.28433 295.6585C318.28433 294.55392 317.38892 293.6585 316.28433 293.6585C315.17978 293.6585 314.28433 294.55392 314.28433 295.6585C314.28433 296.76306 315.17978 297.6585 316.28433 297.6585C317.38892 297.6585 318.28433 296.76306 318.28433 295.6585" fill-rule="nonzero"/><path fill="#757575" d="M18.51875 37.55L24.01875 23.2375L26.065624 23.2375L31.925 37.55L29.76875 37.55L28.096874 33.20625L22.1125 33.20625L20.534374 37.55L18.51875 37.55ZM22.659374 31.675L27.503124 31.675L26.01875 27.70625Q25.33125 25.89375 25.003124 24.7375Q24.721874 26.1125 24.221874 27.471874L22.659374 31.675ZM32.846874 37.55L32.846874 27.175L34.425 27.175L34.425 28.753124Q35.034374 27.64375 35.55 27.3Q36.065624 26.940624 36.675 26.940624Q37.565624 26.940624 38.4875 27.503124L37.878124 29.14375Q37.2375 28.753124 36.596874 28.753124Q36.01875 28.753124 35.55 29.1125Q35.096874 29.45625 34.89375 30.065624Q34.6125 31.003124 34.6125 32.1125L34.6125 37.55L32.846874 37.55ZM46.971874 34.20625L48.784374 34.440624Q48.3625 36.01875 47.190624 36.909374Q46.034374 37.784374 44.221874 37.784374Q41.95625 37.784374 40.6125 36.39375Q39.284374 34.9875 39.284374 32.45625Q39.284374 29.83125 40.628124 28.39375Q41.971874 26.940624 44.128124 26.940624Q46.20625 26.940624 47.51875 28.3625Q48.846874 29.76875 48.846874 32.346874Q48.846874 32.503124 48.83125 32.815624L41.096874 32.815624Q41.190624 34.51875 42.065624 35.425Q42.940624 36.33125 44.2375 36.33125Q45.20625 36.33125 45.878124 35.83125Q46.565624 35.315624 46.971874 34.20625ZM41.190624 31.3625L46.9875 31.3625Q46.878124 30.065624 46.33125 29.409374Q45.4875 28.39375 44.14375 28.39375Q42.940624 28.39375 42.1125 29.20625Q41.284374 30.003124 41.190624 31.3625ZM60.70625 35.971874L60.95625 37.534374Q60.221874 37.690624 59.628124 37.690624Q58.675 37.690624 58.14375 37.39375Q57.628124 37.08125 57.409374 36.596874Q57.190624 36.096874 57.190624 34.51875L57.190624 28.55L55.909374 28.55L55.909374 27.175L57.190624 27.175L57.190624 24.6125L58.940624 23.55L58.940624 27.175L60.70625 27.175L60.70625 28.55L58.940624 28.55L58.940624 34.6125Q58.940624 35.3625 59.034374 35.58125Q59.128124 35.784374 59.33125 35.925Q59.55 36.05 59.940624 36.05Q60.221874 36.05 60.70625 35.971874ZM62.8625 37.55L62.8625 23.2375L64.62813 23.2375L64.62813 28.3625Q65.8625 26.940624 67.7375 26.940624Q68.87813 26.940624 69.72188 27.39375Q70.58125 27.846874 70.94063 28.659374Q71.31563 29.45625 71.31563 30.971874L71.31563 37.55L69.56563 37.55L69.56563 30.971874Q69.56563 29.659374 68.9875 29.065624Q68.40938 28.45625 67.37813 28.45625Q66.59688 28.45625 65.89375 28.8625Q65.20625 29.26875 64.90938 29.971874Q64.62813 30.659374 64.62813 31.878124L64.62813 37.55L62.8625 37.55ZM79.97188 34.20625L81.78438 34.440624Q81.3625 36.01875 80.19063 36.909374Q79.03438 37.784374 77.22188 37.784374Q74.95625 37.784374 73.6125 36.39375Q72.28438 34.9875 72.28438 32.45625Q72.28438 29.83125 73.62813 28.39375Q74.97188 26.940624 77.12813 26.940624Q79.20625 26.940624 80.51875 28.3625Q81.84688 29.76875 81.84688 32.346874Q81.84688 32.503124 81.83125 32.815624L74.09688 32.815624Q74.19063 34.51875 75.06563 35.425Q75.94063 36.33125 77.2375 36.33125Q78.20625 36.33125 78.87813 35.83125Q79.56563 35.315624 79.97188 34.20625ZM74.19063 31.3625L79.9875 31.3625Q79.87813 30.065624 79.33125 29.409374Q78.4875 28.39375 77.14375 28.39375Q75.94063 28.39375 75.1125 29.20625Q74.28438 30.003124 74.19063 31.3625ZM83.84688 37.55L83.84688 27.175L85.425 27.175L85.425 28.753124Q86.03438 27.64375 86.55 27.3Q87.06563 26.940624 87.675 26.940624Q88.56563 26.940624 89.4875 27.503124L88.87813 29.14375Q88.2375 28.753124 87.59688 28.753124Q87.01875 28.753124 86.55 29.1125Q86.09688 29.45625 85.89375 30.065624Q85.6125 31.003124 85.6125 32.1125L85.6125 37.55L83.84688 37.55ZM97.97188 34.20625L99.78438 34.440624Q99.3625 36.01875 98.19063 36.909374Q97.03438 37.784374 95.22188 37.784374Q92.95625 37.784374 91.6125 36.39375Q90.28438 34.9875 90.28438 32.45625Q90.28438 29.83125 91.62813 28.39375Q92.97188 26.940624 95.12813 26.940624Q97.20625 26.940624 98.51875 28.3625Q99.84688 29.76875 99.84688 32.346874Q99.84688 32.503124 99.83125 32.815624L92.09688 32.815624Q92.19063 34.51875 93.06563 35.425Q93.94063 36.33125 95.2375 36.33125Q96.20625 36.33125 96.87813 35.83125Q97.56563 35.315624 97.97188 34.20625ZM92.19063 31.3625L97.9875 31.3625Q97.87813 30.065624 97.33125 29.409374Q96.4875 28.39375 95.14375 28.39375Q93.94063 28.39375 93.1125 29.20625Q92.28438 30.003124 92.19063 31.3625ZM114.64375 36.26875Q113.65938 37.096874 112.75313 37.440624Q111.84688 37.784374 110.81563 37.784374Q109.1125 37.784374 108.19063 36.95625Q107.26875 36.1125 107.26875 34.815624Q107.26875 34.05 107.6125 33.425Q107.97188 32.8 108.53438 32.425Q109.09688 32.034374 109.8 31.83125Q110.31563 31.70625 111.3625 31.565624Q113.4875 31.315624 114.4875 30.971874Q114.50313 30.6125 114.50313 30.503124Q114.50313 29.440624 114.00313 28.9875Q113.33125 28.39375 112.00313 28.39375Q110.75313 28.39375 110.15938 28.83125Q109.58125 29.26875 109.3 30.378124L107.58125 30.14375Q107.81563 29.034374 108.34688 28.3625Q108.87813 27.675 109.89375 27.315624Q110.90938 26.940624 112.25313 26.940624Q113.58125 26.940624 114.40938 27.253124Q115.2375 27.565624 115.62813 28.05Q116.01875 28.51875 116.175 29.2375Q116.26875 29.690624 116.26875 30.8625L116.26875 33.20625Q116.26875 35.659374 116.37813 36.315624Q116.4875 36.95625 116.83125 37.55L114.9875 37.55Q114.72188 37.003124 114.64375 36.26875ZM114.4875 32.346874Q113.53438 32.7375 111.6125 33.003124Q110.53438 33.159374 110.08125 33.3625Q109.64375 33.55 109.39375 33.925Q109.14375 34.3 109.14375 34.76875Q109.14375 35.471874 109.675 35.940624Q110.20625 36.409374 111.2375 36.409374Q112.25313 36.409374 113.03438 35.971874Q113.83125 35.51875 114.20625 34.753124Q114.4875 34.14375 114.4875 32.9875L114.4875 32.346874ZM118.8625 37.55L118.8625 27.175L120.45625 27.175L120.45625 28.659374Q121.59688 26.940624 123.75313 26.940624Q124.69063 26.940624 125.47188 27.284374Q126.26875 27.6125 126.65938 28.159374Q127.05 28.70625 127.20625 29.45625Q127.3 29.95625 127.3 31.175L127.3 37.55L125.53438 37.55L125.53438 31.2375Q125.53438 30.159374 125.33125 29.628124Q125.12813 29.096874 124.59688 28.784374Q124.08125 28.471874 123.37813 28.471874Q122.25313 28.471874 121.44063 29.190624Q120.62813 29.89375 120.62813 31.878124L120.62813 37.55L118.8625 37.55ZM128.78438 41.55L128.59688 39.89375Q129.175 40.05 129.59688 40.05Q130.19063 40.05 130.53438 39.846874Q130.89375 39.659374 131.1125 39.315624Q131.28438 39.05 131.65938 38.003124Q131.70625 37.846874 131.81563 37.565624L127.87813 27.175L129.76875 27.175L131.925 33.190624Q132.34688 34.33125 132.675 35.58125Q132.9875 34.378124 133.39375 33.221874L135.6125 27.175L137.37813 27.175L133.425 37.721874Q132.8 39.440624 132.44063 40.08125Q131.97188 40.95625 131.3625 41.346874Q130.76875 41.753124 129.925 41.753124Q129.40938 41.753124 128.78438 41.55ZM148.70625 35.971874L148.95625 37.534374Q148.22188 37.690624 147.62813 37.690624Q146.675 37.690624 146.14375 37.39375Q145.62813 37.08125 145.40938 36.596874Q145.19063 36.096874 145.19063 34.51875L145.19063 28.55L143.90938 28.55L143.90938 27.175L145.19063 27.175L145.19063 24.6125L146.94063 23.55L146.94063 27.175L148.70625 27.175L148.70625 28.55L146.94063 28.55L146.94063 34.6125Q146.94063 35.3625 147.03438 35.58125Q147.12813 35.784374 147.33125 35.925Q147.55 36.05 147.94063 36.05Q148.22188 36.05 148.70625 35.971874ZM150.84688 37.55L150.84688 27.175L152.425 27.175L152.425 28.753124Q153.03438 27.64375 153.55 27.3Q154.06563 26.940624 154.675 26.940624Q155.56563 26.940624 156.4875 27.503124L155.87813 29.14375Q155.2375 28.753124 154.59688 28.753124Q154.01875 28.753124 153.55 29.1125Q153.09688 29.45625 152.89375 30.065624Q152.6125 31.003124 152.6125 32.1125L152.6125 37.55L150.84688 37.55ZM164.64375 36.26875Q163.65938 37.096874 162.75313 37.440624Q161.84688 37.784374 160.81563 37.784374Q159.1125 37.784374 158.19063 36.95625Q157.26875 36.1125 157.26875 34.815624Q157.26875 34.05 157.6125 33.425Q157.97188 32.8 158.53438 32.425Q159.09688 32.034374 159.8 31.83125Q160.31563 31.70625 161.3625 31.565624Q163.4875 31.315624 164.4875 30.971874Q164.50313 30.6125 164.50313 30.503124Q164.50313 29.440624 164.00313 28.9875Q163.33125 28.39375 162.00313 28.39375Q160.75313 28.39375 160.15938 28.83125Q159.58125 29.26875 159.3 30.378124L157.58125 30.14375Q157.81563 29.034374 158.34688 28.3625Q158.87813 27.675 159.89375 27.315624Q160.90938 26.940624 162.25313 26.940624Q163.58125 26.940624 164.40938 27.253124Q165.2375 27.565624 165.62813 28.05Q166.01875 28.51875 166.175 29.2375Q166.26875 29.690624 166.26875 30.8625L166.26875 33.20625Q166.26875 35.659374 166.37813 36.315624Q166.4875 36.95625 166.83125 37.55L164.9875 37.55Q164.72188 37.003124 164.64375 36.26875ZM164.4875 32.346874Q163.53438 32.7375 161.6125 33.003124Q160.53438 33.159374 160.08125 33.3625Q159.64375 33.55 159.39375 33.925Q159.14375 34.3 159.14375 34.76875Q159.14375 35.471874 159.675 35.940624Q160.20625 36.409374 161.2375 36.409374Q162.25313 36.409374 163.03438 35.971874Q163.83125 35.51875 164.20625 34.753124Q164.4875 34.14375 164.4875 32.9875L164.4875 32.346874ZM175.64375 33.753124L177.3625 33.971874Q177.08125 35.76875 175.90938 36.784374Q174.75313 37.784374 173.05 37.784374Q170.925 37.784374 169.62813 36.39375Q168.33125 35.003124 168.33125 32.409374Q168.33125 30.721874 168.87813 29.471874Q169.44063 28.20625 170.58125 27.58125Q171.72188 26.940624 173.06563 26.940624Q174.75313 26.940624 175.81563 27.8Q176.89375 28.659374 177.20625 30.221874L175.4875 30.4875Q175.25313 29.440624 174.62813 28.925Q174.00313 28.39375 173.12813 28.39375Q171.8 28.39375 170.97188 29.346874Q170.14375 30.3 170.14375 32.346874Q170.14375 34.440624 170.94063 35.39375Q171.7375 36.33125 173.03438 36.33125Q174.06563 36.33125 174.75313 35.70625Q175.45625 35.065624 175.64375 33.753124ZM178.87813 37.55L178.87813 23.2375L180.64375 23.2375L180.64375 31.39375L184.8 27.175L187.06563 27.175L183.1125 31.01875L187.47188 37.55L185.3 37.55L181.87813 32.253124L180.64375 33.440624L180.64375 37.55L178.87813 37.55ZM195.97188 34.20625L197.78438 34.440624Q197.3625 36.01875 196.19063 36.909374Q195.03438 37.784374 193.22188 37.784374Q190.95625 37.784374 189.6125 36.39375Q188.28438 34.9875 188.28438 32.45625Q188.28438 29.83125 189.62813 28.39375Q190.97188 26.940624 193.12813 26.940624Q195.20625 26.940624 196.51875 28.3625Q197.84688 29.76875 197.84688 32.346874Q197.84688 32.503124 197.83125 32.815624L190.09688 32.815624Q190.19063 34.51875 191.06563 35.425Q191.94063 36.33125 193.2375 36.33125Q194.20625 36.33125 194.87813 35.83125Q195.56563 35.315624 195.97188 34.20625ZM190.19063 31.3625L195.9875 31.3625Q195.87813 30.065624 195.33125 29.409374Q194.4875 28.39375 193.14375 28.39375Q191.94063 28.39375 191.1125 29.20625Q190.28438 30.003124 190.19063 31.3625ZM199.84688 37.55L199.84688 27.175L201.425 27.175L201.425 28.753124Q202.03438 27.64375 202.55 27.3Q203.06563 26.940624 203.675 26.940624Q204.56563 26.940624 205.4875 27.503124L204.87813 29.14375Q204.2375 28.753124 203.59688 28.753124Q203.01875 28.753124 202.55 29.1125Q202.09688 29.45625 201.89375 30.065624Q201.6125 31.003124 201.6125 32.1125L201.6125 37.55L199.84688 37.55ZM206.15938 34.45625L207.90938 34.175Q208.05 35.221874 208.72188 35.784374Q209.39375 36.33125 210.59688 36.33125Q211.8 36.33125 212.37813 35.846874Q212.97188 35.346874 212.97188 34.690624Q212.97188 34.096874 212.45625 33.753124Q212.09688 33.51875 210.65938 33.159374Q208.72188 32.659374 207.97188 32.315624Q207.2375 31.95625 206.84688 31.33125Q206.45625 30.690624 206.45625 29.925Q206.45625 29.2375 206.76875 28.64375Q207.09688 28.05 207.64375 27.659374Q208.05 27.3625 208.75313 27.159374Q209.47188 26.940624 210.28438 26.940624Q211.50313 26.940624 212.425 27.3Q213.34688 27.64375 213.78438 28.253124Q214.22188 28.846874 214.39375 29.846874L212.675 30.08125Q212.55 29.284374 211.9875 28.846874Q211.425 28.39375 210.40938 28.39375Q209.19063 28.39375 208.675 28.8Q208.15938 29.190624 208.15938 29.721874Q208.15938 30.065624 208.37813 30.346874Q208.58125 30.628124 209.05 30.815624Q209.31563 30.909374 210.59688 31.253124Q212.47188 31.753124 213.20625 32.08125Q213.94063 32.39375 214.3625 33.003124Q214.78438 33.596874 214.78438 34.503124Q214.78438 35.378124 214.26875 36.159374Q213.75313 36.940624 212.78438 37.3625Q211.81563 37.784374 210.59688 37.784374Q208.58125 37.784374 207.51875 36.940624Q206.45625 36.096874 206.15938 34.45625ZM222.8625 41.51875L222.8625 27.175L224.47188 27.175L224.47188 28.51875Q225.03438 27.7375 225.7375 27.346874Q226.45625 26.940624 227.47188 26.940624Q228.8 26.940624 229.81563 27.628124Q230.83125 28.315624 231.34688 29.565624Q231.87813 30.8 231.87813 32.284374Q231.87813 33.878124 231.3 35.159374Q230.7375 36.425 229.64375 37.1125Q228.55 37.784374 227.34688 37.784374Q226.47188 37.784374 225.76875 37.409374Q225.08125 37.034374 224.62813 36.471874L224.62813 41.51875L222.8625 41.51875ZM224.45625 32.425Q224.45625 34.425 225.26875 35.378124Q226.08125 36.33125 227.2375 36.33125Q228.40938 36.33125 229.2375 35.346874Q230.08125 34.3625 230.08125 32.26875Q230.08125 30.3 229.25313 29.315624Q228.44063 28.315624 227.31563 28.315624Q226.19063 28.315624 225.31563 29.378124Q224.45625 30.425 224.45625 32.425ZM233.84688 37.55L233.84688 27.175L235.425 27.175L235.425 28.753124Q236.03438 27.64375 236.55 27.3Q237.06563 26.940624 237.675 26.940624Q238.56563 26.940624 239.4875 27.503124L238.87813 29.14375Q238.2375 28.753124 237.59688 28.753124Q237.01875 28.753124 236.55 29.1125Q236.09688 29.45625 235.89375 30.065624Q235.6125 31.003124 235.6125 32.1125L235.6125 37.55L233.84688 37.55ZM247.97188 34.20625L249.78438 34.440624Q249.3625 36.01875 248.19063 36.909374Q247.03438 37.784374 245.22188 37.784374Q242.95625 37.784374 241.6125 36.39375Q240.28438 34.9875 240.28438 32.45625Q240.28438 29.83125 241.62813 28.39375Q242.97188 26.940624 245.12813 26.940624Q247.20625 26.940624 248.51875 28.3625Q249.84688 29.76875 249.84688 32.346874Q249.84688 32.503124 249.83125 32.815624L242.09688 32.815624Q242.19063 34.51875 243.06563 35.425Q243.94063 36.33125 245.2375 36.33125Q246.20625 36.33125 246.87813 35.83125Q247.56563 35.315624 247.97188 34.20625ZM242.19063 31.3625L247.9875 31.3625Q247.87813 30.065624 247.33125 29.409374Q246.4875 28.39375 245.14375 28.39375Q243.94063 28.39375 243.1125 29.20625Q242.28438 30.003124 242.19063 31.3625ZM251.15938 34.45625L252.90938 34.175Q253.05 35.221874 253.72188 35.784374Q254.39375 36.33125 255.59688 36.33125Q256.8 36.33125 257.3781 35.846874Q257.97186 35.346874 257.97186 34.690624Q257.97186 34.096874 257.45624 33.753124Q257.09686 33.51875 255.65938 33.159374Q253.72188 32.659374 252.97188 32.315624Q252.2375 31.95625 251.84688 31.33125Q251.45625 30.690624 251.45625 29.925Q251.45625 29.2375 251.76875 28.64375Q252.09688 28.05 252.64375 27.659374Q253.05 27.3625 253.75313 27.159374Q254.47188 26.940624 255.28438 26.940624Q256.5031 26.940624 257.425 27.3Q258.34686 27.64375 258.78436 28.253124Q259.22186 28.846874 259.39374 29.846874L257.675 30.08125Q257.55 29.284374 256.9875 28.846874Q256.425 28.39375 255.40938 28.39375Q254.19063 28.39375 253.675 28.8Q253.15938 29.190624 253.15938 29.721874Q253.15938 30.065624 253.37813 30.346874Q253.58125 30.628124 254.05 30.815624Q254.31563 30.909374 255.59688 31.253124Q257.47186 31.753124 258.20624 32.08125Q258.9406 32.39375 259.3625 33.003124Q259.78436 33.596874 259.78436 34.503124Q259.78436 35.378124 259.26874 36.159374Q258.7531 36.940624 257.78436 37.3625Q256.8156 37.784374 255.59688 37.784374Q253.58125 37.784374 252.51875 36.940624Q251.45625 36.096874 251.15938 34.45625ZM268.97186 34.20625L270.78436 34.440624Q270.3625 36.01875 269.1906 36.909374Q268.03436 37.784374 266.22186 37.784374Q263.95624 37.784374 262.6125 36.39375Q261.28436 34.9875 261.28436 32.45625Q261.28436 29.83125 262.6281 28.39375Q263.97186 26.940624 266.1281 26.940624Q268.20624 26.940624 269.51874 28.3625Q270.84686 29.76875 270.84686 32.346874Q270.84686 32.503124 270.83124 32.815624L263.09686 32.815624Q263.1906 34.51875 264.0656 35.425Q264.9406 36.33125 266.2375 36.33125Q267.20624 36.33125 267.8781 35.83125Q268.5656 35.315624 268.97186 34.20625ZM263.1906 31.3625L268.9875 31.3625Q268.8781 30.065624 268.33124 29.409374Q267.4875 28.39375 266.14374 28.39375Q264.9406 28.39375 264.1125 29.20625Q263.28436 30.003124 263.1906 31.3625ZM272.8625 37.55L272.8625 27.175L274.45624 27.175L274.45624 28.659374Q275.59686 26.940624 277.7531 26.940624Q278.6906 26.940624 279.47186 27.284374Q280.26874 27.6125 280.65936 28.159374Q281.05 28.70625 281.20624 29.45625Q281.3 29.95625 281.3 31.175L281.3 37.55L279.53436 37.55L279.53436 31.2375Q279.53436 30.159374 279.33124 29.628124Q279.1281 29.096874 278.59686 28.784374Q278.08124 28.471874 277.3781 28.471874Q276.2531 28.471874 275.4406 29.190624Q274.6281 29.89375 274.6281 31.878124L274.6281 37.55L272.8625 37.55ZM286.70624 35.971874L286.95624 37.534374Q286.22186 37.690624 285.6281 37.690624Q284.675 37.690624 284.14374 37.39375Q283.6281 37.08125 283.40936 36.596874Q283.1906 36.096874 283.1906 34.51875L283.1906 28.55L281.90936 28.55L281.90936 27.175L283.1906 27.175L283.1906 24.6125L284.9406 23.55L284.9406 27.175L286.70624 27.175L286.70624 28.55L284.9406 28.55L284.9406 34.6125Q284.9406 35.3625 285.03436 35.58125Q285.1281 35.784374 285.33124 35.925Q285.55 36.05 285.9406 36.05Q286.22186 36.05 286.70624 35.971874ZM294.22186 32.3625Q294.22186 29.4875 295.8156 28.096874Q297.15936 26.940624 299.08124 26.940624Q301.22186 26.940624 302.5656 28.346874Q303.925 29.753124 303.925 32.221874Q303.925 34.221874 303.33124 35.378124Q302.7375 36.51875 301.58124 37.159374Q300.4406 37.784374 299.08124 37.784374Q296.89374 37.784374 295.55 36.39375Q294.22186 34.9875 294.22186 32.3625ZM296.01874 32.3625Q296.01874 34.3625 296.8781 35.346874Q297.7531 36.33125 299.08124 36.33125Q300.39374 36.33125 301.2531 35.346874Q302.1281 34.346874 302.1281 32.3Q302.1281 30.378124 301.2531 29.39375Q300.3781 28.39375 299.08124 28.39375Q297.7531 28.39375 296.8781 29.39375Q296.01874 30.378124 296.01874 32.3625ZM305.8625 37.55L305.8625 27.175L307.45624 27.175L307.45624 28.659374Q308.59686 26.940624 310.7531 26.940624Q311.6906 26.940624 312.47186 27.284374Q313.26874 27.6125 313.65936 28.159374Q314.05 28.70625 314.20624 29.45625Q314.3 29.95625 314.3 31.175L314.3 37.55L312.53436 37.55L312.53436 31.2375Q312.53436 30.159374 312.33124 29.628124Q312.1281 29.096874 311.59686 28.784374Q311.08124 28.471874 310.3781 28.471874Q309.2531 28.471874 308.4406 29.190624Q307.6281 29.89375 307.6281 31.878124L307.6281 37.55L305.8625 37.55ZM325.70624 35.971874L325.95624 37.534374Q325.22186 37.690624 324.6281 37.690624Q323.675 37.690624 323.14374 37.39375Q322.6281 37.08125 322.40936 36.596874Q322.1906 36.096874 322.1906 34.51875L322.1906 28.55L320.90936 28.55L320.90936 27.175L322.1906 27.175L322.1906 24.6125L323.9406 23.55L323.9406 27.175L325.70624 27.175L325.70624 28.55L323.9406 28.55L323.9406 34.6125Q323.9406 35.3625 324.03436 35.58125Q324.1281 35.784374 324.33124 35.925Q324.55 36.05 324.9406 36.05Q325.22186 36.05 325.70624 35.971874ZM327.8625 37.55L327.8625 23.2375L329.6281 23.2375L329.6281 28.3625Q330.8625 26.940624 332.7375 26.940624Q333.8781 26.940624 334.72186 27.39375Q335.58124 27.846874 335.9406 28.659374Q336.3156 29.45625 336.3156 30.971874L336.3156 37.55L334.5656 37.55L334.5656 30.971874Q334.5656 29.659374 333.9875 29.065624Q333.40936 28.45625 332.3781 28.45625Q331.59686 28.45625 330.89374 28.8625Q330.20624 29.26875 329.90936 29.971874Q329.6281 30.659374 329.6281 31.878124L329.6281 37.55L327.8625 37.55ZM344.97186 34.20625L346.78436 34.440624Q346.3625 36.01875 345.1906 36.909374Q344.03436 37.784374 342.22186 37.784374Q339.95624 37.784374 338.6125 36.39375Q337.28436 34.9875 337.28436 32.45625Q337.28436 29.83125 338.6281 28.39375Q339.97186 26.940624 342.1281 26.940624Q344.20624 26.940624 345.51874 28.3625Q346.84686 29.76875 346.84686 32.346874Q346.84686 32.503124 346.83124 32.815624L339.09686 32.815624Q339.1906 34.51875 340.0656 35.425Q340.9406 36.33125 342.2375 36.33125Q343.20624 36.33125 343.8781 35.83125Q344.5656 35.315624 344.97186 34.20625ZM339.1906 31.3625L344.9875 31.3625Q344.8781 30.065624 344.33124 29.409374Q343.4875 28.39375 342.14374 28.39375Q340.9406 28.39375 340.1125 29.20625Q339.28436 30.003124 339.1906 31.3625ZM356.78436 37.55L353.6125 27.175L355.425 27.175L357.08124 33.159374L357.6906 35.39375Q357.7375 35.221874 358.22186 33.253124L359.8781 27.175L361.6906 27.175L363.2375 33.190624L363.7531 35.175L364.34686 33.175L366.1281 27.175L367.83124 27.175L364.59686 37.55L362.76874 37.55L361.1125 31.33125L360.72186 29.565624L358.6125 37.55L356.78436 37.55ZM376.97186 34.20625L378.78436 34.440624Q378.3625 36.01875 377.1906 36.909374Q376.03436 37.784374 374.22186 37.784374Q371.95624 37.784374 370.6125 36.39375Q369.28436 34.9875 369.28436 32.45625Q369.28436 29.83125 370.6281 28.39375Q371.97186 26.940624 374.1281 26.940624Q376.20624 26.940624 377.51874 28.3625Q378.84686 29.76875 378.84686 32.346874Q378.84686 32.503124 378.83124 32.815624L371.09686 32.815624Q371.1906 34.51875 372.0656 35.425Q372.9406 36.33125 374.2375 36.33125Q375.20624 36.33125 375.8781 35.83125Q376.5656 35.315624 376.97186 34.20625ZM371.1906 31.3625L376.9875 31.3625Q376.8781 30.065624 376.33124 29.409374Q375.4875 28.39375 374.14374 28.39375Q372.9406 28.39375 372.1125 29.20625Q371.28436 30.003124 371.1906 31.3625ZM382.4875 37.55L380.8625 37.55L380.8625 23.2375L382.6125 23.2375L382.6125 28.346874Q383.7375 26.940624 385.45624 26.940624Q386.40936 26.940624 387.26874 27.33125Q388.1281 27.721874 388.675 28.425Q389.22186 29.1125 389.53436 30.096874Q389.84686 31.08125 389.84686 32.20625Q389.84686 34.878124 388.53436 36.33125Q387.22186 37.784374 385.3781 37.784374Q383.53436 37.784374 382.4875 36.253124L382.4875 37.55ZM382.47186 32.284374Q382.47186 34.14375 382.97186 34.9875Q383.8156 36.33125 385.22186 36.33125Q386.3781 36.33125 387.20624 35.33125Q388.05 34.33125 388.05 32.346874Q388.05 30.315624 387.2375 29.3625Q386.4406 28.39375 385.3 28.39375Q384.14374 28.39375 383.3 29.39375Q382.47186 30.39375 382.47186 32.284374ZM391.15936 34.45625L392.90936 34.175Q393.05 35.221874 393.72186 35.784374Q394.39374 36.33125 395.59686 36.33125Q396.8 36.33125 397.3781 35.846874Q397.97186 35.346874 397.97186 34.690624Q397.97186 34.096874 397.45624 33.753124Q397.09686 33.51875 395.65936 33.159374Q393.72186 32.659374 392.97186 32.315624Q392.2375 31.95625 391.84686 31.33125Q391.45624 30.690624 391.45624 29.925Q391.45624 29.2375 391.76874 28.64375Q392.09686 28.05 392.64374 27.659374Q393.05 27.3625 393.7531 27.159374Q394.47186 26.940624 395.28436 26.940624Q396.5031 26.940624 397.425 27.3Q398.34686 27.64375 398.78436 28.253124Q399.22186 28.846874 399.39374 29.846874L397.675 30.08125Q397.55 29.284374 396.9875 28.846874Q396.425 28.39375 395.40936 28.39375Q394.1906 28.39375 393.675 28.8Q393.15936 29.190624 393.15936 29.721874Q393.15936 30.065624 393.3781 30.346874Q393.58124 30.628124 394.05 30.815624Q394.3156 30.909374 395.59686 31.253124Q397.47186 31.753124 398.20624 32.08125Q398.9406 32.39375 399.3625 33.003124Q399.78436 33.596874 399.78436 34.503124Q399.78436 35.378124 399.26874 36.159374Q398.7531 36.940624 397.78436 37.3625Q396.8156 37.784374 395.59686 37.784374Q393.58124 37.784374 392.51874 36.940624Q391.45624 36.096874 391.15936 34.45625ZM401.8781 25.253124L401.8781 23.2375L403.64374 23.2375L403.64374 25.253124L401.8781 25.253124ZM401.8781 37.55L401.8781 27.175L403.64374 27.175L403.64374 37.55L401.8781 37.55ZM409.70624 35.971874L409.95624 37.534374Q409.22186 37.690624 408.6281 37.690624Q407.675 37.690624 407.14374 37.39375Q406.6281 37.08125 406.40936 36.596874Q406.1906 36.096874 406.1906 34.51875L406.1906 28.55L404.90936 28.55L404.90936 27.175L406.1906 27.175L406.1906 24.6125L407.9406 23.55L407.9406 27.175L409.70624 27.175L409.70624 28.55L407.9406 28.55L407.9406 34.6125Q407.9406 35.3625 408.03436 35.58125Q408.1281 35.784374 408.33124 35.925Q408.55 36.05 408.9406 36.05Q409.22186 36.05 409.70624 35.971874ZM418.97186 34.20625L420.78436 34.440624Q420.3625 36.01875 419.1906 36.909374Q418.03436 37.784374 416.22186 37.784374Q413.95624 37.784374 412.6125 36.39375Q411.28436 34.9875 411.28436 32.45625Q411.28436 29.83125 412.6281 28.39375Q413.97186 26.940624 416.1281 26.940624Q418.20624 26.940624 419.51874 28.3625Q420.84686 29.76875 420.84686 32.346874Q420.84686 32.503124 420.83124 32.815624L413.09686 32.815624Q413.1906 34.51875 414.0656 35.425Q414.9406 36.33125 416.2375 36.33125Q417.20624 36.33125 417.8781 35.83125Q418.5656 35.315624 418.97186 34.20625ZM413.1906 31.3625L418.9875 31.3625Q418.8781 30.065624 418.33124 29.409374Q417.4875 28.39375 416.14374 28.39375Q414.9406 28.39375 414.1125 29.20625Q413.28436 30.003124 413.1906 31.3625ZM435.59686 37.55L435.59686 36.2375Q434.6125 37.784374 432.6906 37.784374Q431.45624 37.784374 430.40936 37.096874Q429.3781 36.409374 428.8 35.190624Q428.2375 33.971874 428.2375 32.378124Q428.2375 30.815624 428.7531 29.55Q429.26874 28.284374 430.3 27.6125Q431.34686 26.940624 432.6125 26.940624Q433.55 26.940624 434.28436 27.346874Q435.01874 27.7375 435.4875 28.3625L435.4875 23.2375L437.22186 23.2375L437.22186 37.55L435.59686 37.55ZM430.03436 32.378124Q430.03436 34.3625 430.8781 35.346874Q431.72186 36.33125 432.8625 36.33125Q434.01874 36.33125 434.8156 35.39375Q435.6281 34.45625 435.6281 32.51875Q435.6281 30.39375 434.8 29.39375Q433.9875 28.39375 432.78436 28.39375Q431.6125 28.39375 430.8156 29.3625Q430.03436 30.315624 430.03436 32.378124ZM446.97186 34.20625L448.78436 34.440624Q448.3625 36.01875 447.1906 36.909374Q446.03436 37.784374 444.22186 37.784374Q441.95624 37.784374 440.6125 36.39375Q439.28436 34.9875 439.28436 32.45625Q439.28436 29.83125 440.6281 28.39375Q441.97186 26.940624 444.1281 26.940624Q446.20624 26.940624 447.51874 28.3625Q448.84686 29.76875 448.84686 32.346874Q448.84686 32.503124 448.83124 32.815624L441.09686 32.815624Q441.1906 34.51875 442.0656 35.425Q442.9406 36.33125 444.2375 36.33125Q445.20624 36.33125 445.8781 35.83125Q446.5656 35.315624 446.97186 34.20625ZM441.1906 31.3625L446.9875 31.3625Q446.8781 30.065624 446.33124 29.409374Q445.4875 28.39375 444.14374 28.39375Q442.9406 28.39375 442.1125 29.20625Q441.28436 30.003124 441.1906 31.3625ZM454.70624 35.971874L454.95624 37.534374Q454.22186 37.690624 453.6281 37.690624Q452.675 37.690624 452.14374 37.39375Q451.6281 37.08125 451.40936 36.596874Q451.1906 36.096874 451.1906 34.51875L451.1906 28.55L449.90936 28.55L449.90936 27.175L451.1906 27.175L451.1906 24.6125L452.9406 23.55L452.9406 27.175L454.70624 27.175L454.70624 28.55L452.9406 28.55L452.9406 34.6125Q452.9406 35.3625 453.03436 35.58125Q453.1281 35.784374 453.33124 35.925Q453.55 36.05 453.9406 36.05Q454.22186 36.05 454.70624 35.971874ZM463.97186 34.20625L465.78436 34.440624Q465.3625 36.01875 464.1906 36.909374Q463.03436 37.784374 461.22186 37.784374Q458.95624 37.784374 457.6125 36.39375Q456.28436 34.9875 456.28436 32.45625Q456.28436 29.83125 457.6281 28.39375Q458.97186 26.940624 461.1281 26.940624Q463.20624 26.940624 464.51874 28.3625Q465.84686 29.76875 465.84686 32.346874Q465.84686 32.503124 465.83124 32.815624L458.09686 32.815624Q458.1906 34.51875 459.0656 35.425Q459.9406 36.33125 461.2375 36.33125Q462.20624 36.33125 462.8781 35.83125Q463.5656 35.315624 463.97186 34.20625ZM458.1906 31.3625L463.9875 31.3625Q463.8781 30.065624 463.33124 29.409374Q462.4875 28.39375 461.14374 28.39375Q459.9406 28.39375 459.1125 29.20625Q458.28436 30.003124 458.1906 31.3625ZM474.64374 33.753124L476.3625 33.971874Q476.08124 35.76875 474.90936 36.784374Q473.7531 37.784374 472.05 37.784374Q469.925 37.784374 468.6281 36.39375Q467.33124 35.003124 467.33124 32.409374Q467.33124 30.721874 467.8781 29.471874Q468.4406 28.20625 469.58124 27.58125Q470.72186 26.940624 472.0656 26.940624Q473.7531 26.940624 474.8156 27.8Q475.89374 28.659374 476.20624 30.221874L474.4875 30.4875Q474.2531 29.440624 473.6281 28.925Q473.0031 28.39375 472.1281 28.39375Q470.8 28.39375 469.97186 29.346874Q469.14374 30.3 469.14374 32.346874Q469.14374 34.440624 469.9406 35.39375Q470.7375 36.33125 472.03436 36.33125Q473.0656 36.33125 473.7531 35.70625Q474.45624 35.065624 474.64374 33.753124ZM481.70624 35.971874L481.95624 37.534374Q481.22186 37.690624 480.6281 37.690624Q479.675 37.690624 479.14374 37.39375Q478.6281 37.08125 478.40936 36.596874Q478.1906 36.096874 478.1906 34.51875L478.1906 28.55L476.90936 28.55L476.90936 27.175L478.1906 27.175L478.1906 24.6125L479.9406 23.55L479.9406 27.175L481.70624 27.175L481.70624 28.55L479.9406 28.55L479.9406 34.6125Q479.9406 35.3625 480.03436 35.58125Q480.1281 35.784374 480.33124 35.925Q480.55 36.05 480.9406 36.05Q481.22186 36.05 481.70624 35.971874ZM490.97186 34.20625L492.78436 34.440624Q492.3625 36.01875 491.1906 36.909374Q490.03436 37.784374 488.22186 37.784374Q485.95624 37.784374 484.6125 36.39375Q483.28436 34.9875 483.28436 32.45625Q483.28436 29.83125 484.6281 28.39375Q485.97186 26.940624 488.1281 26.940624Q490.20624 26.940624 491.51874 28.3625Q492.84686 29.76875 492.84686 32.346874Q492.84686 32.503124 492.83124 32.815624L485.09686 32.815624Q485.1906 34.51875 486.0656 35.425Q486.9406 36.33125 488.2375 36.33125Q489.20624 36.33125 489.8781 35.83125Q490.5656 35.315624 490.97186 34.20625ZM485.1906 31.3625L490.9875 31.3625Q490.8781 30.065624 490.33124 29.409374Q489.4875 28.39375 488.14374 28.39375Q486.9406 28.39375 486.1125 29.20625Q485.28436 30.003124 485.1906 31.3625ZM501.59686 37.55L501.59686 36.2375Q500.6125 37.784374 498.6906 37.784374Q497.45624 37.784374 496.40936 37.096874Q495.3781 36.409374 494.8 35.190624Q494.2375 33.971874 494.2375 32.378124Q494.2375 30.815624 494.7531 29.55Q495.26874 28.284374 496.3 27.6125Q497.34686 26.940624 498.6125 26.940624Q499.55 26.940624 500.28436 27.346874Q501.01874 27.7375 501.4875 28.3625L501.4875 23.2375L503.22186 23.2375L503.22186 37.55L501.59686 37.55ZM496.03436 32.378124Q496.03436 34.3625 496.8781 35.346874Q497.72186 36.33125 498.8625 36.33125Q500.01874 36.33125 500.8156 35.39375Q501.6281 34.45625 501.6281 32.51875Q501.6281 30.39375 500.8 29.39375Q499.9875 28.39375 498.78436 28.39375Q497.6125 28.39375 496.8156 29.3625Q496.03436 30.315624 496.03436 32.378124ZM513.4875 37.55L511.8625 37.55L511.8625 23.2375L513.6125 23.2375L513.6125 28.346874Q514.7375 26.940624 516.45624 26.940624Q517.40936 26.940624 518.26874 27.33125Q519.1281 27.721874 519.675 28.425Q520.22186 29.1125 520.53436 30.096874Q520.84686 31.08125 520.84686 32.20625Q520.84686 34.878124 519.53436 36.33125Q518.22186 37.784374 516.3781 37.784374Q514.53436 37.784374 513.4875 36.253124L513.4875 37.55ZM513.47186 32.284374Q513.47186 34.14375 513.97186 34.9875Q514.8156 36.33125 516.22186 36.33125Q517.3781 36.33125 518.20624 35.33125Q519.05 34.33125 519.05 32.346874Q519.05 30.315624 518.2375 29.3625Q517.4406 28.39375 516.3 28.39375Q515.14374 28.39375 514.3 29.39375Q513.47186 30.39375 513.47186 32.284374ZM522.78436 41.55L522.59686 39.89375Q523.175 40.05 523.59686 40.05Q524.1906 40.05 524.53436 39.846874Q524.89374 39.659374 525.1125 39.315624Q525.28436 39.05 525.65936 38.003124Q525.70624 37.846874 525.8156 37.565624L521.8781 27.175L523.76874 27.175L525.925 33.190624Q526.34686 34.33125 526.675 35.58125Q526.9875 34.378124 527.39374 33.221874L529.6125 27.175L531.3781 27.175L527.425 37.721874Q526.8 39.440624 526.4406 40.08125Q525.97186 40.95625 525.3625 41.346874Q524.76874 41.753124 523.925 41.753124Q523.40936 41.753124 522.78436 41.55Z" fill-rule="nonzero"/><path fill="#757575" d="M19.8625 65.51875L19.8625 51.175L21.471874 51.175L21.471874 52.51875Q22.034374 51.7375 22.7375 51.346874Q23.45625 50.940624 24.471874 50.940624Q25.8 50.940624 26.815624 51.628124Q27.83125 52.315624 28.346874 53.565624Q28.878124 54.8 28.878124 56.284374Q28.878124 57.878124 28.3 59.159374Q27.7375 60.425 26.64375 61.1125Q25.55 61.784374 24.346874 61.784374Q23.471874 61.784374 22.76875 61.409374Q22.08125 61.034374 21.628124 60.471874L21.628124 65.51875L19.8625 65.51875ZM21.45625 56.425Q21.45625 58.425 22.26875 59.378124Q23.08125 60.33125 24.2375 60.33125Q25.409374 60.33125 26.2375 59.346874Q27.08125 58.3625 27.08125 56.26875Q27.08125 54.3 26.253124 53.315624Q25.440624 52.315624 24.315624 52.315624Q23.190624 52.315624 22.315624 53.378124Q21.45625 54.425 21.45625 56.425ZM30.846874 61.55L30.846874 51.175L32.425 51.175L32.425 52.753124Q33.034374 51.64375 33.55 51.3Q34.065624 50.940624 34.675 50.940624Q35.565624 50.940624 36.4875 51.503124L35.878124 53.14375Q35.2375 52.753124 34.596874 52.753124Q34.01875 52.753124 33.55 53.1125Q33.096874 53.45625 32.89375 54.065624Q32.6125 55.003124 32.6125 56.1125L32.6125 61.55L30.846874 61.55ZM37.878124 49.253124L37.878124 47.2375L39.64375 47.2375L39.64375 49.253124L37.878124 49.253124ZM37.878124 61.55L37.878124 51.175L39.64375 51.175L39.64375 61.55L37.878124 61.55ZM44.753124 61.55L40.8 51.175L42.659374 51.175L44.89375 57.39375Q45.253124 58.39375 45.55 59.471874Q45.784374 58.659374 46.20625 57.503124L48.503124 51.175L50.315624 51.175L46.39375 61.55L44.753124 61.55ZM57.64375 60.26875Q56.659374 61.096874 55.753124 61.440624Q54.846874 61.784374 53.815624 61.784374Q52.1125 61.784374 51.190624 60.95625Q50.26875 60.1125 50.26875 58.815624Q50.26875 58.05 50.6125 57.425Q50.971874 56.8 51.534374 56.425Q52.096874 56.034374 52.8 55.83125Q53.315624 55.70625 54.3625 55.565624Q56.4875 55.315624 57.4875 54.971874Q57.503124 54.6125 57.503124 54.503124Q57.503124 53.440624 57.003124 52.9875Q56.33125 52.39375 55.003124 52.39375Q53.753124 52.39375 53.159374 52.83125Q52.58125 53.26875 52.3 54.378124L50.58125 54.14375Q50.815624 53.034374 51.346874 52.3625Q51.878124 51.675 52.89375 51.315624Q53.909374 50.940624 55.253124 50.940624Q56.58125 50.940624 57.409374 51.253124Q58.2375 51.565624 58.628124 52.05Q59.01875 52.51875 59.175 53.2375Q59.26875 53.690624 59.26875 54.8625L59.26875 57.20625Q59.26875 59.659374 59.378124 60.315624Q59.4875 60.95625 59.83125 61.55L57.9875 61.55Q57.721874 61.003124 57.64375 60.26875ZM57.4875 56.346874Q56.534374 56.7375 54.6125 57.003124Q53.534374 57.159374 53.08125 57.3625Q52.64375 57.55 52.39375 57.925Q52.14375 58.3 52.14375 58.76875Q52.14375 59.471874 52.675 59.940624Q53.20625 60.409374 54.2375 60.409374Q55.253124 60.409374 56.034374 59.971874Q56.83125 59.51875 57.20625 58.753124Q57.4875 58.14375 57.4875 56.9875L57.4875 56.346874ZM68.64375 57.753124L70.3625 57.971874Q70.08125 59.76875 68.90938 60.784374Q67.75313 61.784374 66.05 61.784374Q63.925 61.784374 62.628124 60.39375Q61.33125 59.003124 61.33125 56.409374Q61.33125 54.721874 61.878124 53.471874Q62.440624 52.20625 63.58125 51.58125Q64.72188 50.940624 66.06563 50.940624Q67.75313 50.940624 68.81563 51.8Q69.89375 52.659374 70.20625 54.221874L68.4875 54.4875Q68.25313 53.440624 67.62813 52.925Q67.00313 52.39375 66.12813 52.39375Q64.8 52.39375 63.971874 53.346874Q63.14375 54.3 63.14375 56.346874Q63.14375 58.440624 63.940624 59.39375Q64.7375 60.33125 66.03438 60.33125Q67.06563 60.33125 67.75313 59.70625Q68.45625 59.065624 68.64375 57.753124ZM71.78438 65.55L71.59688 63.89375Q72.175 64.05 72.59688 64.05Q73.19063 64.05 73.53438 63.846874Q73.89375 63.659374 74.1125 63.315624Q74.28438 63.05 74.65938 62.003124Q74.70625 61.846874 74.81563 61.565624L70.87813 51.175L72.76875 51.175L74.925 57.190624Q75.34688 58.33125 75.675 59.58125Q75.9875 58.378124 76.39375 57.221874L78.6125 51.175L80.37813 51.175L76.425 61.721874Q75.8 63.440624 75.44063 64.08125Q74.97188 64.95625 74.3625 65.34688Q73.76875 65.75313 72.925 65.75313Q72.40938 65.75313 71.78438 65.55ZM89.4875 61.55L87.8625 61.55L87.8625 47.2375L89.6125 47.2375L89.6125 52.346874Q90.7375 50.940624 92.45625 50.940624Q93.40938 50.940624 94.26875 51.33125Q95.12813 51.721874 95.675 52.425Q96.22188 53.1125 96.53438 54.096874Q96.84688 55.08125 96.84688 56.20625Q96.84688 58.878124 95.53438 60.33125Q94.22188 61.784374 92.37813 61.784374Q90.53438 61.784374 89.4875 60.253124L89.4875 61.55ZM89.47188 56.284374Q89.47188 58.14375 89.97188 58.9875Q90.81563 60.33125 92.22188 60.33125Q93.37813 60.33125 94.20625 59.33125Q95.05 58.33125 95.05 56.346874Q95.05 54.315624 94.2375 53.3625Q93.44063 52.39375 92.3 52.39375Q91.14375 52.39375 90.3 53.39375Q89.47188 54.39375 89.47188 56.284374ZM105.64375 60.26875Q104.65938 61.096874 103.75313 61.440624Q102.84688 61.784374 101.81563 61.784374Q100.1125 61.784374 99.19063 60.95625Q98.26875 60.1125 98.26875 58.815624Q98.26875 58.05 98.6125 57.425Q98.97188 56.8 99.53438 56.425Q100.09688 56.034374 100.8 55.83125Q101.31563 55.70625 102.3625 55.565624Q104.4875 55.315624 105.4875 54.971874Q105.50313 54.6125 105.50313 54.503124Q105.50313 53.440624 105.00313 52.9875Q104.33125 52.39375 103.00313 52.39375Q101.75313 52.39375 101.15938 52.83125Q100.58125 53.26875 100.3 54.378124L98.58125 54.14375Q98.81563 53.034374 99.34688 52.3625Q99.87813 51.675 100.89375 51.315624Q101.90938 50.940624 103.25313 50.940624Q104.58125 50.940624 105.40938 51.253124Q106.2375 51.565624 106.62813 52.05Q107.01875 52.51875 107.175 53.2375Q107.26875 53.690624 107.26875 54.8625L107.26875 57.20625Q107.26875 59.659374 107.37813 60.315624Q107.4875 60.95625 107.83125 61.55L105.9875 61.55Q105.72188 61.003124 105.64375 60.26875ZM105.4875 56.346874Q104.53438 56.7375 102.6125 57.003124Q101.53438 57.159374 101.08125 57.3625Q100.64375 57.55 100.39375 57.925Q100.14375 58.3 100.14375 58.76875Q100.14375 59.471874 100.675 59.940624Q101.20625 60.409374 102.2375 60.409374Q103.25313 60.409374 104.03438 59.971874Q104.83125 59.51875 105.20625 58.753124Q105.4875 58.14375 105.4875 56.9875L105.4875 56.346874ZM116.59688 61.55L116.59688 60.2375Q115.6125 61.784374 113.69063 61.784374Q112.45625 61.784374 111.40938 61.096874Q110.37813 60.409374 109.8 59.190624Q109.2375 57.971874 109.2375 56.378124Q109.2375 54.815624 109.75313 53.55Q110.26875 52.284374 111.3 51.6125Q112.34688 50.940624 113.6125 50.940624Q114.55 50.940624 115.28438 51.346874Q116.01875 51.7375 116.4875 52.3625L116.4875 47.2375L118.22188 47.2375L118.22188 61.55L116.59688 61.55ZM111.03438 56.378124Q111.03438 58.3625 111.87813 59.346874Q112.72188 60.33125 113.8625 60.33125Q115.01875 60.33125 115.81563 59.39375Q116.62813 58.45625 116.62813 56.51875Q116.62813 54.39375 115.8 53.39375Q114.9875 52.39375 113.78438 52.39375Q112.6125 52.39375 111.81563 53.3625Q111.03438 54.315624 111.03438 56.378124ZM120.55 62.409374L122.25313 62.659374Q122.3625 63.45625 122.84688 63.815624Q123.50313 64.3 124.64375 64.3Q125.8625 64.3 126.51875 63.815624Q127.19063 63.33125 127.425 62.45625Q127.56563 61.909374 127.55 60.190624Q126.39375 61.55 124.675 61.55Q122.53438 61.55 121.3625 60.003124Q120.19063 58.45625 120.19063 56.3Q120.19063 54.815624 120.72188 53.565624Q121.26875 52.315624 122.28438 51.628124Q123.31563 50.940624 124.69063 50.940624Q126.51875 50.940624 127.72188 52.425L127.72188 51.175L129.33125 51.175L129.33125 60.14375Q129.33125 62.565624 128.83125 63.565624Q128.34688 64.58125 127.26875 65.15938Q126.20625 65.75313 124.64375 65.75313Q122.8 65.75313 121.64375 64.925Q120.50313 64.09688 120.55 62.409374ZM122.00313 56.175Q122.00313 58.221874 122.81563 59.159374Q123.62813 60.096874 124.84688 60.096874Q126.05 60.096874 126.8625 59.159374Q127.69063 58.221874 127.69063 56.2375Q127.69063 54.33125 126.84688 53.3625Q126.00313 52.39375 124.81563 52.39375Q123.64375 52.39375 122.81563 53.346874Q122.00313 54.3 122.00313 56.175ZM138.97188 58.20625L140.78438 58.440624Q140.3625 60.01875 139.19063 60.909374Q138.03438 61.784374 136.22188 61.784374Q133.95625 61.784374 132.6125 60.39375Q131.28438 58.9875 131.28438 56.45625Q131.28438 53.83125 132.62813 52.39375Q133.97188 50.940624 136.12813 50.940624Q138.20625 50.940624 139.51875 52.3625Q140.84688 53.76875 140.84688 56.346874Q140.84688 56.503124 140.83125 56.815624L133.09688 56.815624Q133.19063 58.51875 134.06563 59.425Q134.94063 60.33125 136.2375 60.33125Q137.20625 60.33125 137.87813 59.83125Q138.56563 59.315624 138.97188 58.20625ZM133.19063 55.3625L138.9875 55.3625Q138.87813 54.065624 138.33125 53.409374Q137.4875 52.39375 136.14375 52.39375Q134.94063 52.39375 134.1125 53.20625Q133.28438 54.003124 133.19063 55.3625ZM142.84688 61.55L142.84688 51.175L144.425 51.175L144.425 52.753124Q145.03438 51.64375 145.55 51.3Q146.06563 50.940624 146.675 50.940624Q147.56563 50.940624 148.4875 51.503124L147.87813 53.14375Q147.2375 52.753124 146.59688 52.753124Q146.01875 52.753124 145.55 53.1125Q145.09688 53.45625 144.89375 54.065624Q144.6125 55.003124 144.6125 56.1125L144.6125 61.55L142.84688 61.55ZM153.15938 58.01875Q153.14375 57.675 153.14375 57.503124Q153.14375 56.45625 153.44063 55.70625Q153.65938 55.14375 154.14375 54.565624Q154.4875 54.14375 155.39375 53.346874Q156.31563 52.534374 156.58125 52.065624Q156.8625 51.58125 156.8625 51.01875Q156.8625 49.9875 156.05 49.221874Q155.25313 48.440624 154.09688 48.440624Q152.97188 48.440624 152.22188 49.14375Q151.47188 49.846874 151.2375 51.33125L149.425 51.1125Q149.675 49.1125 150.87813 48.05Q152.08125 46.9875 154.06563 46.9875Q156.175 46.9875 157.425 48.128124Q158.675 49.26875 158.675 50.89375Q158.675 51.83125 158.22188 52.628124Q157.78438 53.409374 156.50313 54.55Q155.64375 55.315624 155.37813 55.675Q155.12813 56.034374 154.9875 56.503124Q154.8625 56.971874 154.84688 58.01875L153.15938 58.01875ZM153.05 61.55L153.05 59.55L155.05 59.55L155.05 61.55L153.05 61.55Z" fill-rule="nonzero"/></svg>